<!DOCTYPE svg PUBLIC "-//W3C//DTD SVG 20010904//EN" "http://www.w3.org/TR/2001/REC-SVG-20010904/DTD/svg10.dtd">
<svg version="1.0" xmlns="http://www.w3.org/2000/svg" width="800px" height="533px" viewBox="0 0 8000 5330" preserveAspectRatio="xMidYMid meet">
<g id="layer1" fill="#fa7b32" stroke="none">
 <path d="M1975 3100 c-4 -6 -3 -16 3 -22 6 -6 12 -6 17 2 4 6 3 16 -3 22 -6 6 -12 6 -17 -2z"/>
 </g>
<g id="layer2" fill="#582a1d" stroke="none">
 <path d="M2025 3100 c-4 -6 -3 -16 3 -22 6 -6 12 -6 17 2 4 6 3 16 -3 22 -6 6 -12 6 -17 -2z"/>
 </g>
<g id="layer3" fill="#ea956e" stroke="none">
 <path d="M2014 3095 c-4 -10 -14 -15 -25 -12 -26 7 -32 -7 -11 -26 16 -15 20 -15 40 -1 23 16 29 39 12 49 -6 3 -13 -1 -16 -10z"/>
 </g>
<g id="layer4" fill="#ed7a4f" stroke="none">
 <path d="M1957 3113 c-11 -11 -8 -40 6 -52 10 -8 18 -7 31 2 16 12 15 14 -7 35 -13 12 -27 19 -30 15z"/>
 </g>
<g id="layer5" fill="#4f2c2f" stroke="none">
 <path d="M1984 3139 c-7 -12 4 -29 21 -29 20 0 28 -19 15 -35 -7 -8 -7 -15 -1 -19 12 -8 24 10 27 41 2 16 -6 26 -27 37 -16 8 -31 10 -35 5z"/>
 </g>
<g id="layer6" fill="#6f363a" stroke="none">
 <path d="M1956 3121 c-19 -21 -15 -51 10 -72 11 -9 18 -9 26 -1 8 8 7 13 -5 18 -21 8 -22 40 -1 48 8 3 12 10 9 16 -9 15 -20 12 -39 -9z"/>
 </g>
<g id="layer7" fill="#481d2f" stroke="none">
 <path d="M1951 3126 c-7 -8 -8 -17 -3 -20 6 -3 15 1 21 8 7 8 8 17 3 20 -6 3 -15 -1 -21 -8z"/>
 <path d="M2005 3131 c-7 -12 12 -24 25 -16 11 7 4 25 -10 25 -5 0 -11 -4 -15 -9z"/>
 <path d="M1947 3073 c-10 -10 23 -43 43 -43 22 0 45 26 31 34 -5 3 -16 3 -25 0 -9 -3 -22 -1 -30 5 -7 6 -16 8 -19 4z"/>
 </g>
<g id="layer8" fill="#f68e47" stroke="none">
 <path d="M1965 3119 c-4 -6 3 -22 16 -35 l24 -25 18 22 c13 16 15 25 6 35 -14 17 -55 18 -64 3z"/>
 </g>
<g id="layer9" fill="#341f3c" stroke="none">
 <path d="M1941 3126 c-33 -40 24 -120 68 -97 26 14 19 31 -9 24 -32 -8 -50 13 -40 47 9 33 -1 47 -19 26z"/>
 </g>
<g id="layer10" fill="#322636" stroke="none">
 <path d="M1954 3139 c-5 -9 16 -21 32 -18 29 5 44 -3 44 -24 0 -13 -5 -28 -11 -34 -7 -7 -7 -13 -1 -17 6 -3 20 7 31 23 21 29 21 29 1 54 -15 18 -29 25 -55 25 -19 0 -38 -4 -41 -9z"/>
 </g>
<g id="layer11" fill="#282c4d" stroke="none">
 <path d="M1925 3136 c-13 -19 -14 -32 -7 -59 7 -25 6 -39 -2 -47 -13 -13 24 -46 64 -55 31 -7 95 18 104 40 10 26 -6 103 -25 121 -25 22 -44 9 -25 -18 27 -38 -23 -90 -64 -68 -24 13 -27 62 -5 80 8 7 12 16 9 21 -10 17 -33 9 -49 -15z"/>
 </g>
<g id="layer12" fill="#021d3d" stroke="none">
 <path d="M3847 4383 c-2 -4 -3 -26 -3 -47 1 -39 2 -39 45 -43 24 -2 51 -1 60 3 9 4 19 8 24 8 4 1 7 6 7 11 0 6 -17 10 -37 10 -38 0 -75 24 -70 46 2 14 -19 24 -26 12z"/>
 <path d="M4166 4365 c-9 -13 -16 -29 -16 -34 0 -5 -11 -11 -25 -13 -37 -4 -35 -22 3 -26 19 -2 31 -8 30 -15 -2 -7 2 -13 7 -14 6 -1 9 5 7 13 -3 15 19 18 80 8 21 -4 35 -11 32 -15 -10 -17 29 -23 41 -6 14 20 56 22 74 5 16 -17 324 -16 365 1 l29 12 -23 24 -23 25 -250 -1 c-218 0 -252 2 -259 15 -5 9 -18 16 -29 16 -11 0 -18 4 -14 9 13 22 -14 18 -29 -4z"/>
 <path d="M4863 4320 c-30 -12 -29 -26 1 -45 33 -22 100 -17 104 8 8 41 -48 60 -105 37z"/>
 <path d="M5224 4305 c-4 -9 -2 -21 4 -27 16 -16 47 -5 47 17 0 26 -42 34 -51 10z"/>
 <path d="M5445 4311 c-7 -13 17 -24 40 -19 9 1 16 8 16 13 0 14 -48 19 -56 6z"/>
 <path d="M6065 4310 c-4 -7 0 -19 9 -28 13 -13 20 -14 34 -6 9 6 17 17 17 25 0 17 -50 24 -60 9z"/>
 <path d="M1568 4099 c-24 -27 -50 -49 -56 -49 -7 0 -17 11 -22 25 -14 36 -40 44 -58 17 -18 -27 -42 -28 -73 -4 -45 35 -86 35 -134 2 -46 -32 -65 -36 -81 -20 -12 12 -129 15 -259 5 -55 -4 -154 -8 -220 -9 -66 -1 -168 -6 -226 -11 -76 -5 -108 -5 -113 4 -14 22 -133 5 -166 -25 -9 -8 -45 -14 -88 -16 l-72 -3 1 -30 c1 -45 12 -70 31 -73 22 -3 34 16 14 24 -21 8 -11 23 12 17 14 -3 18 -14 18 -41 -1 -36 0 -37 37 -40 24 -2 37 -8 34 -15 -2 -8 -29 -12 -75 -12 l-72 1 0 -88 0 -88 155 0 155 0 1 -52 c2 -75 -2 -232 -6 -238 -2 -3 -30 -6 -62 -5 l-58 0 -3 67 c-4 85 -13 93 -108 93 l-74 1 0 -534 0 -533 47 3 c48 3 48 3 51 41 2 28 8 37 22 37 14 0 20 -9 22 -37 4 -49 22 -49 26 -1 3 35 5 37 40 40 29 2 38 8 40 25 3 20 10 22 80 25 l77 3 -3 52 -4 52 84 3 83 3 3 38 c3 33 6 37 32 37 26 0 29 -4 32 -37 3 -35 6 -38 38 -43 19 -3 58 -3 85 0 l50 5 3 62 3 62 37 3 37 3 3 53 3 52 44 0 c43 0 44 0 47 -37 4 -52 32 -52 36 -1 l3 37 52 3 c45 3 52 6 55 25 3 17 11 23 40 25 32 3 37 7 40 31 3 22 8 27 32 27 16 0 30 -7 34 -15 5 -13 23 -15 103 -13 l98 3 3 40 c3 29 -1 43 -14 52 -15 11 0 13 93 13 l112 0 3 -27 c3 -26 6 -28 48 -28 45 0 45 0 48 38 3 29 7 37 22 37 11 0 23 7 28 16 8 15 10 15 16 -1 5 -13 9 -15 20 -6 8 7 20 10 27 9 13 -3 31 -31 33 -50 1 -5 6 -8 11 -8 6 0 9 16 8 35 -2 31 0 33 20 26 12 -5 22 -17 22 -27 0 -12 7 -19 20 -19 14 0 19 6 17 18 -2 11 6 21 23 27 31 12 32 18 0 30 -35 13 -31 30 6 30 27 0 30 -3 29 -27 -1 -16 -1 -32 0 -38 6 -25 5 -41 -2 -57 -11 -23 9 -33 21 -11 9 18 11 25 11 43 0 6 14 10 30 10 36 0 52 27 27 45 -10 7 -17 24 -17 39 l0 26 165 0 165 0 0 -59 c0 -33 5 -63 11 -67 6 -3 23 5 37 20 21 20 24 28 14 38 -7 7 -12 25 -12 40 0 26 3 28 40 28 38 0 40 -2 40 -29 0 -23 -5 -30 -22 -33 -15 -2 -23 -10 -23 -23 0 -17 7 -20 45 -20 l45 0 3 53 c3 51 4 52 35 52 22 0 38 -8 53 -27 19 -24 24 -26 38 -14 9 8 38 15 64 15 40 1 47 4 47 21 0 13 -8 21 -22 23 -18 3 -23 10 -23 33 l0 29 94 0 c77 0 95 -3 100 -16 5 -14 9 -14 23 -3 12 11 81 15 313 17 291 3 297 3 303 -17 3 -14 10 -18 26 -14 44 11 52 53 10 53 -14 0 -19 7 -19 30 l0 30 70 0 70 0 0 -29 c0 -27 -3 -30 -37 -33 -27 -2 -39 -8 -41 -21 -5 -23 26 -33 52 -16 12 7 61 16 111 19 84 5 90 7 93 28 3 17 10 22 32 22 22 0 29 -5 32 -22 3 -23 4 -23 198 -26 159 -2 196 -5 203 -17 11 -20 86 -20 93 0 8 20 50 19 58 -1 16 -41 10 -43 -111 -46 -110 -3 -118 -4 -118 -23 0 -19 8 -20 147 -23 145 -2 148 -3 164 -28 15 -22 18 -23 34 -9 28 25 46 10 42 -35 -2 -22 -8 -43 -14 -46 -5 -3 -2 -14 8 -25 16 -18 18 -18 38 -2 20 17 20 17 7 1 -12 -17 -9 -23 12 -19 5 1 5 -4 1 -11 -12 -18 -14 -37 -5 -43 9 -5 6 -129 -3 -144 -7 -11 10 -25 22 -17 8 5 35 -110 37 -154 1 -8 6 -14 13 -13 7 2 12 -3 12 -10 0 -17 42 -57 59 -57 7 0 9 -5 6 -10 -9 -15 23 -24 39 -10 10 7 21 8 33 2 10 -5 46 -7 79 -5 38 3 65 0 69 -6 8 -14 92 -14 100 -1 8 13 48 13 62 -1 7 -7 13 -7 17 0 4 5 13 8 22 4 8 -3 23 2 33 11 13 12 21 14 26 6 5 -8 11 -8 21 1 8 6 14 8 14 5 0 -4 10 -1 23 6 12 7 29 12 37 13 8 0 14 6 13 13 -2 7 8 12 26 12 28 0 54 21 57 44 0 6 2 17 2 23 1 7 8 12 15 10 8 -1 11 9 9 33 -3 41 15 90 40 108 12 9 17 22 14 37 -3 17 -1 22 9 19 7 -3 17 3 22 13 8 16 8 26 4 58 -1 6 -11 -1 -22 -15 l-20 -25 12 25 c13 28 55 70 69 70 14 0 51 58 41 64 -10 7 -5 35 13 79 16 40 24 33 21 -20 -2 -27 -4 -60 -4 -74 -1 -18 -8 -28 -22 -32 -15 -4 -20 -12 -17 -29 4 -29 27 -30 66 -1 25 19 32 32 37 78 l7 55 69 0 c53 0 71 4 75 15 4 8 19 15 35 15 27 0 28 -2 31 -52 l3 -53 85 0 85 0 3 38 c3 34 6 37 33 37 25 0 29 -4 29 -29 0 -16 -6 -31 -15 -35 -23 -8 -20 -83 4 -95 25 -14 31 -5 31 41 l0 38 69 0 70 0 3 -37 c3 -35 5 -38 38 -41 19 -2 41 -8 48 -14 9 -8 16 -8 24 0 7 7 18 12 26 12 12 0 12 -3 2 -15 -11 -13 -9 -20 11 -41 19 -20 31 -24 64 -22 38 3 40 4 43 41 l3 37 70 0 69 0 0 -30 c0 -23 -5 -30 -19 -30 -32 0 -35 -20 -8 -47 27 -27 47 -24 47 8 0 14 7 19 29 19 16 0 31 -6 35 -15 3 -9 18 -15 39 -15 30 0 35 -4 40 -28 3 -16 15 -39 25 -52 18 -22 22 -23 37 -10 18 15 83 15 100 -1 5 -5 61 -10 125 -10 69 -1 99 -4 75 -8 -40 -6 -40 -6 -40 -51 l0 -45 118 -3 117 -3 0 -28 c0 -17 -6 -31 -16 -35 -11 -4 -14 -17 -12 -48 3 -42 4 -43 41 -46 35 -3 37 -5 37 -38 0 -39 25 -57 44 -31 7 8 28 17 47 19 49 4 46 32 -3 36 -38 3 -38 4 -38 48 l0 44 69 0 70 0 3 -37 c3 -37 4 -38 46 -40 l42 -1 -2 411 -3 412 -65 0 -65 0 -3 67 -3 67 33 3 c25 2 33 8 33 23 0 16 -8 21 -38 23 -23 2 -46 -2 -55 -10 -11 -9 -38 -14 -72 -13 -83 2 -89 -3 -92 -87 l-3 -73 -67 0 c-37 -1 -72 -5 -77 -10 -6 -6 -11 -41 -13 -80 l-3 -70 -60 0 -60 0 3 72 c3 51 0 73 -10 79 -7 5 -80 9 -163 9 l-150 0 -3 65 c-2 37 -9 71 -17 80 -12 13 -66 15 -405 15 l-390 0 6 70 c5 60 4 73 -13 94 -16 20 -23 22 -40 12 -27 -14 -55 -69 -47 -93 7 -22 -20 -35 -40 -19 -7 6 -16 8 -20 4 -4 -4 2 13 13 37 11 25 27 45 35 45 8 0 24 10 36 23 11 12 29 22 38 22 10 0 22 4 27 9 6 5 21 12 35 16 25 8 25 7 7 -13 -10 -11 -17 -31 -15 -44 2 -18 9 -23 33 -23 24 0 31 5 33 23 2 13 -4 32 -14 43 -14 16 -15 19 -2 19 8 0 23 -9 33 -20 10 -11 27 -20 38 -20 16 0 17 -3 7 -15 -7 -8 -10 -21 -7 -29 5 -13 56 -14 352 -11 190 3 351 7 356 11 7 4 6 10 0 18 -8 10 1 12 43 12 30 -1 52 -5 49 -9 -3 -4 1 -14 7 -22 17 -20 153 -21 169 -1 9 10 8 16 -4 26 -28 23 -15 29 65 27 76 -2 79 -3 75 -24 -6 -34 17 -45 77 -38 70 9 74 13 46 42 l-23 26 27 -7 c15 -3 30 -2 33 4 4 6 14 5 28 -3 12 -7 41 -12 64 -12 32 0 39 -3 31 -12 -20 -25 8 -39 81 -41 57 -1 72 3 87 19 14 15 15 24 6 43 -10 21 -8 25 14 30 34 9 35 56 1 56 -13 0 -28 5 -35 12 -9 9 -20 4 -47 -22 -33 -32 -36 -33 -53 -17 -23 21 -36 21 -52 2 -16 -19 -74 -19 -103 -1 -20 13 -63 18 -134 17 -16 -1 -61 -1 -102 -1 -41 0 -79 -4 -85 -9 -17 -12 -241 -35 -262 -26 -11 4 -152 9 -314 11 -361 5 -395 7 -443 30 -36 17 -40 17 -86 1 -27 -9 -61 -17 -75 -17 -15 0 -29 -7 -32 -15 -7 -18 -38 -19 -67 -3 -34 19 -205 19 -242 0 -16 -8 -43 -18 -60 -22 -23 -4 -31 -12 -36 -37 -8 -41 3 -51 54 -46 45 5 97 -10 97 -27 0 -16 -167 -11 -181 6 -6 7 -8 18 -4 24 11 18 -27 25 -40 7 -7 -10 -23 -17 -36 -17 -20 0 -24 6 -26 31 -4 50 -18 59 -92 59 -69 0 -91 -10 -91 -42 0 -16 -7 -18 -40 -16 -24 1 -47 9 -57 20 -12 13 -19 15 -29 7 -7 -6 -18 -8 -24 -4 -6 4 -23 -5 -37 -19 -17 -18 -30 -23 -37 -17 -6 6 -35 11 -65 12 -50 3 -53 4 -72 41 -11 21 -26 38 -33 38 -8 0 -13 8 -12 18 2 26 -48 28 -83 3 -37 -26 -39 -26 -51 4 -8 21 -14 24 -42 18 -18 -3 -38 -10 -44 -14 -16 -13 -243 -14 -256 -1 -6 6 -16 8 -22 6 -6 -2 -16 6 -21 18 -9 21 -16 23 -95 23 -57 0 -88 4 -93 13 -4 6 -21 12 -37 12 -16 0 -32 5 -36 11 -6 11 -20 10 -142 -10 -60 -10 -65 -10 -83 12 l-19 22 -6 -22 c-10 -36 -64 -32 -92 7 -24 32 -59 40 -68 15 -7 -18 -66 -20 -94 -3 -16 10 -24 10 -40 1 -10 -7 -26 -10 -35 -7 -9 4 -26 2 -38 -4 -35 -16 -96 -25 -171 -24 -71 1 -106 -9 -106 -32 0 -12 -40 -36 -60 -36 -6 0 -10 9 -10 20 0 26 -43 54 -75 48 -14 -3 -28 -1 -31 3 -9 15 -45 10 -71 -11 -34 -26 -51 -25 -62 3 -5 13 -23 35 -40 50 -26 22 -41 26 -89 25 -32 0 -68 4 -79 11 -30 15 -30 15 -63 -21 l-30 -32 -6 32 c-8 41 -14 44 -77 44 -28 -1 -57 4 -63 9 -8 7 -14 6 -19 -1 -10 -17 -47 -11 -71 11 -18 17 -30 20 -63 14 -23 -4 -44 -11 -47 -17 -4 -5 -12 -4 -22 5 -10 7 -35 19 -56 25 -34 10 -43 9 -67 -9 -18 -13 -30 -16 -34 -8 -4 5 -13 8 -21 5 -10 -4 -14 4 -14 29 0 27 -7 38 -32 57 -27 19 -45 23 -110 23 -67 0 -80 -3 -102 -24 -14 -14 -26 -33 -26 -43 0 -10 -4 -18 -10 -18 -5 0 -10 7 -10 15 0 14 -29 35 -49 35 -6 0 -20 -9 -32 -21 -30 -30 -76 -36 -84 -10 -3 10 -30 37 -59 59 l-53 41 -45 -50z m108 -50 c4 -8 1 -8 -14 0 -12 6 -24 16 -28 22 -4 8 -1 8 14 0 12 -6 24 -16 28 -22z m407 9 c12 -6 28 -14 36 -18 8 -3 17 -13 19 -21 4 -10 0 -9 -15 4 -37 32 -68 11 -55 -38 11 -38 29 -43 42 -11 12 33 21 33 48 -3 l22 -30 -23 -6 c-64 -19 -87 -36 -87 -65 0 -16 5 -32 12 -36 16 -10 69 -6 84 7 23 19 54 19 64 -2 20 -37 70 -17 70 28 0 31 21 29 55 -7 37 -39 58 -25 53 36 -1 23 0 40 3 38 4 -2 18 5 32 16 l26 21 12 -22 c10 -19 9 -21 -4 -16 -9 3 -26 -2 -38 -12 -17 -14 -20 -23 -14 -49 10 -50 68 -69 111 -37 18 13 18 15 2 44 -16 29 -16 30 12 40 33 11 47 3 23 -14 -31 -23 -4 -36 70 -35 40 1 79 -1 88 -4 9 -4 32 3 54 15 31 18 41 20 57 10 10 -6 23 -9 28 -6 16 10 20 -12 5 -25 -13 -10 -19 -10 -33 4 -23 20 -36 20 -52 1 -7 -8 -23 -15 -35 -15 -34 0 -44 -19 -47 -90 l-3 -65 -460 0 -460 0 -3 65 c-4 87 -14 96 -102 95 -38 -1 -74 -5 -80 -11 -5 -5 -10 -40 -12 -79 l-3 -70 -67 0 c-37 -1 -72 -5 -77 -10 -6 -6 -11 -41 -13 -80 l-3 -70 -220 0 -220 0 -3 65 c-4 87 -14 96 -102 95 -38 -1 -74 -5 -80 -11 -5 -5 -10 -40 -12 -79 l-3 -70 -67 0 c-37 -1 -72 -5 -77 -10 -6 -6 -11 -41 -13 -80 l-3 -70 -60 0 -60 0 -3 65 c-4 85 -15 97 -92 95 -39 -1 -61 3 -64 11 -3 7 4 14 17 16 20 3 22 9 22 63 0 57 -1 60 -26 63 -26 3 -27 4 -31 100 -6 145 -8 142 68 142 62 0 64 1 86 35 20 31 28 35 63 34 22 -1 50 2 63 6 13 4 22 4 20 -1 -2 -5 2 -9 7 -9 6 0 9 2 8 5 -1 3 16 4 37 2 27 -3 37 -8 36 -20 -2 -25 74 -30 91 -6 9 12 30 18 79 20 36 2 72 8 79 14 8 6 29 10 47 7 l33 -4 -36 -1 c-36 -2 -66 -22 -52 -35 13 -14 120 -7 133 8 9 11 16 12 26 5 13 -12 102 19 135 47 9 7 19 10 23 6 3 -4 19 -7 34 -8 15 -1 43 -2 62 -4 30 -3 32 -4 12 -9 -13 -4 -24 -11 -25 -17 -3 -13 60 -22 98 -15 17 3 38 1 48 -4 12 -8 22 -8 34 0 11 7 35 7 71 2 45 -7 58 -6 72 7 12 11 20 13 25 6 9 -16 92 -13 119 4 21 14 24 14 36 0 19 -23 56 -18 78 12 30 42 103 63 145 41z m-972 -41 c-6 -8 -21 -13 -33 -11 -31 3 -30 3 -23 14 3 6 20 10 37 10 24 0 28 -3 19 -13z m1234 -58 l20 -20 -25 6 c-14 3 -38 1 -54 -5 -37 -14 -48 -5 -34 26 10 22 17 25 42 20 17 -4 40 -16 51 -27z m-2191 -13 c-2 -6 -16 -16 -30 -23 -22 -10 -24 -10 -14 3 12 13 7 18 -13 15 -5 -1 -6 2 -4 6 8 13 66 12 61 -1z m2546 -26 c0 -5 -21 -10 -46 -10 -25 0 -43 4 -40 8 7 12 86 14 86 2z m316 -88 c6 -4 16 -17 22 -28 9 -17 8 -24 -3 -34 -21 -17 -19 -46 5 -63 18 -13 12 -14 -57 -13 l-78 2 -3 62 -3 62 40 0 c22 0 43 5 46 10 7 12 16 12 31 2z m159 -36 c8 -19 19 -38 25 -41 13 -8 42 14 34 26 -10 17 8 9 38 -16 l29 -25 -23 -10 c-13 -5 -33 -17 -45 -26 -22 -16 -23 -16 -23 10 0 21 -8 29 -44 46 -25 11 -58 21 -73 21 -21 1 -23 3 -8 6 11 3 28 14 38 24 25 27 36 24 52 -15z m310 22 c19 -9 28 -9 37 0 13 13 119 17 117 5 -3 -19 3 -22 29 -12 29 12 191 20 206 11 5 -3 77 -7 159 -9 91 -2 155 -7 163 -14 8 -6 29 -13 46 -14 18 -2 40 -3 48 -4 12 -1 13 -3 1 -10 -7 -5 -26 -7 -41 -4 -38 5 -47 -13 -21 -41 12 -12 21 -25 21 -29 0 -4 -60 -7 -132 -7 -88 0 -128 4 -118 10 8 5 43 9 78 9 63 -1 92 11 92 37 0 18 -72 47 -107 45 -44 -4 -179 5 -190 12 -6 4 -19 -3 -29 -14 -15 -17 -29 -20 -86 -18 -38 1 -73 -2 -78 -7 -5 -5 -10 -22 -12 -39 l-3 -29 -81 -1 c-77 -1 -80 -1 -62 17 10 10 18 26 18 36 0 35 -30 49 -102 47 -61 -1 -66 1 -57 17 11 21 64 24 104 6z m869 -34 c9 -3 16 -12 16 -20 0 -7 16 -25 36 -40 32 -25 34 -29 18 -35 -24 -8 -34 -2 -34 20 0 22 -45 65 -59 56 -12 -7 -15 7 -4 18 8 8 8 8 27 1z m2164 -61 c-15 -2 -42 -2 -60 0 -18 2 -6 4 27 4 33 0 48 -2 33 -4z m171 -2 c19 -1 31 -4 27 -8 -9 -9 -126 -11 -126 -2 0 11 22 17 45 14 11 -2 35 -4 54 -4z m384 -1 c4 0 7 -3 7 -7 0 -10 -179 -9 -200 0 -8 4 -42 8 -75 10 -43 2 157 0 268 -3z m-3713 -20 c22 -7 21 -8 -12 -9 -21 -1 -38 4 -38 9 0 11 14 11 50 0z m1199 -94 c27 -38 28 -43 11 -39 -18 5 -25 16 -17 26 6 9 -27 37 -44 37 -11 0 -19 5 -19 10 0 6 9 10 20 10 11 0 31 -17 49 -44z m-23 -86 c5 -5 27 -14 49 -19 39 -9 39 -9 -22 -10 -35 -1 -63 1 -63 3 0 2 -3 11 -6 20 -7 18 25 23 42 6z m-2636 -22 c0 -5 -27 -8 -61 -8 -33 0 -58 3 -55 8 2 4 29 7 60 7 31 0 56 -3 56 -7z m2809 -43 l22 -40 -26 30 c-14 17 -25 36 -25 44 0 18 3 14 29 -34z m1324 -5 c-18 -36 -78 -68 -101 -53 -28 17 -25 33 7 33 22 0 37 9 58 34 19 25 31 32 39 25 9 -8 9 -17 -3 -39z m-2375 3 c-10 -2 -26 -2 -35 0 -10 3 -2 5 17 5 19 0 27 -2 18 -5z m240 0 c-10 -2 -26 -2 -35 0 -10 3 -2 5 17 5 19 0 27 -2 18 -5z m801 -77 c7 -8 14 -30 18 -49 4 -26 1 -36 -11 -40 -13 -5 -16 0 -16 26 0 18 -7 43 -16 55 -13 19 -13 22 -1 22 8 0 20 -6 26 -14z m-2801 -83 c-10 -2 -26 -2 -35 0 -10 3 -2 5 17 5 19 0 27 -2 18 -5z m3924 -63 c-2 -17 -8 -32 -12 -35 -7 -5 -5 18 6 53 7 23 11 12 6 -18z m-27 -99 c-3 -12 -10 -21 -15 -21 -5 0 -4 11 2 25 13 29 23 26 13 -4z m823 2 c-10 -2 -26 -2 -35 0 -10 3 -2 5 17 5 19 0 27 -2 18 -5z m720 -160 c-10 -2 -26 -2 -35 0 -10 3 -2 5 17 5 19 0 27 -2 18 -5z"/>
 <path d="M797 3924 c-12 -12 -8 -82 5 -90 7 -5 43 -8 80 -9 83 -1 100 12 89 65 l-7 35 -80 3 c-44 1 -83 0 -87 -4z"/>
 <path d="M1125 3847 c-11 -6 -15 -27 -15 -87 0 -93 3 -97 96 -96 83 1 94 12 94 96 0 50 -4 71 -16 81 -19 15 -135 20 -159 6z"/>
 <path d="M4614 3839 c-10 -17 13 -36 27 -22 12 12 4 33 -11 33 -5 0 -12 -5 -16 -11z"/>
 <path d="M7675 3700 c-10 -17 12 -37 25 -24 8 8 6 15 -4 23 -10 9 -16 9 -21 1z"/>
 <path d="M6314 3627 c-7 -20 3 -37 21 -37 23 0 26 16 5 35 -18 16 -20 16 -26 2z"/>
 <path d="M2205 3200 c-9 -15 13 -40 35 -40 22 0 44 25 35 40 -3 5 -19 10 -35 10 -16 0 -32 -5 -35 -10z"/>
 <path d="M2154 3145 c-7 -18 3 -35 21 -35 21 0 28 19 15 35 -16 19 -29 19 -36 0z"/>
 <path d="M2290 3145 c-10 -11 -10 -19 -2 -27 15 -15 44 -2 40 19 -4 23 -22 27 -38 8z"/>
 <path d="M1564 3117 c-3 -8 -4 -30 -2 -49 2 -25 8 -33 23 -33 17 0 20 7 20 45 0 35 -4 45 -18 48 -9 2 -20 -3 -23 -11z"/>
 <path d="M1835 3120 c-11 -17 5 -32 21 -19 7 6 11 15 8 20 -7 12 -21 11 -29 -1z"/>
 <path d="M6216 3061 c-12 -13 -14 -21 -6 -26 16 -10 40 2 40 19 0 24 -16 27 -34 7z"/>
 <path d="M1835 3060 c-8 -13 3 -30 20 -30 23 0 27 18 6 30 -13 7 -22 7 -26 0z"/>
 <path d="M6315 3010 c-4 -6 -3 -16 3 -22 6 -6 12 -6 17 2 4 6 3 16 -3 22 -6 6 -12 6 -17 -2z"/>
 <path d="M6634 2979 c-9 -16 12 -33 31 -25 14 5 15 9 5 21 -15 18 -26 19 -36 4z"/>
 <path d="M1274 2955 c-11 -28 11 -36 92 -33 71 3 79 5 79 23 0 18 -8 20 -83 23 -68 2 -83 0 -88 -13z"/>
 <path d="M6846 2961 c-3 -4 3 -16 13 -25 21 -19 37 -7 27 19 -6 16 -32 20 -40 6z"/>
 <path d="M6634 2875 c-4 -8 -3 -23 0 -32 6 -15 9 -15 28 4 21 22 18 43 -8 43 -8 0 -17 -7 -20 -15z"/>
 <path d="M5691 2842 c-13 -25 2 -38 19 -16 9 10 10 18 3 25 -8 8 -14 5 -22 -9z"/>
 <path d="M6933 2794 c-8 -21 13 -42 28 -27 13 13 5 43 -11 43 -6 0 -13 -7 -17 -16z"/>
 <path d="M7275 2718 c-9 -23 -2 -83 10 -83 14 0 19 75 6 88 -7 7 -12 5 -16 -5z"/>
 <path d="M7345 2718 c-9 -23 -2 -83 10 -83 14 0 19 75 6 88 -7 7 -12 5 -16 -5z"/>
 <path d="M7115 2640 c-4 -7 -3 -16 3 -22 14 -14 45 -2 40 15 -6 16 -34 21 -43 7z"/>
 <path d="M7225 2641 c-7 -12 12 -24 25 -16 11 7 4 25 -10 25 -5 0 -11 -4 -15 -9z"/>
 <path d="M7264 2566 c-4 -10 -2 -22 4 -28 8 -8 13 -7 18 6 4 10 2 22 -4 28 -8 8 -13 7 -18 -6z"/>
 <path d="M7614 2546 c-4 -10 -2 -22 4 -28 8 -8 13 -7 18 6 4 10 2 22 -4 28 -8 8 -13 7 -18 -6z"/>
 <path d="M314 2505 c-10 -25 9 -37 52 -33 31 2 39 7 39 23 0 16 -8 21 -43 23 -32 2 -44 -1 -48 -13z"/>
 <path d="M7914 2475 c-10 -24 5 -35 47 -35 35 0 39 3 39 25 0 23 -4 25 -40 25 -26 0 -43 -5 -46 -15z"/>
 <path d="M7864 2399 c-10 -17 13 -36 27 -22 12 12 4 33 -11 33 -5 0 -12 -5 -16 -11z"/>
 <path d="M7966 2401 c-3 -4 3 -16 14 -26 19 -18 20 -17 20 8 0 26 -22 38 -34 18z"/>
 </g>
<g id="layer13" fill="#101015" stroke="none">
 <path d="M0 4666 c0 -523 3 -665 13 -669 24 -8 142 5 152 18 23 28 147 46 161 24 5 -9 37 -9 113 -4 58 5 160 10 226 11 66 1 165 5 220 9 130 10 247 7 259 -5 18 -18 46 -11 85 20 31 26 43 29 72 23 19 -3 39 -12 44 -20 6 -7 24 -16 41 -19 25 -5 37 -1 53 15 24 24 31 26 31 8 0 -8 9 -22 19 -31 24 -22 46 -12 93 44 l34 41 29 -30 c17 -17 35 -31 40 -31 6 0 18 -14 27 -31 15 -26 22 -30 49 -25 17 2 41 14 53 25 29 28 35 27 67 -11 l27 -33 12 30 c22 55 27 59 66 68 45 10 127 1 155 -16 12 -8 19 -23 19 -43 0 -17 7 -37 15 -44 8 -7 15 -9 15 -5 0 4 7 2 15 -5 11 -9 20 -8 43 9 25 18 34 19 68 9 21 -6 46 -18 55 -25 13 -11 21 -11 45 2 39 20 67 19 89 -5 19 -21 60 -27 70 -10 5 8 11 7 20 0 8 -7 27 -11 42 -10 61 4 70 1 79 -32 13 -43 26 -44 63 -8 27 27 33 30 53 19 12 -6 48 -11 79 -11 60 1 109 -23 109 -53 0 -7 12 -23 27 -35 l26 -21 27 26 c27 26 54 32 65 15 3 -6 17 -7 30 -4 33 8 65 -4 65 -25 0 -10 7 -24 15 -31 20 -16 70 4 92 36 14 21 22 24 87 23 81 -1 174 10 181 21 5 8 161 4 201 -5 27 -6 37 4 23 22 -9 10 -8 13 3 13 22 0 29 -12 16 -27 -6 -7 -8 -16 -4 -20 12 -12 124 -15 131 -3 5 8 11 8 19 0 13 -10 35 -7 172 16 18 4 35 1 38 -5 4 -6 20 -11 36 -11 15 0 30 -6 33 -14 4 -9 18 -13 39 -11 21 1 37 -3 45 -14 11 -15 12 -15 18 1 5 13 18 18 46 18 37 0 45 -7 41 -41 -1 -3 13 -19 29 -35 l31 -29 15 23 c12 17 25 22 57 22 23 0 47 -5 53 -11 8 -8 13 -8 17 0 4 6 29 11 55 11 26 0 52 5 58 11 13 13 47 4 38 -10 -14 -23 64 -32 91 -10 8 7 13 3 18 -13 6 -22 7 -22 20 -5 8 11 12 25 9 33 -3 8 1 14 11 14 9 0 15 -4 13 -9 -1 -5 9 -20 23 -34 14 -13 32 -36 42 -49 13 -19 26 -25 64 -27 27 -1 54 -7 62 -13 10 -9 21 -7 43 6 16 9 33 14 39 11 5 -3 15 3 21 13 11 18 13 18 29 2 12 -12 32 -17 66 -16 46 1 49 3 52 29 3 27 4 27 73 27 75 0 69 5 73 -65 1 -17 8 -20 48 -21 30 0 55 -7 67 -18 10 -10 25 -16 33 -15 44 6 76 -2 74 -18 0 -10 6 -18 14 -18 8 0 14 8 14 18 -2 15 5 18 47 16 61 -3 80 12 54 41 -10 11 -21 17 -25 15 -4 -3 -22 2 -39 11 -17 9 -48 14 -69 12 -32 -3 -37 0 -40 20 -2 15 2 22 13 22 9 0 32 9 53 19 29 15 56 19 132 17 54 -1 105 -7 117 -14 29 -16 58 -15 73 3 7 8 21 15 32 15 11 0 42 8 70 18 l49 17 49 -26 c31 -17 53 -23 62 -18 7 5 25 6 41 3 15 -3 160 -7 322 -8 162 -1 298 -5 302 -9 14 -14 262 8 279 26 11 11 62 9 69 -3 5 -8 11 -8 19 -1 7 6 26 11 42 11 16 0 41 0 57 1 71 1 114 -4 134 -17 29 -18 87 -18 103 1 16 19 29 19 51 -1 17 -15 21 -14 56 15 24 20 41 27 47 21 6 -6 20 -10 33 -10 l23 0 0 770 0 770 -4000 0 -4000 0 0 -664z m4232 -343 c13 -12 58 -14 235 -14 186 0 220 -2 220 -14 0 -8 -8 -17 -17 -20 -31 -10 -250 2 -265 15 -8 7 -35 11 -62 9 -26 -2 -76 1 -110 5 -53 7 -63 12 -63 28 0 15 5 18 23 12 12 -3 29 -13 39 -21z m518 -28 c0 -8 -6 -15 -13 -15 -8 0 -14 7 -14 15 0 8 6 15 14 15 7 0 13 -7 13 -15z m200 0 c0 -16 -43 -21 -75 -9 -24 10 1 24 43 24 22 0 32 -5 32 -15z"/>
 <path d="M4446 3792 c-2 -4 4 -19 14 -32 17 -22 19 -23 25 -7 11 26 -25 62 -39 39z"/>
 <path d="M6035 3680 c-4 -7 -3 -16 3 -22 14 -14 45 -2 40 15 -6 16 -34 21 -43 7z"/>
 <path d="M4615 3640 c-11 -17 5 -32 21 -19 7 6 11 15 8 20 -7 12 -21 11 -29 -1z"/>
 <path d="M5674 3579 c-8 -13 24 -41 37 -33 15 9 10 23 -10 34 -14 7 -22 7 -27 -1z"/>
 </g>
<g id="layer14" fill="#012f58" stroke="none">
 <path d="M1580 4079 c-24 -32 -61 -52 -84 -43 -7 3 -18 16 -25 30 -11 24 -37 24 -28 0 6 -16 -61 -20 -128 -7 -37 7 -54 6 -65 -3 -14 -11 -86 -46 -95 -46 -3 0 -4 5 -3 12 4 16 -64 33 -88 23 -11 -4 -34 -7 -52 -6 -18 2 -40 -3 -49 -11 -12 -10 -51 -12 -162 -9 -156 3 -190 3 -262 0 -25 -1 -50 0 -55 4 -16 10 -199 12 -214 2 -8 -5 -35 -11 -60 -12 -29 -2 -50 -10 -60 -22 -12 -14 -28 -18 -73 -17 -31 0 -57 -3 -57 -7 0 -5 -5 -5 -10 -2 -7 5 -10 -17 -8 -67 l3 -73 65 -1 c78 0 102 9 98 39 -2 15 -12 24 -33 28 -29 6 -27 8 17 22 9 3 19 19 23 36 6 27 11 31 39 31 17 0 41 7 54 15 26 19 122 11 122 -11 0 -25 23 -27 42 -5 23 30 55 22 36 -9 -11 -17 -23 -20 -80 -20 -42 0 -70 -5 -74 -12 -12 -19 -5 -240 8 -255 6 -7 19 -13 29 -13 16 0 19 -8 19 -45 0 -38 -3 -45 -20 -45 -17 0 -20 7 -20 43 0 24 -5 48 -12 55 -8 8 -59 12 -165 12 l-154 0 3 -87 3 -88 75 0 75 0 5 -80 5 -80 65 -1 c94 -1 99 3 102 89 l3 72 70 0 70 0 5 -80 5 -80 65 -1 c94 -1 99 3 102 88 l3 73 67 0 c37 1 72 5 77 10 6 6 11 42 13 80 l3 70 70 0 70 0 5 -80 5 -80 225 -1 c124 0 233 3 242 8 13 6 18 24 20 80 l3 73 67 0 c37 1 72 5 77 10 6 6 11 42 13 80 l3 70 70 0 70 0 5 -80 5 -80 465 -1 c256 0 473 4 483 8 14 7 17 22 17 78 l0 70 30 0 c17 0 33 7 39 18 8 14 13 15 28 4 35 -24 44 -24 64 -3 22 23 50 28 46 9 -1 -7 -13 -15 -27 -18 -24 -5 -25 -8 -25 -84 l0 -80 112 -2 c87 -3 114 0 123 11 10 12 9 16 -1 20 -13 4 -52 12 -71 14 -5 1 -8 10 -8 21 0 17 7 20 40 20 47 0 109 -29 110 -51 0 -32 24 -40 59 -18 32 20 32 20 49 -1 19 -22 13 -21 229 -17 78 1 147 7 152 12 5 6 11 23 13 39 l3 30 63 -3 c40 -2 69 2 79 10 23 20 144 21 165 2 14 -13 23 -13 45 -5 16 7 35 10 43 9 60 -12 81 -37 33 -38 -16 0 -48 -2 -73 -4 -191 -18 -205 -20 -205 -35 0 -12 31 -15 204 -15 181 0 205 2 214 17 9 13 7 21 -7 37 -19 20 -12 22 32 7 14 -5 29 -3 37 4 21 18 47 -6 43 -39 -2 -15 2 -26 10 -27 6 -1 15 -3 20 -4 4 -1 19 -1 34 0 20 1 30 -5 40 -26 7 -16 23 -31 36 -34 13 -3 23 -8 23 -12 -3 -30 2 -40 21 -47 13 -5 17 -10 10 -15 -6 -3 -13 -2 -17 4 -9 15 -65 12 -71 -3 -3 -8 0 -26 5 -40 10 -26 14 -27 82 -27 62 0 71 2 76 20 6 23 23 27 23 6 0 -19 26 -67 42 -77 7 -4 10 -11 7 -14 -11 -10 -37 6 -42 27 -3 11 -10 17 -16 13 -16 -9 -13 -71 4 -85 9 -8 15 -30 15 -56 l0 -44 -132 2 -133 2 120 6 120 5 0 45 -1 45 -42 3 c-31 2 -44 -1 -48 -12 -8 -21 -60 -21 -68 -1 -4 13 -36 15 -200 15 -194 0 -195 0 -198 23 -3 19 -9 22 -48 22 -39 0 -45 -3 -48 -22 -3 -21 -8 -23 -73 -23 l-69 0 0 29 c0 27 3 30 38 33 29 2 37 7 37 23 0 16 -8 21 -43 23 -31 2 -44 -1 -48 -12 -9 -23 -139 -23 -148 0 -4 11 -17 14 -48 12 -35 -2 -43 -7 -43 -23 0 -16 8 -21 38 -23 34 -3 37 -6 37 -33 l0 -29 -277 -2 c-153 -1 -343 -2 -423 -2 l-145 -1 0 -45 c0 -39 3 -45 25 -51 25 -7 25 -7 -4 -8 -17 -1 -34 6 -42 16 -11 16 -13 16 -25 -10 -15 -34 -23 -34 -37 -1 -11 22 -17 25 -60 22 l-47 -3 -3 -52 c-3 -52 -3 -53 -35 -52 -30 1 -30 1 -7 8 22 6 25 12 25 51 l0 45 -55 0 -55 0 -3 -38 c-2 -21 2 -44 7 -51 8 -10 7 -17 -3 -25 -13 -11 -15 -4 -18 51 l-3 63 -180 0 -180 0 -3 -42 c-4 -49 -29 -60 -34 -15 -3 25 -6 27 -48 27 -39 0 -45 -3 -50 -25 -5 -23 -10 -25 -62 -25 -31 0 -60 -4 -64 -8 -4 -4 -13 -2 -21 4 -10 9 -18 8 -31 -4 -9 -8 -26 -17 -37 -19 -15 -2 -21 -12 -23 -41 -3 -33 -6 -37 -32 -37 -24 0 -29 5 -32 28 l-3 27 -123 3 c-107 2 -123 0 -129 -14 -4 -10 0 -22 10 -29 10 -7 17 -24 17 -39 l0 -26 -84 0 c-67 0 -85 3 -90 16 -4 11 -17 14 -48 12 -38 -3 -43 -6 -46 -30 -3 -23 -8 -27 -40 -30 -30 -2 -38 -8 -40 -25 -3 -20 -9 -23 -55 -24 -29 -1 -81 -2 -117 -2 l-65 -2 -3 -52 -3 -52 -37 -3 -37 -3 -3 -62 -3 -61 -42 -4 c-82 -6 -96 -1 -99 40 -3 37 -3 37 -48 37 -45 0 -45 0 -48 -37 l-3 -37 -82 -3 -82 -3 0 -52 1 -52 -76 -3 c-69 -3 -75 -5 -78 -25 -3 -19 -10 -23 -40 -24 -112 -2 -107 -1 -110 -41 -3 -37 -4 -38 -43 -38 l-39 0 0 -1245 0 -1245 4000 0 4000 0 0 1229 0 1230 -38 4 -37 4 38 1 37 2 0 50 c0 28 -4 50 -9 50 -6 0 -11 17 -13 38 -4 52 -31 50 -39 -3 l-5 -40 -5 40 -4 40 -85 0 -85 0 -2 -65 c-2 -88 -5 -102 -12 -55 -6 38 -8 40 -43 43 -34 3 -38 6 -38 32 0 16 7 30 16 34 11 4 14 17 12 48 l-3 43 -117 3 -118 3 0 29 c0 26 3 29 38 32 29 2 37 7 37 23 0 19 -8 20 -115 23 -63 1 -119 7 -124 12 -6 6 -23 10 -39 10 -17 0 -35 8 -43 17 -11 16 -13 16 -25 -10 -7 -15 -15 -27 -19 -27 -8 0 -27 45 -32 75 -2 15 -12 21 -38 23 -19 2 -39 10 -43 18 -4 8 -23 14 -42 14 -32 0 -34 2 -37 38 l-3 37 -85 0 -85 0 -3 -37 c-3 -34 -6 -38 -30 -38 -15 0 -36 7 -46 15 -19 15 -19 15 -1 28 10 8 15 19 11 25 -9 15 -49 15 -63 1 -8 -8 -13 -8 -17 0 -4 6 -23 11 -42 11 -31 0 -34 3 -34 29 0 27 3 30 38 33 29 2 37 7 37 23 0 16 -8 21 -43 23 -31 2 -44 -1 -48 -12 -5 -12 -22 -16 -74 -16 l-69 0 -3 38 c-3 37 -3 37 -48 37 -45 0 -45 0 -48 -37 l-3 -38 -69 0 -69 0 -3 53 -3 52 -43 3 c-31 2 -44 -1 -48 -12 -5 -12 -22 -16 -73 -16 -37 0 -71 -3 -75 -7 -3 -4 -13 -8 -22 -9 -11 -2 -13 3 -9 18 8 24 -21 59 -42 51 -13 -5 -13 -2 -1 23 8 16 13 36 11 44 -4 20 48 49 79 43 50 -10 135 69 126 116 -2 9 2 21 9 26 7 6 14 21 16 35 3 21 9 25 33 22 38 -4 73 30 55 52 -8 10 -9 16 -1 21 5 3 10 14 10 25 0 22 30 35 42 18 5 -7 6 -45 3 -85 -4 -52 -2 -74 7 -80 7 -4 189 -8 403 -8 l390 0 5 -80 5 -80 153 -1 c83 -1 157 -2 162 -3 7 -1 10 -31 8 -78 l-3 -78 65 0 c94 -2 99 2 102 87 l3 73 67 0 c37 1 72 5 77 10 6 6 11 42 13 80 l3 70 70 0 70 0 5 -80 5 -80 78 0 77 -1 0 211 0 211 -47 -1 c-28 0 -47 -4 -45 -10 6 -17 -49 -34 -75 -22 -15 7 -26 7 -35 0 -16 -13 -95 -8 -113 7 -8 7 -16 7 -19 1 -8 -12 -96 -4 -113 11 -9 7 -17 7 -29 -2 -10 -9 -58 -14 -153 -16 -83 -1 -153 -7 -174 -15 -29 -10 -45 -10 -84 0 -31 8 -128 12 -278 12 -126 0 -241 0 -255 0 -14 0 -65 1 -114 2 -75 0 -92 3 -109 20 -15 15 -28 18 -61 14 -45 -7 -121 -40 -133 -59 -4 -7 -17 -13 -27 -13 -14 0 -26 -17 -45 -60 -14 -33 -48 -91 -74 -128 -43 -58 -53 -67 -80 -67 -27 0 -38 -8 -69 -50 -21 -28 -47 -79 -58 -113 -40 -127 -51 -163 -60 -196 -5 -18 -17 -52 -28 -75 -17 -35 -32 -81 -82 -247 -28 -91 -184 -140 -445 -140 -55 0 -102 0 -105 1 -3 1 -27 4 -53 6 -26 3 -58 9 -71 14 -49 18 -84 137 -101 343 -7 81 -36 199 -54 221 -6 7 -8 15 -5 18 3 3 -2 23 -10 43 -9 21 -16 47 -16 59 0 32 -77 177 -113 213 -18 18 -41 33 -52 33 -11 1 -33 19 -50 43 -17 23 -40 43 -52 45 -12 2 -36 18 -55 36 -18 17 -41 35 -50 39 -10 3 -18 13 -18 21 0 27 -41 43 -100 41 -32 -2 -68 3 -85 11 -21 10 -80 16 -180 18 -83 3 -150 5 -150 6 0 1 -78 4 -174 6 -114 2 -179 0 -187 -7 -9 -7 -19 -7 -33 0 -35 19 -88 13 -108 -12 -10 -13 -32 -31 -50 -42 -26 -15 -34 -16 -47 -6 -9 8 -16 21 -16 31 0 10 -6 22 -12 27 -20 15 -115 9 -135 -9 -30 -25 -53 -29 -60 -10 -4 9 -23 34 -42 55 -35 38 -37 38 -96 34 -32 -3 -67 0 -76 6 -13 8 -26 5 -53 -11 -49 -29 -54 -28 -64 11 -8 30 -11 32 -55 33 -26 1 -50 -3 -53 -8 -3 -5 -11 -5 -18 2 -9 7 -23 7 -46 -1 -30 -11 -34 -10 -57 20 -24 31 -26 31 -45 14 -25 -22 -76 -19 -103 7 -12 11 -35 22 -52 26 -26 5 -34 2 -48 -19 -11 -18 -24 -25 -41 -23 -25 3 -59 38 -47 50 9 8 -37 56 -54 56 -7 0 -22 5 -32 12 -32 20 -151 -26 -151 -58 0 -19 -44 -18 -60 1 -12 14 -15 14 -36 0 -13 -8 -41 -15 -62 -15 -33 0 -44 6 -66 35 -23 29 -72 65 -90 65 -2 0 -14 -14 -26 -31z m72 -42 c15 -11 25 -24 22 -29 -5 -8 -82 -2 -92 7 -1 1 2 14 8 29 10 29 13 28 62 -7z m456 -28 c-2 -6 -8 -10 -13 -10 -5 0 -11 4 -13 10 -2 6 4 11 13 11 9 0 15 -5 13 -11z m265 -89 c13 0 17 -8 17 -37 l0 -37 -33 32 c-18 18 -39 32 -46 32 -7 0 -9 5 -5 11 3 6 16 8 28 5 11 -3 29 -6 39 -6z m-126 -12 c7 -6 19 -8 26 -5 9 3 12 -4 9 -29 -5 -38 -21 -43 -46 -15 -18 19 -58 20 -81 1 -5 -4 -21 -10 -35 -12 -19 -2 -26 2 -28 17 -5 37 121 72 155 43z m270 -25 c20 -30 7 -46 -33 -41 -21 2 -31 11 -38 31 -18 50 39 59 71 10z m-1564 0 c3 -16 4 -30 2 -33 -2 -3 -34 -6 -72 -5 l-68 0 -3 33 -3 32 69 0 c68 0 70 -1 75 -27z m2025 -31 c2 -7 -3 -12 -10 -12 -8 0 -15 7 -15 15 0 18 19 15 25 -3z m-1703 -92 l0 -75 -70 0 -70 0 -3 64 c-2 35 -1 69 1 75 3 7 31 12 73 11 l69 0 0 -75z m1950 60 c4 -6 2 -17 -4 -24 -6 -7 -8 -16 -4 -19 3 -4 2 -7 -4 -7 -12 0 -25 39 -17 52 7 11 22 10 29 -2z m293 -63 c6 -32 -17 -47 -72 -47 -28 0 -68 5 -89 11 l-38 10 33 22 c44 30 161 32 166 4z m2802 -53 c0 -8 -7 -14 -15 -14 -15 0 -21 21 -9 33 10 9 24 -2 24 -19z m1625 0 c0 -15 -8 -20 -40 -22 l-40 -2 30 25 c34 28 50 28 50 -1z m-346 0 c22 -7 5 -16 -38 -21 -39 -5 -42 -1 -32 35 1 2 45 -6 70 -14z m241 -16 c0 -5 -9 -8 -20 -8 -23 0 -26 10 -8 28 9 9 14 9 20 -1 4 -6 8 -15 8 -19z m-1280 2 c0 -6 -32 -10 -75 -10 -43 0 -75 4 -75 10 0 6 32 10 75 10 43 0 75 -4 75 -10z m320 0 c0 -6 -33 -10 -80 -10 -47 0 -80 4 -80 10 0 6 33 10 80 10 47 0 80 -4 80 -10z m475 0 c4 -6 -22 -10 -69 -10 -44 0 -76 4 -76 10 0 6 30 10 69 10 39 0 73 -4 76 -10z m543 -157 c-10 -2 -26 -2 -35 0 -10 3 -2 5 17 5 19 0 27 -2 18 -5z m-3133 -273 c11 -14 16 -22 11 -18 -5 4 -16 3 -25 -2 -15 -7 -17 -4 -13 21 2 16 5 29 6 27 1 -2 10 -14 21 -28z m1150 -127 c-7 -41 -42 -86 -58 -76 -6 3 -1 10 11 14 17 6 22 17 22 42 0 28 14 57 28 57 2 0 1 -17 -3 -37z m-3859 -14 c12 -10 12 -15 0 -34 -13 -20 -13 -25 0 -43 14 -20 12 -22 -16 -37 -20 -10 -42 -14 -60 -10 -32 7 -56 30 -41 39 6 4 5 19 -1 40 -17 55 -7 67 53 62 28 -3 58 -11 65 -17z m-469 -56 c-3 -10 -5 -2 -5 17 0 19 2 27 5 18 2 -10 2 -26 0 -35z m4800 0 c-3 -10 -5 -2 -5 17 0 19 2 27 5 18 2 -10 2 -26 0 -35z m-4989 -120 c-21 -2 -55 -2 -75 0 -21 2 -4 4 37 4 41 0 58 -2 38 -4z m5552 -9 c0 -14 -3 -14 -15 -4 -8 7 -15 14 -15 16 0 2 7 4 15 4 8 0 15 -7 15 -16z m-6572 -441 c-10 -2 -26 -2 -35 0 -10 3 -2 5 17 5 19 0 27 -2 18 -5z"/>
 <path d="M1763 3513 c-13 -33 5 -43 77 -43 55 0 72 3 77 16 10 27 -15 39 -83 39 -45 1 -68 -3 -71 -12z"/>
 <path d="M5900 3351 c-6 -12 -8 -26 -5 -32 4 -5 1 -16 -5 -24 -10 -12 -9 -16 3 -21 26 -9 34 3 33 45 -2 49 -11 60 -26 32z"/>
 <path d="M6345 3361 c-7 -12 12 -24 25 -16 11 7 4 25 -10 25 -5 0 -11 -4 -15 -9z"/>
 <path d="M1834 3305 c-10 -25 9 -37 52 -33 31 2 39 7 39 23 0 16 -8 21 -43 23 -32 2 -44 -1 -48 -13z"/>
 <path d="M7274 2985 c-10 -25 9 -37 52 -33 31 2 39 7 39 23 0 16 -8 21 -43 23 -32 2 -44 -1 -48 -13z"/>
 <path d="M7783 2874 c-8 -21 13 -42 28 -27 13 13 5 43 -11 43 -6 0 -13 -7 -17 -16z"/>
 <path d="M315 2718 c-9 -23 -2 -83 10 -83 14 0 19 75 6 88 -7 7 -12 5 -16 -5z"/>
 </g>

</svg>