<!DOCTYPE svg PUBLIC "-//W3C//DTD SVG 20010904//EN" "http://www.w3.org/TR/2001/REC-SVG-20010904/DTD/svg10.dtd">
<svg version="1.0" xmlns="http://www.w3.org/2000/svg" width="285px" height="210px" viewBox="0 0 2850 2100" preserveAspectRatio="xMidYMid meet">
<g id="layer1" fill="#332a2f" stroke="none">
 <path d="M1700 1330 c0 -5 7 -10 15 -10 8 0 15 5 15 10 0 6 -7 10 -15 10 -8 0 -15 -4 -15 -10z"/>
 <path d="M2177 1313 c-12 -11 -8 -23 8 -23 8 0 15 7 15 15 0 16 -12 20 -23 8z"/>
 <path d="M2130 1200 c0 -5 7 -10 15 -10 8 0 15 5 15 10 0 6 -7 10 -15 10 -8 0 -15 -4 -15 -10z"/>
 <path d="M2210 1075 c0 -8 5 -15 10 -15 6 0 10 7 10 15 0 8 -4 15 -10 15 -5 0 -10 -7 -10 -15z"/>
 <path d="M2162 1058 c6 -18 28 -21 28 -4 0 9 -7 16 -16 16 -9 0 -14 -5 -12 -12z"/>
 </g>
<g id="layer2" fill="#e6c9b6" stroke="none">
 <path d="M1660 1375 c0 -8 5 -15 10 -15 6 0 10 7 10 15 0 8 -4 15 -10 15 -5 0 -10 -7 -10 -15z"/>
 <path d="M1698 1163 c-29 -7 -20 -23 13 -23 19 0 29 4 27 12 -5 14 -17 17 -40 11z"/>
 <path d="M2203 1133 c-28 -5 -30 -23 -4 -23 11 0 27 -3 36 -6 13 -5 16 -2 14 11 -4 21 -14 24 -46 18z"/>
 </g>
<g id="layer3" fill="#50353a" stroke="none">
 <path d="M1687 1363 c-12 -3 -17 -12 -15 -26 4 -24 28 -36 28 -13 0 9 5 16 10 16 6 0 10 7 10 15 0 15 -2 16 -33 8z"/>
 <path d="M1612 1348 c-27 -27 -7 -47 32 -32 27 10 13 44 -18 44 -1 0 -7 -5 -14 -12z"/>
 <path d="M2140 1306 c0 -14 5 -26 10 -26 6 0 10 9 10 19 0 11 -4 23 -10 26 -6 4 -10 -5 -10 -19z"/>
 <path d="M2190 1306 c0 -9 7 -16 16 -16 9 0 14 5 12 12 -6 18 -28 21 -28 4z"/>
 <path d="M1610 1224 c0 -17 22 -14 28 4 2 7 -3 12 -12 12 -9 0 -16 -7 -16 -16z"/>
 <path d="M2198 1077 c-50 -20 -26 -36 30 -21 13 4 21 11 19 17 -5 15 -18 16 -49 4z"/>
 </g>
<g id="layer4" fill="#75788d" stroke="none">
 <path d="M1573 1353 c-23 -4 -31 -27 -13 -38 11 -7 60 23 60 36 0 9 -8 10 -47 2z"/>
 <path d="M1708 1313 c7 -3 16 -2 19 1 4 3 -2 6 -13 5 -11 0 -14 -3 -6 -6z"/>
 <path d="M1751 1284 c0 -11 3 -14 6 -6 3 7 2 16 -1 19 -3 4 -6 -2 -5 -13z"/>
 <path d="M2172 1288 c7 -19 38 -22 38 -4 0 10 -9 16 -21 16 -12 0 -19 -5 -17 -12z"/>
 <path d="M2112 1278 c3 -7 13 -15 22 -16 12 -3 17 1 14 10 -3 7 -13 15 -22 16 -12 3 -17 -1 -14 -10z"/>
 <path d="M1670 1235 c0 -8 5 -15 10 -15 6 0 10 7 10 15 0 8 -4 15 -10 15 -5 0 -10 -7 -10 -15z"/>
 <path d="M2140 1235 c0 -8 5 -15 10 -15 6 0 10 7 10 15 0 8 -4 15 -10 15 -5 0 -10 -7 -10 -15z"/>
 <path d="M1720 1225 c0 -8 7 -15 15 -15 8 0 15 7 15 15 0 8 -7 15 -15 15 -8 0 -15 -7 -15 -15z"/>
 <path d="M2815 1230 c-7 -12 2 -30 16 -30 5 0 9 9 9 20 0 21 -15 27 -25 10z"/>
 <path d="M2150 1086 c0 -9 7 -16 16 -16 9 0 14 5 12 12 -6 18 -28 21 -28 4z"/>
 <path d="M370 1075 c0 -8 7 -15 15 -15 8 0 15 7 15 15 0 8 -7 15 -15 15 -8 0 -15 -7 -15 -15z"/>
 <path d="M2106 1034 c-9 -24 -8 -25 14 -12 23 15 26 28 6 28 -8 0 -17 -7 -20 -16z"/>
 <path d="M2178 1033 c7 -3 16 -2 19 1 4 3 -2 6 -13 5 -11 0 -14 -3 -6 -6z"/>
 </g>
<g id="layer5" fill="#9a7069" stroke="none">
 <path d="M1630 1366 c0 -10 9 -16 21 -16 24 0 21 23 -4 28 -10 2 -17 -3 -17 -12z"/>
 <path d="M1680 1365 c0 -8 5 -15 10 -15 6 0 10 7 10 15 0 8 -4 15 -10 15 -5 0 -10 -7 -10 -15z"/>
 <path d="M1710 1341 c0 -21 36 -34 59 -21 10 5 19 3 27 -8 16 -22 46 -8 42 20 -2 19 -10 23 -43 24 -22 1 -43 -4 -47 -10 -6 -8 -8 -7 -8 2 0 6 -7 12 -15 12 -8 0 -15 -8 -15 -19z"/>
 <path d="M2232 1307 c2 -12 11 -23 21 -25 25 -5 22 34 -4 41 -16 4 -20 1 -17 -16z"/>
 <path d="M1590 1280 c0 -5 5 -10 10 -10 6 0 10 5 10 10 0 6 -4 10 -10 10 -5 0 -10 -4 -10 -10z"/>
 <path d="M1690 1235 c0 -8 5 -15 10 -15 6 0 10 7 10 15 0 8 -4 15 -10 15 -5 0 -10 -7 -10 -15z"/>
 <path d="M2150 1219 c0 -11 5 -17 10 -14 6 3 10 13 10 21 0 8 -4 14 -10 14 -5 0 -10 -9 -10 -21z"/>
 <path d="M2232 1229 c2 -7 10 -15 17 -17 8 -3 12 1 9 9 -2 7 -10 15 -17 17 -8 3 -12 -1 -9 -9z"/>
 <path d="M2590 1225 c0 -8 9 -15 20 -15 11 0 20 7 20 15 0 8 -9 15 -20 15 -11 0 -20 -7 -20 -15z"/>
 <path d="M1661 1214 c0 -11 3 -14 6 -6 3 7 2 16 -1 19 -3 4 -6 -2 -5 -13z"/>
 <path d="M2150 1160 c0 -5 7 -10 15 -10 8 0 15 5 15 10 0 6 -7 10 -15 10 -8 0 -15 -4 -15 -10z"/>
 <path d="M2190 1085 c0 -8 5 -15 10 -15 6 0 10 7 10 15 0 8 -4 15 -10 15 -5 0 -10 -7 -10 -15z"/>
 <path d="M2200 1050 c0 -13 11 -13 30 0 12 8 11 10 -7 10 -13 0 -23 -4 -23 -10z"/>
 </g>
<g id="layer6" fill="#ce6559" stroke="none">
 <path d="M1660 1214 c-6 -14 -10 -37 -10 -51 0 -23 3 -24 28 -18 15 4 37 7 50 7 26 -2 27 6 8 53 -19 45 -61 50 -76 9z"/>
 <path d="M2180 1225 c0 -18 52 -75 69 -75 15 0 14 16 -5 56 -12 25 -23 34 -40 34 -15 0 -24 -6 -24 -15z"/>
 <path d="M2162 1158 c6 -18 28 -21 28 -4 0 9 -7 16 -16 16 -9 0 -14 -5 -12 -12z"/>
 </g>
<g id="layer7" fill="#b58878" stroke="none">
 <path d="M1720 1350 c0 -25 4 -30 25 -30 27 0 31 10 15 41 -17 30 -40 24 -40 -11z"/>
 <path d="M1652 1343 c4 -36 33 -39 33 -3 0 16 -6 26 -18 28 -15 3 -18 -2 -15 -25z"/>
 <path d="M1577 1313 c-12 -11 -8 -23 8 -23 8 0 15 7 15 15 0 16 -12 20 -23 8z"/>
 <path d="M2200 1240 c0 -5 -11 -10 -25 -10 -21 0 -25 -5 -25 -29 0 -17 4 -32 9 -35 5 -3 7 -15 4 -26 -4 -13 0 -20 10 -20 8 0 17 9 20 20 5 21 47 29 47 9 0 -5 5 -7 10 -4 17 10 11 71 -8 88 -21 19 -42 22 -42 7z"/>
 <path d="M1708 1158 c-5 -11 -14 -15 -27 -11 -15 4 -21 1 -21 -12 0 -14 5 -16 27 -10 35 8 36 9 31 32 -3 16 -4 16 -10 1z"/>
 <path d="M2124 1108 c3 -13 6 -31 6 -40 0 -10 7 -18 15 -18 17 0 19 18 5 54 -12 32 -35 35 -26 4z"/>
 </g>
<g id="layer8" fill="#cbb3ae" stroke="none">
 <path d="M2163 1457 c-55 -18 -41 -37 26 -37 63 0 81 11 61 35 -14 17 -40 17 -87 2z"/>
 <path d="M1720 1376 c0 -7 8 -16 18 -19 9 -2 25 -8 35 -12 29 -12 19 13 -13 30 -36 18 -40 19 -40 1z"/>
 <path d="M1650 1370 c0 -5 7 -10 15 -10 8 0 15 5 15 10 0 6 -7 10 -15 10 -8 0 -15 -4 -15 -10z"/>
 <path d="M2212 1318 c-16 -16 -15 -28 3 -28 8 0 15 9 15 20 0 23 -2 24 -18 8z"/>
 <path d="M1750 1270 c0 -5 7 -10 15 -10 8 0 15 5 15 10 0 6 -7 10 -15 10 -8 0 -15 -4 -15 -10z"/>
 <path d="M2450 1225 c0 -8 5 -15 10 -15 6 0 10 7 10 15 0 8 -4 15 -10 15 -5 0 -10 -7 -10 -15z"/>
 <path d="M2390 1215 c0 -8 5 -15 10 -15 6 0 10 7 10 15 0 8 -4 15 -10 15 -5 0 -10 -7 -10 -15z"/>
 <path d="M2514 1213 c3 -8 6 -17 6 -19 0 -2 7 -4 15 -4 23 0 18 27 -6 33 -15 4 -19 2 -15 -10z"/>
 <path d="M2632 1218 c6 -18 28 -21 28 -4 0 9 -7 16 -16 16 -9 0 -14 -5 -12 -12z"/>
 <path d="M1810 1210 c0 -5 5 -10 10 -10 6 0 10 5 10 10 0 6 -4 10 -10 10 -5 0 -10 -4 -10 -10z"/>
 <path d="M1850 1205 c0 -17 9 -19 28 -6 11 7 10 10 -3 15 -23 9 -25 8 -25 -9z"/>
 <path d="M1640 1190 c0 -5 7 -10 15 -10 8 0 15 5 15 10 0 6 -7 10 -15 10 -8 0 -15 -4 -15 -10z"/>
 <path d="M1703 1171 c-31 -15 -45 -41 -23 -41 6 0 10 -7 10 -15 0 -18 26 -20 36 -4 6 10 16 82 11 78 -1 -1 -17 -9 -34 -18z"/>
 <path d="M2223 1151 c3 -12 -1 -22 -9 -25 -8 -3 -14 1 -14 9 0 23 -14 17 -27 -12 -15 -31 -11 -39 14 -28 21 9 30 11 61 13 37 3 22 62 -16 62 -9 0 -13 -7 -9 -19z"/>
 </g>
<g id="layer9" fill="#6a5e62" stroke="none">
 <path d="M1607 1364 c-12 -13 -8 -24 11 -24 12 -1 9 -5 -10 -16 -31 -16 -34 -24 -16 -42 18 -18 38 -14 38 8 0 10 7 23 16 28 22 12 14 46 -12 50 -11 2 -23 0 -27 -4z"/>
 <path d="M1697 1353 c-16 -15 -5 -33 29 -49 33 -16 37 -16 52 -1 23 24 4 41 -31 28 -24 -9 -27 -8 -27 9 0 20 -11 26 -23 13z"/>
 <path d="M2098 1327 c-16 -6 -28 -14 -28 -17 0 -5 64 -40 74 -40 10 0 14 46 4 57 -12 15 -13 15 -50 0z"/>
 <path d="M2177 1334 c-13 -13 -7 -24 14 -24 11 0 19 5 17 12 -5 14 -22 21 -31 12z"/>
 <path d="M2226 1308 c-3 -13 -1 -27 4 -32 12 -12 17 -7 25 27 5 20 4 27 -8 27 -8 0 -17 -10 -21 -22z"/>
 <path d="M1737 1263 c-13 -12 -7 -43 8 -43 9 0 15 9 15 25 0 24 -10 32 -23 18z"/>
 <path d="M1602 1223 c4 -21 27 -27 48 -13 13 9 13 11 0 20 -25 16 -52 12 -48 -7z"/>
 <path d="M2130 1220 c0 -5 5 -10 10 -10 6 0 10 5 10 10 0 6 -4 10 -10 10 -5 0 -10 -4 -10 -10z"/>
 <path d="M2580 1215 c0 -8 7 -15 15 -15 8 0 15 7 15 15 0 8 -7 15 -15 15 -8 0 -15 -7 -15 -15z"/>
 <path d="M2780 1215 c0 -8 9 -15 20 -15 11 0 20 7 20 15 0 8 -9 15 -20 15 -11 0 -20 -7 -20 -15z"/>
 <path d="M1970 1205 c0 -8 5 -15 10 -15 6 0 10 7 10 15 0 8 -4 15 -10 15 -5 0 -10 -7 -10 -15z"/>
 <path d="M2140 1186 c0 -22 17 -28 24 -10 9 22 8 24 -9 24 -8 0 -15 -6 -15 -14z"/>
 <path d="M2158 1079 c-24 -13 -23 -26 3 -40 17 -9 28 -7 54 7 30 16 32 19 17 31 -20 15 -51 16 -74 2z"/>
 </g>
<g id="layer10" fill="#9a9896" stroke="none">
 <path d="M2500 1625 c0 -8 7 -15 15 -15 8 0 15 7 15 15 0 8 -7 15 -15 15 -8 0 -15 -7 -15 -15z"/>
 <path d="M2640 1625 c0 -16 35 -20 65 -9 13 5 14 8 3 15 -22 15 -68 11 -68 -6z"/>
 <path d="M2570 1615 c0 -8 5 -15 10 -15 6 0 10 7 10 15 0 8 -4 15 -10 15 -5 0 -10 -7 -10 -15z"/>
 <path d="M820 1555 c0 -8 7 -15 15 -15 8 0 15 7 15 15 0 8 -7 15 -15 15 -8 0 -15 -7 -15 -15z"/>
 <path d="M1220 1545 c0 -8 5 -15 10 -15 6 0 10 7 10 15 0 8 -4 15 -10 15 -5 0 -10 -7 -10 -15z"/>
 <path d="M1575 1380 c-3 -5 -15 -10 -26 -10 -11 0 -19 -7 -19 -16 0 -12 7 -14 33 -9 38 8 52 19 43 34 -9 14 -23 14 -31 1z"/>
 <path d="M1700 1365 c0 -8 5 -15 10 -15 6 0 10 7 10 15 0 8 -4 15 -10 15 -5 0 -10 -7 -10 -15z"/>
 <path d="M1800 1305 c0 -8 5 -15 10 -15 6 0 10 7 10 15 0 8 -4 15 -10 15 -5 0 -10 -7 -10 -15z"/>
 <path d="M2050 1310 c0 -5 7 -10 15 -10 8 0 15 5 15 10 0 6 -7 10 -15 10 -8 0 -15 -4 -15 -10z"/>
 <path d="M2238 1313 c-10 -2 -18 -9 -18 -15 0 -5 7 -8 15 -4 8 3 15 1 15 -4 0 -6 7 -10 16 -10 9 0 14 7 12 17 -3 18 -15 23 -40 16z"/>
 <path d="M2141 1290 c-25 -21 -23 -46 4 -56 21 -9 33 5 15 16 -12 8 -12 10 3 16 9 3 17 15 17 25 0 24 -9 24 -39 -1z"/>
 <path d="M2800 1225 c0 -8 5 -15 10 -15 6 0 10 7 10 15 0 8 -4 15 -10 15 -5 0 -10 -7 -10 -15z"/>
 <path d="M1722 1218 c6 -18 28 -21 28 -4 0 9 -7 16 -16 16 -9 0 -14 -5 -12 -12z"/>
 <path d="M2432 1221 c-11 -7 -10 -10 3 -15 26 -10 35 -7 35 9 0 17 -18 19 -38 6z"/>
 <path d="M2542 1221 c-11 -7 -11 -9 2 -14 19 -7 46 1 46 14 0 11 -31 11 -48 0z"/>
 <path d="M2660 1215 c0 -8 7 -15 15 -15 8 0 15 7 15 15 0 8 -7 15 -15 15 -8 0 -15 -7 -15 -15z"/>
 <path d="M1640 1210 c0 -5 5 -10 10 -10 6 0 10 5 10 10 0 6 -4 10 -10 10 -5 0 -10 -4 -10 -10z"/>
 <path d="M2710 1210 c0 -5 5 -10 10 -10 6 0 10 5 10 10 0 6 -4 10 -10 10 -5 0 -10 -4 -10 -10z"/>
 <path d="M2130 1170 c0 -5 5 -10 10 -10 6 0 10 5 10 10 0 6 -4 10 -10 10 -5 0 -10 -4 -10 -10z"/>
 <path d="M2100 1131 c0 -6 5 -13 10 -16 6 -3 10 -15 10 -26 0 -15 7 -19 35 -19 44 0 48 25 5 34 -18 3 -30 12 -30 21 0 8 -7 15 -15 15 -8 0 -15 -4 -15 -9z"/>
 <path d="M2211 1043 c-9 -10 -10 -18 -3 -25 12 -12 32 -2 32 17 0 21 -13 25 -29 8z"/>
 <path d="M2117 1043 c-14 -13 -6 -24 15 -21 27 4 36 28 11 28 -11 0 -23 -3 -26 -7z"/>
 </g>
<g id="layer11" fill="#dddfe3" stroke="none">
 <path d="M770 1542 c-20 -7 -10 -32 13 -31 12 0 64 -3 115 -7 69 -5 92 -4 92 5 0 8 8 10 21 6 17 -6 20 -3 17 12 -3 16 -15 18 -126 18 -67 0 -126 -1 -132 -3z"/>
 <path d="M1067 1533 c-14 -13 -6 -33 12 -33 30 0 51 11 51 26 0 14 -51 20 -63 7z"/>
 <path d="M1156 1514 c-8 -29 -3 -39 13 -29 13 8 15 55 2 55 -5 0 -12 -12 -15 -26z"/>
 <path d="M1230 1525 c0 -8 5 -15 10 -15 6 0 10 7 10 15 0 8 -4 15 -10 15 -5 0 -10 -7 -10 -15z"/>
 <path d="M1270 1505 c-18 -21 -10 -25 33 -18 22 3 37 11 37 19 0 19 -54 18 -70 -1z"/>
 <path d="M1393 1505 c-3 -9 -3 -18 0 -21 9 -9 27 6 27 22 0 19 -19 18 -27 -1z"/>
 <path d="M1582 1511 c-11 -7 -10 -10 3 -15 28 -10 45 -7 45 9 0 16 -27 20 -48 6z"/>
 <path d="M1560 1465 c0 -8 5 -15 10 -15 6 0 10 7 10 15 0 8 -4 15 -10 15 -5 0 -10 -7 -10 -15z"/>
 <path d="M1631 1289 c-9 -21 -10 -34 -3 -41 6 -6 8 -18 5 -27 -2 -9 8 -2 23 14 21 23 36 30 63 30 24 0 36 5 38 15 4 18 -40 40 -82 40 -24 0 -33 -6 -44 -31z"/>
 <path d="M1688 1243 c7 -3 16 -2 19 1 4 3 -2 6 -13 5 -11 0 -14 -3 -6 -6z"/>
 <path d="M1751 1226 c-14 -17 -8 -46 9 -46 16 0 23 26 13 45 -9 15 -11 15 -22 1z"/>
 <path d="M1622 1169 c1 -12 9 -24 16 -27 9 -3 13 3 10 19 -1 12 -9 24 -16 27 -9 3 -13 -3 -10 -19z"/>
 <path d="M550 1160 c0 -5 7 -10 15 -10 8 0 15 5 15 10 0 6 -7 10 -15 10 -8 0 -15 -4 -15 -10z"/>
 <path d="M1120 1130 c0 -5 7 -10 15 -10 8 0 15 5 15 10 0 6 -7 10 -15 10 -8 0 -15 -4 -15 -10z"/>
 <path d="M2180 1106 c0 -9 7 -16 16 -16 9 0 14 5 12 12 -6 18 -28 21 -28 4z"/>
 </g>
<g id="layer12" fill="#d3cabc" stroke="none">
 <path d="M11 1514 c0 -11 3 -14 6 -6 3 7 2 16 -1 19 -3 4 -6 -2 -5 -13z"/>
 <path d="M210 1505 c0 -12 17 -15 90 -15 73 0 90 3 90 15 0 12 -17 15 -90 15 -73 0 -90 -3 -90 -15z"/>
 <path d="M580 1505 c0 -10 26 -13 115 -14 91 0 115 3 115 14 0 11 -24 14 -115 14 -89 -1 -115 -4 -115 -14z"/>
 <path d="M80 1495 c0 -8 5 -15 10 -15 6 0 10 7 10 15 0 8 -4 15 -10 15 -5 0 -10 -7 -10 -15z"/>
 <path d="M120 1495 c0 -10 11 -15 35 -15 24 0 35 5 35 15 0 10 -11 15 -35 15 -24 0 -35 -5 -35 -15z"/>
 <path d="M620 1465 c0 -8 5 -15 10 -15 6 0 10 7 10 15 0 8 -4 15 -10 15 -5 0 -10 -7 -10 -15z"/>
 <path d="M1718 1453 c7 -3 16 -2 19 1 4 3 -2 6 -13 5 -11 0 -14 -3 -6 -6z"/>
 <path d="M628 1433 c7 -3 16 -2 19 1 4 3 -2 6 -13 5 -11 0 -14 -3 -6 -6z"/>
 <path d="M1480 1425 c0 -8 5 -15 10 -15 6 0 10 7 10 15 0 8 -4 15 -10 15 -5 0 -10 -7 -10 -15z"/>
 <path d="M1670 1430 c0 -5 7 -10 15 -10 8 0 15 5 15 10 0 6 -7 10 -15 10 -8 0 -15 -4 -15 -10z"/>
 <path d="M2050 1425 c0 -8 5 -15 10 -15 6 0 10 7 10 15 0 8 -4 15 -10 15 -5 0 -10 -7 -10 -15z"/>
 <path d="M2120 1425 c0 -8 5 -15 10 -15 6 0 20 -9 32 -19 25 -24 103 -25 103 -1 0 8 -7 14 -16 14 -11 -1 -15 5 -12 17 7 24 -13 25 -26 2 -9 -15 -10 -16 -11 -2 0 22 -80 26 -80 4z"/>
 <path d="M2713 1421 c3 -14 0 -17 -14 -14 -11 3 -19 9 -19 14 0 5 -13 9 -30 9 -20 0 -30 -5 -30 -15 0 -8 6 -15 14 -15 8 0 16 -5 18 -10 2 -6 37 -12 78 -14 41 -2 83 -7 93 -11 14 -6 17 -1 17 34 l0 41 -66 0 c-60 0 -66 -2 -61 -19z"/>
 <path d="M2320 1416 c0 -13 6 -15 28 -10 33 8 41 14 19 14 -8 0 -22 3 -31 6 -11 4 -16 1 -16 -10z"/>
 <path d="M2510 1416 c0 -9 15 -15 45 -18 38 -3 45 0 45 14 0 15 -9 18 -45 18 -32 0 -45 -4 -45 -14z"/>
 <path d="M1798 1359 c-23 -13 -24 -59 -2 -59 11 0 15 6 11 20 -3 13 0 20 9 20 8 0 14 7 14 15 0 17 -8 18 -32 4z"/>
 <path d="M2160 1329 c0 -11 5 -17 10 -14 6 3 10 13 10 21 0 8 -4 14 -10 14 -5 0 -10 -9 -10 -21z"/>
 <path d="M430 1295 c0 -8 5 -15 10 -15 6 0 10 7 10 15 0 8 -4 15 -10 15 -5 0 -10 -7 -10 -15z"/>
 <path d="M770 1250 c-13 -9 -13 -11 0 -20 19 -12 35 -8 35 10 0 18 -16 22 -35 10z"/>
 <path d="M2361 1224 c0 -11 3 -14 6 -6 3 7 2 16 -1 19 -3 4 -6 -2 -5 -13z"/>
 <path d="M2077 1223 c-13 -12 -7 -23 13 -23 11 0 20 7 20 15 0 15 -21 21 -33 8z"/>
 <path d="M2437 1223 c-4 -3 -7 -11 -7 -17 0 -6 5 -5 12 2 6 6 9 14 7 17 -3 3 -9 2 -12 -2z"/>
 <path d="M1860 1210 c-8 -5 -12 -12 -8 -15 9 -9 48 4 48 16 0 12 -21 11 -40 -1z"/>
 <path d="M2257 1213 c-4 -3 -7 -11 -7 -17 0 -6 5 -5 12 2 6 6 9 14 7 17 -3 3 -9 2 -12 -2z"/>
 <path d="M2730 1200 c0 -5 5 -10 10 -10 6 0 10 5 10 10 0 6 -4 10 -10 10 -5 0 -10 -4 -10 -10z"/>
 <path d="M2520 1175 c0 -8 5 -15 10 -15 6 0 10 7 10 15 0 8 -4 15 -10 15 -5 0 -10 -7 -10 -15z"/>
 <path d="M2150 1040 c0 -5 5 -10 10 -10 6 0 10 5 10 10 0 6 -4 10 -10 10 -5 0 -10 -4 -10 -10z"/>
 </g>
<g id="layer13" fill="#8c9ba9" stroke="none">
 <path d="M2148 1713 c-10 -2 -18 -10 -18 -17 0 -7 -11 -19 -25 -26 -43 -23 -33 -25 205 -33 19 -1 38 -6 42 -11 4 -6 30 -6 72 0 36 6 69 7 74 2 4 -4 82 -9 175 -11 138 -4 167 -2 167 9 0 8 -10 14 -23 14 -13 0 -27 3 -31 8 -4 4 -56 7 -114 8 -114 1 -192 11 -192 25 0 5 -4 9 -10 9 -5 0 -10 -7 -10 -15 0 -8 -4 -15 -10 -15 -5 0 -10 7 -10 16 0 12 -6 15 -22 10 -58 -15 -98 -18 -98 -7 0 7 -10 11 -22 10 -13 -2 -29 0 -35 4 -7 4 -22 3 -33 -3 -16 -8 -20 -8 -20 4 0 7 -7 17 -16 20 -17 6 -19 6 -46 -1z"/>
 <path d="M1573 1663 c-30 -3 -43 -9 -43 -19 0 -23 94 -15 98 9 2 9 0 16 -5 15 -4 -1 -27 -3 -50 -5z"/>
 <path d="M1795 1656 l-30 -13 25 -7 c14 -4 63 -4 110 -2 47 3 102 5 123 5 26 0 37 5 37 15 0 13 -15 15 -89 12 -48 -2 -93 -6 -99 -10 -6 -3 -13 -2 -17 4 -8 13 -23 12 -60 -4z"/>
 <path d="M1272 1641 c-11 -7 -10 -10 3 -15 23 -9 25 -8 25 9 0 17 -9 19 -28 6z"/>
 <path d="M1350 1635 c0 -8 5 -15 10 -15 6 0 10 7 10 15 0 8 -4 15 -10 15 -5 0 -10 -7 -10 -15z"/>
 <path d="M1480 1640 c0 -5 7 -10 15 -10 8 0 15 5 15 10 0 6 -7 10 -15 10 -8 0 -15 -4 -15 -10z"/>
 <path d="M1710 1635 c0 -8 7 -15 15 -15 8 0 15 7 15 15 0 8 -7 15 -15 15 -8 0 -15 -7 -15 -15z"/>
 <path d="M1028 1603 c7 -3 16 -2 19 1 4 3 -2 6 -13 5 -11 0 -14 -3 -6 -6z"/>
 <path d="M720 1585 c0 -8 9 -15 20 -15 11 0 20 7 20 15 0 8 -9 15 -20 15 -11 0 -20 -7 -20 -15z"/>
 <path d="M480 1579 c0 -21 29 -41 46 -31 15 9 15 10 -4 16 -12 4 -22 12 -22 17 0 5 -4 9 -10 9 -5 0 -10 -5 -10 -11z"/>
 <path d="M670 1565 c0 -8 5 -15 10 -15 6 0 10 7 10 15 0 8 -4 15 -10 15 -5 0 -10 -7 -10 -15z"/>
 <path d="M392 1558 c6 -18 28 -21 28 -4 0 9 -7 16 -16 16 -9 0 -14 -5 -12 -12z"/>
 <path d="M270 1545 c0 -8 5 -15 10 -15 6 0 10 7 10 15 0 8 -4 15 -10 15 -5 0 -10 -7 -10 -15z"/>
 <path d="M700 1545 c0 -8 5 -15 10 -15 6 0 10 7 10 15 0 8 -4 15 -10 15 -5 0 -10 -7 -10 -15z"/>
 <path d="M1580 1330 c0 -5 5 -10 10 -10 6 0 10 5 10 10 0 6 -4 10 -10 10 -5 0 -10 -4 -10 -10z"/>
 <path d="M10 1185 c0 -12 14 -15 70 -15 56 0 70 3 70 15 0 12 -14 15 -70 15 -56 0 -70 -3 -70 -15z"/>
 <path d="M420 1175 c0 -10 11 -15 35 -15 24 0 35 5 35 15 0 10 -11 15 -35 15 -24 0 -35 -5 -35 -15z"/>
 <path d="M567 1163 c-4 -3 -7 -11 -7 -17 0 -6 5 -5 12 2 6 6 9 14 7 17 -3 3 -9 2 -12 -2z"/>
 <path d="M46 1145 c-9 -24 -8 -25 15 -25 14 0 19 5 17 17 -4 23 -24 27 -32 8z"/>
 <path d="M710 1145 c0 -8 7 -15 15 -15 8 0 15 7 15 15 0 8 -7 15 -15 15 -8 0 -15 -7 -15 -15z"/>
 <path d="M1200 1135 c0 -8 5 -15 10 -15 6 0 10 7 10 15 0 8 -4 15 -10 15 -5 0 -10 -7 -10 -15z"/>
 <path d="M1270 1135 c0 -9 23 -13 77 -14 42 -1 80 -4 84 -6 12 -8 39 6 39 19 0 9 -29 12 -100 13 -74 1 -100 -2 -100 -12z"/>
 <path d="M1940 1125 c0 -17 9 -19 28 -6 11 7 10 10 -3 15 -23 9 -25 8 -25 -9z"/>
 <path d="M1130 1114 c0 -17 22 -14 28 4 2 7 -3 12 -12 12 -9 0 -16 -7 -16 -16z"/>
 <path d="M1661 1114 c0 -11 3 -14 6 -6 3 7 2 16 -1 19 -3 4 -6 -2 -5 -13z"/>
 <path d="M2251 1114 c-7 -8 -10 -18 -7 -22 8 -8 38 10 44 26 5 17 -21 14 -37 -4z"/>
 <path d="M1735 1109 c-4 -6 -4 -13 -1 -16 8 -8 36 5 36 17 0 13 -27 13 -35 -1z"/>
 <path d="M2110 1111 c0 -5 5 -13 10 -16 6 -3 10 -2 10 4 0 5 -4 13 -10 16 -5 3 -10 2 -10 -4z"/>
 <path d="M2120 1060 c0 -5 7 -10 15 -10 8 0 15 5 15 10 0 6 -7 10 -15 10 -8 0 -15 -4 -15 -10z"/>
 <path d="M290 855 c0 -8 5 -15 10 -15 6 0 10 7 10 15 0 8 -4 15 -10 15 -5 0 -10 -7 -10 -15z"/>
 </g>
<g id="layer14" fill="#c0c1c6" stroke="none">
 <path d="M164 1535 c-5 -11 -10 -12 -25 -2 -14 8 -21 9 -30 0 -7 -7 -21 -8 -46 -1 -40 11 -39 12 -48 -25 l-8 -29 94 7 c119 8 131 11 127 38 -4 26 -56 35 -64 12z"/>
 <path d="M910 1535 c0 -8 5 -15 10 -15 6 0 10 7 10 15 0 8 -4 15 -10 15 -5 0 -10 -7 -10 -15z"/>
 <path d="M1060 1535 c0 -8 5 -15 10 -15 6 0 10 7 10 15 0 8 -4 15 -10 15 -5 0 -10 -7 -10 -15z"/>
 <path d="M1150 1540 c0 -5 -7 -10 -15 -10 -8 0 -15 -4 -15 -10 0 -5 -7 -10 -15 -10 -8 0 -15 -6 -15 -14 0 -23 58 -17 65 6 9 26 32 23 31 -4 -1 -19 5 -24 34 -26 24 -3 38 2 47 14 12 17 13 17 13 0 0 -15 7 -17 45 -12 25 2 45 0 45 -5 0 -14 74 -11 88 3 10 10 14 10 21 0 5 -8 25 -11 64 -7 34 3 57 1 57 -5 0 -6 27 -10 60 -10 44 0 60 4 60 14 0 26 -28 39 -69 32 -44 -7 -71 0 -71 19 0 16 -91 8 -139 -11 -29 -12 -35 -12 -45 1 -13 18 -118 38 -127 24 -3 -5 -24 -3 -48 6 -51 17 -71 19 -71 5z"/>
 <path d="M605 1530 c-9 -15 -6 -17 38 -25 30 -6 37 -4 37 9 0 9 -6 16 -12 16 -7 0 -23 3 -34 6 -12 3 -25 1 -29 -6z"/>
 <path d="M695 1529 c-10 -15 -3 -19 39 -26 28 -4 36 -2 36 10 0 25 -62 38 -75 16z"/>
 <path d="M390 1505 c0 -12 17 -15 95 -15 78 0 95 3 95 15 0 12 -17 15 -95 15 -78 0 -95 -3 -95 -15z"/>
 <path d="M810 1505 c0 -8 5 -15 10 -15 6 0 10 7 10 15 0 8 -4 15 -10 15 -5 0 -10 -7 -10 -15z"/>
 <path d="M1734 1478 c3 -13 6 -26 6 -30 0 -15 40 -8 40 7 0 8 -7 15 -15 15 -8 0 -15 7 -15 15 0 8 -5 15 -11 15 -7 0 -9 -9 -5 -22z"/>
 <path d="M2090 1485 c0 -8 5 -15 10 -15 6 0 10 7 10 15 0 8 -4 15 -10 15 -5 0 -10 -7 -10 -15z"/>
 <path d="M2580 1465 c0 -8 7 -15 15 -15 8 0 15 7 15 15 0 8 -7 15 -15 15 -8 0 -15 -7 -15 -15z"/>
 <path d="M1900 1445 c0 -12 13 -15 55 -15 42 0 55 3 55 15 0 12 -13 15 -55 15 -42 0 -55 -3 -55 -15z"/>
 <path d="M2050 1445 c0 -8 5 -15 10 -15 6 0 10 7 10 15 0 8 -4 15 -10 15 -5 0 -10 -7 -10 -15z"/>
 <path d="M2110 1435 c0 -8 5 -15 10 -15 6 0 10 7 10 15 0 8 -4 15 -10 15 -5 0 -10 -7 -10 -15z"/>
 <path d="M2570 1426 c0 -7 10 -16 22 -19 27 -7 32 -3 25 18 -8 19 -47 20 -47 1z"/>
 <path d="M1580 1350 c0 -5 7 -10 15 -10 8 0 15 5 15 10 0 6 -7 10 -15 10 -8 0 -15 -4 -15 -10z"/>
 <path d="M330 1294 c0 -12 6 -15 23 -10 12 3 29 6 37 7 8 0 4 5 -10 9 -39 13 -50 11 -50 -6z"/>
 <path d="M2186 1263 c-11 -27 -6 -32 34 -31 41 0 50 10 28 32 -19 17 -55 17 -62 -1z"/>
 <path d="M1740 1235 c0 -8 7 -15 15 -15 8 0 15 7 15 15 0 8 -7 15 -15 15 -8 0 -15 -7 -15 -15z"/>
 <path d="M2120 1240 c0 -5 7 -10 15 -10 8 0 15 5 15 10 0 6 -7 10 -15 10 -8 0 -15 -4 -15 -10z"/>
 <path d="M530 1176 c0 -9 7 -16 16 -16 17 0 14 22 -4 28 -7 2 -12 -3 -12 -12z"/>
 <path d="M1042 1151 c-11 -7 -10 -10 3 -15 29 -11 55 -7 55 9 0 16 -36 20 -58 6z"/>
 <path d="M988 1143 c7 -3 16 -2 19 1 4 3 -2 6 -13 5 -11 0 -14 -3 -6 -6z"/>
 <path d="M1732 1132 c2 -9 11 -15 19 -14 8 2 31 4 52 4 24 -1 37 4 37 13 0 9 -16 13 -56 14 -47 0 -55 -2 -52 -17z"/>
 <path d="M2070 1135 c0 -8 5 -15 10 -15 6 0 10 7 10 15 0 8 -4 15 -10 15 -5 0 -10 -7 -10 -15z"/>
 <path d="M2260 1135 c0 -8 5 -15 10 -15 6 0 10 7 10 15 0 8 -4 15 -10 15 -5 0 -10 -7 -10 -15z"/>
 <path d="M2760 1135 c0 -9 9 -15 25 -15 16 0 25 6 25 15 0 9 -9 15 -25 15 -16 0 -25 -6 -25 -15z"/>
 <path d="M1671 1114 c0 -11 3 -14 6 -6 3 7 2 16 -1 19 -3 4 -6 -2 -5 -13z"/>
 <path d="M2142 1118 c6 -18 28 -21 28 -4 0 9 -7 16 -16 16 -9 0 -14 -5 -12 -12z"/>
 </g>
<g id="layer15" fill="#bbbdc4" stroke="none">
 <path d="M10 1523 c0 -23 5 -33 15 -33 8 0 15 7 15 14 0 12 6 13 30 4 22 -7 34 -7 44 1 10 8 16 9 21 1 12 -19 35 -10 35 14 0 24 -3 25 -80 28 l-80 3 0 -32z"/>
 <path d="M778 1553 c-10 -2 -18 -11 -18 -20 0 -10 6 -13 16 -9 9 3 22 6 30 6 8 0 14 7 14 15 0 15 -9 17 -42 8z"/>
 <path d="M1000 1545 c0 -8 9 -15 20 -15 11 0 20 7 20 15 0 8 -9 15 -20 15 -11 0 -20 -7 -20 -15z"/>
 <path d="M346 1543 c-4 -4 -34 -6 -67 -5 -53 2 -60 0 -57 -15 3 -17 20 -18 212 -18 159 0 210 3 214 13 2 6 -3 12 -12 12 -9 0 -16 5 -16 11 0 7 -12 9 -32 6 -54 -10 -209 -13 -215 -5 -5 10 -18 10 -27 1z"/>
 <path d="M890 1535 c0 -8 5 -15 10 -15 6 0 10 7 10 15 0 8 -4 15 -10 15 -5 0 -10 -7 -10 -15z"/>
 <path d="M1080 1535 c0 -8 13 -13 35 -13 22 0 35 5 35 13 0 8 -13 13 -35 13 -22 0 -35 -5 -35 -13z"/>
 <path d="M1190 1535 c0 -8 9 -15 20 -15 11 0 20 7 20 15 0 8 -9 15 -20 15 -11 0 -20 -7 -20 -15z"/>
 <path d="M1250 1535 c0 -8 5 -15 10 -15 6 0 10 7 10 15 0 8 -4 15 -10 15 -5 0 -10 -7 -10 -15z"/>
 <path d="M680 1514 c0 -17 22 -14 28 4 2 7 -3 12 -12 12 -9 0 -16 -7 -16 -16z"/>
 <path d="M1356 1507 c-9 -35 -8 -36 28 -35 25 1 36 7 40 21 5 21 26 15 26 -8 0 -10 11 -14 38 -14 20 1 65 -1 100 -4 34 -3 62 -2 62 3 0 5 10 10 23 12 26 4 30 31 4 36 -10 2 -35 -3 -56 -11 -35 -14 -39 -14 -51 3 -11 15 -28 18 -110 18 -93 1 -98 0 -104 -21z"/>
 <path d="M1713 1493 c2 -36 4 -38 47 -46 63 -11 170 0 170 19 0 8 -7 14 -15 14 -8 0 -15 7 -15 15 0 20 -20 19 -35 -2 -11 -15 -18 -16 -47 -6 -18 7 -43 10 -55 7 -16 -5 -21 -2 -20 12 1 10 -6 20 -15 22 -14 3 -17 -4 -15 -35z"/>
 <path d="M2194 1497 c3 -10 6 -25 6 -33 0 -8 9 -14 20 -14 11 0 20 7 20 15 0 8 -5 15 -11 15 -7 0 -18 8 -26 18 -14 16 -14 16 -9 -1z"/>
 <path d="M2610 1460 l0 -50 45 0 c25 0 45 4 45 9 0 5 12 11 27 13 17 2 29 10 31 20 3 15 -3 17 -41 13 -24 -2 -50 -5 -58 -7 -9 -2 -15 7 -17 25 -2 15 -9 27 -18 27 -10 0 -14 -13 -14 -50z"/>
 <path d="M2490 1485 c0 -8 7 -15 15 -15 8 0 15 7 15 15 0 8 -7 15 -15 15 -8 0 -15 -7 -15 -15z"/>
 <path d="M2115 1473 c3 -8 5 -17 5 -19 0 -2 11 -4 25 -4 36 0 32 27 -5 32 -24 4 -30 1 -25 -9z"/>
 <path d="M2270 1475 c0 -8 5 -15 10 -15 6 0 10 7 10 15 0 8 -4 15 -10 15 -5 0 -10 -7 -10 -15z"/>
 <path d="M1980 1470 c0 -5 7 -10 15 -10 8 0 15 -7 15 -15 0 -8 9 -15 20 -15 11 0 20 7 20 15 0 8 -9 15 -20 15 -11 0 -20 5 -20 10 0 6 -7 10 -15 10 -8 0 -15 -4 -15 -10z"/>
 <path d="M2530 1465 c0 -9 9 -15 25 -15 16 0 25 6 25 15 0 9 -9 15 -25 15 -16 0 -25 -6 -25 -15z"/>
 <path d="M2790 1455 c0 -9 9 -15 25 -15 16 0 25 6 25 15 0 9 -9 15 -25 15 -16 0 -25 -6 -25 -15z"/>
 <path d="M2070 1445 c0 -8 7 -15 15 -15 8 0 15 7 15 15 0 8 -7 15 -15 15 -8 0 -15 -7 -15 -15z"/>
 <path d="M2250 1425 c0 -8 9 -15 20 -15 11 0 20 7 20 15 0 8 -9 15 -20 15 -11 0 -20 -7 -20 -15z"/>
 <path d="M2390 1425 c0 -8 13 -13 35 -13 22 0 35 5 35 13 0 8 -13 13 -35 13 -22 0 -35 -5 -35 -13z"/>
 <path d="M2540 1424 c0 -9 7 -14 17 -12 25 5 28 28 4 28 -12 0 -21 -6 -21 -16z"/>
 <path d="M1660 1315 c0 -8 5 -15 10 -15 6 0 10 7 10 15 0 8 -4 15 -10 15 -5 0 -10 -7 -10 -15z"/>
 <path d="M1614 1264 c3 -9 6 -20 6 -25 0 -5 9 -9 20 -9 11 0 20 5 20 10 0 6 -4 10 -10 10 -5 0 -10 7 -10 15 0 8 -7 15 -16 15 -11 0 -14 -5 -10 -16z"/>
 <path d="M2232 1269 c2 -7 10 -15 17 -17 8 -3 12 1 9 9 -2 7 -10 15 -17 17 -8 3 -12 -1 -9 -9z"/>
 <path d="M2183 1263 c-20 -8 -15 -23 7 -23 11 0 20 7 20 15 0 15 -6 17 -27 8z"/>
 <path d="M290 1185 c0 -8 5 -15 10 -15 6 0 10 7 10 15 0 8 -4 15 -10 15 -5 0 -10 -7 -10 -15z"/>
 <path d="M950 1145 c0 -8 7 -15 15 -15 8 0 15 7 15 15 0 8 -7 15 -15 15 -8 0 -15 -7 -15 -15z"/>
 <path d="M2140 1151 c0 -5 -3 -16 -6 -25 -4 -12 0 -16 15 -16 16 0 21 6 21 25 0 16 -6 25 -15 25 -8 0 -15 -4 -15 -9z"/>
 <path d="M1470 1135 c0 -8 5 -15 10 -15 6 0 10 7 10 15 0 8 -4 15 -10 15 -5 0 -10 -7 -10 -15z"/>
 <path d="M1620 1135 c0 -8 5 -15 10 -15 6 0 10 7 10 15 0 8 -4 15 -10 15 -5 0 -10 -7 -10 -15z"/>
 <path d="M1840 1135 c0 -8 5 -15 10 -15 6 0 10 7 10 15 0 8 -4 15 -10 15 -5 0 -10 -7 -10 -15z"/>
 <path d="M1890 1135 c0 -8 9 -15 20 -15 11 0 20 7 20 15 0 8 -9 15 -20 15 -11 0 -20 -7 -20 -15z"/>
 <path d="M2012 1141 c-11 -7 -10 -10 3 -15 23 -9 25 -8 25 9 0 17 -9 19 -28 6z"/>
 <path d="M2280 1135 c0 -10 19 -14 80 -13 57 0 80 4 80 13 0 9 -23 13 -80 13 -61 1 -80 -3 -80 -13z"/>
 <path d="M2710 1135 c0 -9 9 -15 25 -15 16 0 25 6 25 15 0 9 -9 15 -25 15 -16 0 -25 -6 -25 -15z"/>
 </g>
<g id="layer16" fill="#6e979e" stroke="none">
 <path d="M1498 2078 c9 -9 15 -9 24 0 9 9 7 12 -12 12 -19 0 -21 -3 -12 -12z"/>
 <path d="M1548 2083 c7 -3 16 -2 19 1 4 3 -2 6 -13 5 -11 0 -14 -3 -6 -6z"/>
 <path d="M1628 2083 c7 -3 16 -2 19 1 4 3 -2 6 -13 5 -11 0 -14 -3 -6 -6z"/>
 <path d="M1685 2080 c7 -12 84 -10 91 2 3 4 -18 8 -46 8 -31 0 -49 -4 -45 -10z"/>
 <path d="M1212 2064 c1 -9 9 -19 16 -22 9 -3 13 2 10 14 -1 9 -9 19 -16 22 -9 3 -13 -2 -10 -14z"/>
 <path d="M2173 2073 c-13 -2 -26 -16 -32 -34 -9 -27 -19 -34 -48 -30 -7 1 -13 -5 -13 -13 0 -12 8 -14 33 -10 17 2 49 4 70 4 27 -1 37 3 37 15 0 8 7 15 15 15 8 0 15 7 15 15 0 8 -9 15 -20 15 -11 0 -20 7 -20 15 0 8 -3 14 -7 14 -5 -1 -18 -4 -30 -6z"/>
 <path d="M1780 2040 c0 -5 5 -10 10 -10 6 0 10 5 10 10 0 6 -4 10 -10 10 -5 0 -10 -4 -10 -10z"/>
 <path d="M1730 2032 c0 -28 14 -42 41 -42 32 0 41 24 12 33 -10 2 -26 8 -35 12 -10 4 -18 3 -18 -3z"/>
 <path d="M2233 1932 c-18 -2 -33 -7 -33 -13 0 -5 -13 -9 -30 -9 -20 0 -30 -5 -30 -15 0 -8 -7 -15 -15 -15 -26 0 -16 -28 13 -34 24 -4 40 -4 113 2 13 1 19 8 18 20 -1 9 1 25 6 35 10 24 -3 33 -42 29z"/>
 <path d="M1790 1895 c0 -8 5 -15 10 -15 6 0 10 7 10 15 0 8 -4 15 -10 15 -5 0 -10 -7 -10 -15z"/>
 <path d="M2140 1778 c0 -8 -17 -20 -37 -28 -36 -12 -37 -14 -15 -23 30 -14 28 -22 -7 -23 -41 -1 -61 -11 -61 -29 0 -13 14 -14 98 -9 157 9 173 9 181 -5 10 -16 96 -5 116 15 11 12 23 12 67 2 29 -7 67 -19 83 -28 21 -11 48 -15 90 -13 97 5 118 4 129 -7 5 -5 20 -10 33 -10 21 0 23 4 23 55 0 58 2 56 -57 59 -10 1 -23 7 -29 15 -7 10 -16 11 -30 4 -10 -5 -43 -8 -71 -7 -41 3 -53 0 -53 -11 0 -9 -9 -15 -22 -15 -13 0 -33 -3 -45 -6 -18 -5 -21 -3 -16 15 6 24 -9 28 -29 7 -8 -7 -37 -17 -65 -21 -41 -5 -51 -4 -56 9 -8 21 -27 21 -27 0 0 -8 -4 -13 -10 -9 -5 3 -7 12 -4 20 8 21 -32 37 -103 41 -35 2 -68 6 -73 9 -6 4 -10 0 -10 -7z"/>
 <path d="M1240 1695 c0 -17 9 -19 28 -6 11 7 10 10 -3 15 -23 9 -25 8 -25 -9z"/>
 <path d="M1553 1695 c-8 -21 -5 -22 45 -17 27 3 42 9 42 18 0 20 -79 19 -87 -1z"/>
 <path d="M2430 1655 c0 -8 7 -15 15 -15 8 0 15 7 15 15 0 8 -7 15 -15 15 -8 0 -15 -7 -15 -15z"/>
 <path d="M2700 1125 c0 -8 5 -15 10 -15 6 0 10 7 10 15 0 8 -4 15 -10 15 -5 0 -10 -7 -10 -15z"/>
 <path d="M2780 1125 c0 -10 10 -15 30 -15 20 0 30 5 30 15 0 10 -10 15 -30 15 -20 0 -30 -5 -30 -15z"/>
 <path d="M2247 1093 c-4 -3 -7 -11 -7 -17 0 -6 5 -5 12 2 6 6 9 14 7 17 -3 3 -9 2 -12 -2z"/>
 <path d="M1700 1075 c0 -8 5 -15 10 -15 6 0 10 7 10 15 0 8 -4 15 -10 15 -5 0 -10 -7 -10 -15z"/>
 <path d="M2230 1030 c0 -5 5 -10 10 -10 6 0 10 5 10 10 0 6 -4 10 -10 10 -5 0 -10 -4 -10 -10z"/>
 <path d="M2100 1021 c0 -5 5 -13 10 -16 6 -3 10 -2 10 4 0 5 -4 13 -10 16 -5 3 -10 2 -10 -4z"/>
 </g>
<g id="layer17" fill="#efebe5" stroke="none">
 <path d="M875 1509 c-11 -16 2 -22 32 -15 21 6 24 9 12 17 -19 12 -36 11 -44 -2z"/>
 <path d="M590 1415 c0 -8 5 -15 10 -15 6 0 10 7 10 15 0 8 -4 15 -10 15 -5 0 -10 -7 -10 -15z"/>
 <path d="M1642 1270 c1 -25 5 -30 27 -30 14 0 36 -3 47 -6 15 -4 23 0 28 12 9 23 -5 36 -43 39 -17 1 -34 5 -38 9 -14 13 -22 5 -21 -24z"/>
 <path d="M860 1265 c0 -8 5 -15 10 -15 6 0 10 7 10 15 0 8 -4 15 -10 15 -5 0 -10 -7 -10 -15z"/>
 <path d="M2110 1261 c0 -5 5 -13 10 -16 6 -3 10 -2 10 4 0 5 -4 13 -10 16 -5 3 -10 2 -10 -4z"/>
 <path d="M10 1204 c0 -7 16 -11 38 -11 20 0 57 -3 82 -6 25 -4 133 -9 240 -12 107 -2 210 -8 228 -11 20 -4 32 -2 32 5 0 6 5 11 10 11 6 0 10 -7 10 -15 0 -10 12 -15 38 -17 20 0 51 -2 67 -4 66 -6 615 -5 624 1 6 3 20 1 32 -5 11 -6 28 -8 37 -4 29 12 52 14 52 4 0 -6 32 -10 75 -10 68 0 75 2 75 20 0 13 -5 17 -14 14 -8 -3 -17 3 -20 14 -6 18 -19 19 -269 21 -144 1 -291 3 -327 4 -56 2 -65 0 -64 -15 2 -22 6 -22 -47 1 -40 17 -77 19 -404 21 -198 2 -390 4 -427 4 -46 1 -68 -2 -68 -10z"/>
 <path d="M1630 1200 c0 -5 7 -10 15 -10 8 0 15 5 15 10 0 6 -7 10 -15 10 -8 0 -15 -4 -15 -10z"/>
 <path d="M1867 1203 c-4 -4 -36 -6 -72 -6 l-65 1 6 -26 c10 -41 12 -42 70 -42 45 0 54 3 54 18 1 16 2 16 15 -1 12 -17 25 -18 119 -15 90 4 108 7 121 24 8 10 15 23 15 27 0 9 -65 4 -112 -8 -22 -6 -28 -4 -28 9 0 19 -1 19 -36 6 -20 -8 -32 -7 -50 5 -27 17 -28 17 -37 8z"/>
 <path d="M2260 1185 c0 -2 4 -15 10 -30 l10 -26 265 1 c215 1 265 4 265 15 0 10 -29 13 -132 14 -76 1 -134 6 -136 11 -5 13 -32 13 -32 0 0 -6 -28 -10 -70 -9 -52 1 -70 5 -70 15 0 19 -19 18 -26 -1 -8 -19 -24 -20 -24 -2 0 9 -12 14 -30 15 -16 0 -30 -1 -30 -3z"/>
 <path d="M2831 1144 c0 -11 3 -14 6 -6 3 7 2 16 -1 19 -3 4 -6 -2 -5 -13z"/>
 <path d="M2206 1128 c-9 -34 -8 -38 9 -38 8 0 15 3 15 8 0 4 3 17 6 30 5 16 2 22 -9 22 -8 0 -17 -10 -21 -22z"/>
 </g>
<g id="layer18" fill="#a9a89c" stroke="none">
 <path d="M2163 1653 c-13 -2 -23 -11 -23 -20 0 -11 6 -14 23 -9 12 3 34 6 50 6 17 0 27 5 27 15 0 15 -27 18 -77 8z"/>
 <path d="M2452 1624 c4 -25 78 -34 78 -10 0 10 -9 16 -24 16 -13 0 -32 3 -41 6 -13 5 -16 2 -13 -12z"/>
 <path d="M2592 1613 c2 -10 11 -17 21 -17 9 1 17 -4 17 -12 0 -24 -36 -15 -48 11 -15 32 -42 33 -42 1 0 -18 -7 -26 -27 -31 -15 -3 -31 -11 -34 -16 -3 -6 -55 -11 -115 -12 -98 -2 -109 -4 -112 -21 -3 -15 0 -18 16 -14 14 4 22 0 25 -13 6 -23 36 -25 63 -4 26 20 33 19 27 -6 -5 -18 -2 -20 23 -17 21 2 29 8 28 21 -2 14 1 15 12 6 11 -9 19 -8 34 6 11 10 20 13 20 7 0 -6 6 -9 14 -6 8 3 21 -4 29 -16 12 -17 21 -20 39 -15 12 4 26 13 31 19 5 8 10 6 17 -5 7 -12 23 -16 62 -14 29 1 61 6 71 10 9 4 31 5 47 3 l30 -5 0 77 0 77 -126 2 c-116 2 -125 0 -122 -16z"/>
 <path d="M2353 1605 c-7 -7 -18 -15 -25 -18 -7 -2 -10 -7 -7 -11 11 -11 59 5 59 19 0 20 -13 25 -27 10z"/>
 <path d="M2414 1609 c-10 -17 13 -36 27 -22 12 12 4 33 -11 33 -5 0 -12 -5 -16 -11z"/>
 <path d="M2280 1585 c0 -8 5 -15 10 -15 6 0 10 7 10 15 0 8 -4 15 -10 15 -5 0 -10 -7 -10 -15z"/>
 <path d="M875 1573 c-11 -3 -24 -9 -29 -14 -14 -13 9 -33 26 -23 7 5 27 9 43 9 20 0 30 5 30 15 0 16 -34 22 -70 13z"/>
 <path d="M1633 1566 c-9 -11 -39 -13 -130 -9 -65 2 -124 6 -132 9 -16 5 -81 -16 -81 -27 0 -13 24 -16 95 -15 39 1 75 -1 80 -4 8 -5 56 -3 200 10 21 2 91 -8 107 -14 9 -4 21 -5 26 -2 5 3 36 1 69 -4 33 -6 79 -11 102 -12 24 -1 41 -6 41 -13 0 -7 11 -12 25 -12 15 0 25 5 25 14 0 10 -6 13 -17 9 -10 -4 -14 -3 -9 1 9 9 56 12 56 3 0 -12 92 3 97 16 9 24 -17 46 -46 38 -14 -3 -65 -8 -113 -10 -48 -1 -92 -5 -98 -9 -6 -3 -13 0 -15 8 -5 11 -33 13 -130 13 -94 -1 -125 2 -125 12 0 16 -12 15 -27 -2z"/>
 <path d="M970 1555 c0 -8 9 -15 20 -15 11 0 20 7 20 15 0 8 -9 15 -20 15 -11 0 -20 -7 -20 -15z"/>
 <path d="M1090 1556 c0 -17 1 -18 78 -21 38 -2 52 1 52 10 0 8 -8 14 -17 13 -10 0 -39 3 -65 7 -41 7 -48 5 -48 -9z"/>
 <path d="M1240 1545 c0 -8 7 -15 15 -15 8 0 15 7 15 15 0 8 -7 15 -15 15 -8 0 -15 -7 -15 -15z"/>
 <path d="M2218 1549 c-22 -12 -24 -39 -3 -39 16 0 29 22 23 39 -2 6 -9 6 -20 0z"/>
 <path d="M2150 1474 c0 -17 22 -14 28 4 2 7 -3 12 -12 12 -9 0 -16 -7 -16 -16z"/>
 <path d="M1557 1383 c-4 -3 -7 -15 -7 -25 0 -26 24 -17 28 10 3 21 -8 29 -21 15z"/>
 <path d="M1831 1334 c0 -11 3 -14 6 -6 3 7 2 16 -1 19 -3 4 -6 -2 -5 -13z"/>
 <path d="M2140 1331 c0 -11 39 -25 47 -18 3 3 2 10 -2 16 -8 13 -45 15 -45 2z"/>
 <path d="M2057 1323 c-13 -12 -7 -18 18 -19 15 -1 25 3 25 12 0 14 -31 19 -43 7z"/>
 <path d="M2247 1283 c-12 -11 -8 -23 8 -23 8 0 15 7 15 15 0 16 -12 20 -23 8z"/>
 <path d="M2140 1266 c0 -22 17 -28 24 -10 9 22 8 24 -9 24 -8 0 -15 -6 -15 -14z"/>
 <path d="M2780 1225 c0 -8 5 -15 10 -15 6 0 10 7 10 15 0 8 -4 15 -10 15 -5 0 -10 -7 -10 -15z"/>
 <path d="M2120 1220 c0 -5 5 -10 10 -10 6 0 10 5 10 10 0 6 -4 10 -10 10 -5 0 -10 -4 -10 -10z"/>
 <path d="M2370 1215 c0 -8 5 -15 10 -15 6 0 10 7 10 15 0 8 -4 15 -10 15 -5 0 -10 -7 -10 -15z"/>
 <path d="M2520 1220 c0 -5 7 -10 15 -10 8 0 15 5 15 10 0 6 -7 10 -15 10 -8 0 -15 -4 -15 -10z"/>
 <path d="M1828 1203 c7 -3 16 -2 19 1 4 3 -2 6 -13 5 -11 0 -14 -3 -6 -6z"/>
 <path d="M1918 1203 c7 -3 16 -2 19 1 4 3 -2 6 -13 5 -11 0 -14 -3 -6 -6z"/>
 <path d="M2257 1173 c-4 -3 -7 -11 -7 -17 0 -6 5 -5 12 2 6 6 9 14 7 17 -3 3 -9 2 -12 -2z"/>
 <path d="M2100 1150 c0 -5 4 -10 9 -10 5 0 12 -11 15 -25 4 -14 11 -25 16 -25 13 0 13 13 -2 45 -11 24 -38 35 -38 15z"/>
 <path d="M2160 1131 c0 -5 5 -13 10 -16 6 -3 10 -2 10 4 0 5 -4 13 -10 16 -5 3 -10 2 -10 -4z"/>
 <path d="M2213 1045 c-3 -9 -3 -18 0 -21 9 -9 27 6 27 22 0 19 -19 18 -27 -1z"/>
 </g>
<g id="layer19" fill="#3e95a2" stroke="none">
 <path d="M138 2083 c7 -3 16 -2 19 1 4 3 -2 6 -13 5 -11 0 -14 -3 -6 -6z"/>
 <path d="M188 2083 c-18 -5 -26 -43 -9 -43 6 0 23 11 38 25 25 21 26 24 8 24 -11 -1 -28 -3 -37 -6z"/>
 <path d="M300 2075 c0 -8 7 -15 15 -15 8 0 15 7 15 15 0 8 -7 15 -15 15 -8 0 -15 -7 -15 -15z"/>
 <path d="M2753 2083 c-14 -5 -18 -33 -5 -33 5 0 17 9 27 20 18 20 8 26 -22 13z"/>
 <path d="M60 2070 c0 -5 9 -10 20 -10 11 0 20 5 20 10 0 6 -9 10 -20 10 -11 0 -20 -4 -20 -10z"/>
 <path d="M11 2054 c0 -11 3 -14 6 -6 3 7 2 16 -1 19 -3 4 -6 -2 -5 -13z"/>
 <path d="M629 2046 c-3 -4 -23 -7 -43 -8 -20 -1 -36 -6 -36 -13 0 -14 99 -18 146 -6 20 6 36 4 47 -4 25 -18 183 -17 198 1 16 19 -3 42 -23 27 -7 -5 -22 -8 -33 -7 -75 8 -251 15 -256 10z"/>
 <path d="M1958 2043 c7 -3 16 -2 19 1 4 3 -2 6 -13 5 -11 0 -14 -3 -6 -6z"/>
 <path d="M2470 2035 c0 -8 5 -15 10 -15 6 0 10 7 10 15 0 8 -4 15 -10 15 -5 0 -10 -7 -10 -15z"/>
 <path d="M2610 2045 c0 -3 9 -14 20 -25 21 -21 50 -27 50 -10 0 6 -4 10 -10 10 -5 0 -10 7 -10 15 0 9 -9 15 -25 15 -14 0 -25 -2 -25 -5z"/>
 <path d="M2822 2041 c-11 -7 -11 -9 2 -14 10 -4 16 -1 16 8 0 17 -1 17 -18 6z"/>
 <path d="M473 2033 c-15 -6 -17 -29 -3 -38 14 -9 50 13 50 30 0 15 -23 18 -47 8z"/>
 <path d="M2510 2030 c0 -5 7 -10 15 -10 8 0 15 5 15 10 0 6 -7 10 -15 10 -8 0 -15 -4 -15 -10z"/>
 <path d="M37 2023 c-30 -5 -38 -37 -12 -47 8 -3 15 -12 15 -21 0 -8 9 -15 20 -15 23 0 27 -15 5 -24 -8 -3 -15 -1 -15 4 0 19 -29 10 -35 -11 -9 -26 -1 -33 22 -21 12 7 25 7 34 1 21 -13 29 -11 29 10 0 12 9 20 25 23 14 3 25 1 25 -3 0 -5 9 -9 20 -9 11 0 20 -4 20 -10 0 -5 -8 -10 -18 -10 -26 0 -72 -23 -69 -35 2 -5 21 -13 43 -16 30 -5 43 -3 56 11 9 10 22 20 28 22 7 2 9 14 5 31 -6 23 -13 27 -44 28 -20 0 -29 3 -21 6 18 7 30 23 30 42 0 7 -6 11 -14 8 -10 -4 -13 -1 -9 10 3 8 0 19 -8 24 -20 13 -29 11 -29 -6 0 -17 -34 -15 -52 3 -7 7 -14 11 -17 11 -4 -1 -18 -4 -34 -6z"/>
 <path d="M250 2022 c0 -5 8 -16 18 -24 19 -16 118 -23 126 -9 4 5 15 7 26 4 14 -4 20 0 20 11 0 11 -8 16 -27 15 -16 0 -58 2 -95 6 -38 3 -68 2 -68 -3z"/>
 <path d="M2440 2005 c0 -16 27 -32 37 -21 7 7 -16 36 -28 36 -5 0 -9 -7 -9 -15z"/>
 <path d="M2770 1986 c0 -19 6 -29 20 -33 11 -3 20 -12 20 -19 0 -8 7 -14 15 -14 8 0 15 7 15 15 0 8 -6 15 -12 15 -7 0 -23 15 -35 33 l-23 32 0 -29z"/>
 <path d="M1010 1985 c0 -8 5 -15 10 -15 6 0 10 7 10 15 0 8 -4 15 -10 15 -5 0 -10 -7 -10 -15z"/>
 <path d="M2336 1984 c-9 -22 -8 -23 14 -17 11 3 20 12 20 19 0 19 -26 18 -34 -2z"/>
 <path d="M2390 1970 c0 -5 7 -10 15 -10 8 0 15 5 15 10 0 6 -7 10 -15 10 -8 0 -15 -4 -15 -10z"/>
 <path d="M2560 1970 c0 -5 7 -10 15 -10 8 0 15 5 15 10 0 6 -7 10 -15 10 -8 0 -15 -4 -15 -10z"/>
 <path d="M2692 1950 c0 -16 3 -32 7 -34 4 -3 8 8 9 24 0 16 -3 32 -7 34 -4 3 -8 -8 -9 -24z"/>
 <path d="M2740 1965 c0 -8 5 -15 10 -15 6 0 10 7 10 15 0 8 -4 15 -10 15 -5 0 -10 -7 -10 -15z"/>
 <path d="M252 1958 c-18 -18 -14 -38 8 -38 11 0 20 -6 20 -14 0 -8 9 -18 20 -21 11 -3 20 -12 20 -20 0 -15 -31 -25 -82 -25 -35 0 -38 -2 -38 -30 0 -20 5 -30 15 -30 8 0 15 7 15 15 0 17 35 21 45 5 3 -5 1 -10 -4 -10 -6 0 -11 -7 -11 -15 0 -12 8 -14 38 -9 20 3 43 5 50 5 6 -1 20 -2 30 -3 9 0 46 3 82 7 36 4 75 7 86 7 13 -1 29 9 39 24 22 34 11 42 -23 17 -19 -14 -33 -18 -43 -12 -10 6 -10 9 -1 9 6 0 12 6 12 14 0 8 11 17 25 20 33 8 31 16 -8 45 l-32 23 40 -6 c49 -7 85 2 85 20 0 12 -24 14 -127 13 -71 -1 -148 4 -173 10 -58 14 -73 14 -88 -1z m168 -82 c-10 -5 -20 -19 -22 -33 -2 -13 -7 -22 -13 -21 -5 2 -9 13 -7 25 2 14 -4 23 -15 26 -10 3 -3 5 15 6 20 1 35 7 39 17 5 13 7 13 14 2 6 -9 2 -16 -11 -22z m86 -6 c0 -13 -7 -20 -18 -20 -10 0 -21 0 -25 -1 -5 0 -9 7 -11 15 -2 11 2 14 12 10 9 -3 16 -1 16 5 0 6 6 11 13 11 7 0 13 -9 13 -20z m-156 -65 c0 -8 -2 -15 -4 -15 -2 0 -6 7 -10 15 -3 8 -1 15 4 15 6 0 10 -7 10 -15z m100 -5 c0 -5 -2 -10 -4 -10 -3 0 -8 5 -11 10 -3 6 -1 10 4 10 6 0 11 -4 11 -10z"/>
 <path d="M1430 1957 c0 -6 -8 -16 -17 -23 -14 -10 -15 -15 -6 -25 14 -14 47 -4 40 14 -3 8 10 12 45 14 42 1 51 -2 55 -18 3 -10 10 -19 15 -19 6 0 8 9 5 20 -3 11 -1 20 4 20 5 0 9 6 9 13 0 10 -19 14 -75 13 -41 0 -75 -4 -75 -9z"/>
 <path d="M1766 1954 c-9 -22 -8 -24 9 -18 8 4 15 12 15 20 0 19 -16 18 -24 -2z"/>
 <path d="M1835 1957 c-4 -10 -3 -23 4 -30 16 -16 26 0 14 25 -10 21 -11 22 -18 5z"/>
 <path d="M1921 1954 c0 -11 3 -14 6 -6 3 7 2 16 -1 19 -3 4 -6 -2 -5 -13z"/>
 <path d="M1662 1944 c1 -9 9 -19 16 -22 9 -3 13 2 10 14 -1 9 -9 19 -16 22 -9 3 -13 -2 -10 -14z"/>
 <path d="M2620 1950 c0 -5 7 -10 15 -10 8 0 15 5 15 10 0 6 -7 10 -15 10 -8 0 -15 -4 -15 -10z"/>
 <path d="M1283 1935 c-3 -9 -3 -18 0 -22 11 -10 57 7 57 22 0 20 -49 20 -57 0z"/>
 <path d="M2150 1935 c0 -8 5 -15 10 -15 6 0 10 7 10 15 0 8 -4 15 -10 15 -5 0 -10 -7 -10 -15z"/>
 <path d="M2510 1935 c0 -8 5 -15 10 -15 6 0 10 7 10 15 0 8 -4 15 -10 15 -5 0 -10 -7 -10 -15z"/>
 <path d="M1050 1925 c0 -8 5 -15 10 -15 6 0 10 7 10 15 0 8 -4 15 -10 15 -5 0 -10 -7 -10 -15z"/>
 <path d="M1110 1925 c0 -8 5 -15 10 -15 6 0 10 7 10 15 0 8 -4 15 -10 15 -5 0 -10 -7 -10 -15z"/>
 <path d="M767 1923 c-11 -11 -8 -45 3 -38 6 4 18 1 26 -6 12 -10 20 -10 34 -1 12 7 21 8 25 2 11 -18 27 -10 22 10 -3 11 0 20 6 20 7 0 4 5 -6 11 -14 8 -22 8 -30 0 -14 -14 -47 -14 -47 -1 0 11 -23 14 -33 3z"/>
 <path d="M1960 1901 c0 -16 -6 -31 -12 -34 -10 -3 -10 -7 -1 -17 13 -14 33 -5 33 15 0 7 9 17 20 20 11 3 20 13 20 21 0 17 -12 18 -28 2 -9 -9 -12 -8 -12 5 0 9 -4 17 -10 17 -5 0 -10 -13 -10 -29z"/>
 <path d="M1190 1905 c0 -8 5 -15 10 -15 6 0 10 7 10 15 0 8 -4 15 -10 15 -5 0 -10 -7 -10 -15z"/>
 <path d="M990 1895 c0 -8 9 -15 20 -15 11 0 20 7 20 15 0 8 -9 15 -20 15 -11 0 -20 -7 -20 -15z"/>
 <path d="M1370 1875 c0 -8 5 -15 10 -15 6 0 10 7 10 15 0 8 -4 15 -10 15 -5 0 -10 -7 -10 -15z"/>
 <path d="M12 1833 c0 -35 21 -46 32 -17 3 8 10 13 15 9 6 -3 8 -12 5 -20 -4 -9 4 -19 22 -27 22 -10 28 -10 32 0 2 6 15 12 28 12 18 0 24 5 24 21 0 16 -6 20 -27 18 -50 -4 -63 0 -63 21 0 17 -6 20 -34 17 -31 -2 -34 -5 -34 -34z"/>
 <path d="M1510 1835 c0 -29 8 -32 26 -7 19 24 17 32 -6 32 -15 0 -20 -7 -20 -25z"/>
 <path d="M1860 1825 c0 -8 5 -15 10 -15 6 0 10 7 10 15 0 8 -4 15 -10 15 -5 0 -10 -7 -10 -15z"/>
 <path d="M2070 1820 c0 -5 5 -10 10 -10 6 0 10 5 10 10 0 6 -4 10 -10 10 -5 0 -10 -4 -10 -10z"/>
 </g>
<g id="layer20" fill="#000000" stroke="none">
 <path d="M0 1050 l0 -1050 1425 0 1425 0 0 1050 0 1050 -1425 0 -1425 0 0 -1050z m2840 0 l0 -1040 -1415 0 -1415 0 0 1040 0 1040 1415 0 1415 0 0 -1040z"/>
 </g>
<g id="layer21" fill="#3b909a" stroke="none">
 <path d="M1900 2078 c0 -5 -7 -8 -15 -8 -8 0 -15 -7 -15 -15 0 -12 15 -15 73 -15 80 0 150 16 145 32 -4 12 -188 18 -188 6z"/>
 <path d="M2275 2080 c3 -5 15 -10 25 -10 10 0 22 5 25 10 4 6 -7 10 -25 10 -18 0 -29 -4 -25 -10z"/>
 <path d="M2755 2083 c-11 -3 -24 -9 -29 -13 -5 -5 -20 -4 -34 1 -31 12 -52 5 -52 -16 0 -8 -4 -15 -10 -15 -5 0 -10 7 -10 16 0 10 -6 14 -14 11 -8 -3 -17 -1 -20 6 -5 9 -7 9 -12 0 -3 -7 -15 -13 -26 -13 -15 0 -19 -5 -15 -19 4 -16 -2 -21 -34 -26 -23 -4 -39 -12 -39 -20 0 -19 11 -24 64 -27 36 -2 46 -7 46 -20 0 -10 7 -18 15 -18 8 0 15 4 15 10 0 6 16 8 36 5 40 -5 56 -15 37 -22 -25 -9 -13 -33 16 -33 20 0 30 -6 34 -19 3 -14 1 -18 -9 -14 -8 3 -22 2 -31 -2 -10 -5 -25 -9 -33 -9 -26 -2 -17 -31 10 -32 77 -2 80 -3 80 -28 0 -25 21 -36 73 -36 25 0 27 3 27 40 0 22 -5 40 -10 40 -6 0 -5 8 2 20 11 16 9 22 -7 34 -18 14 -18 15 -2 16 15 0 17 11 17 95 l0 95 -32 -1 c-18 -1 -42 -3 -53 -6z m32 -103 c3 -11 14 -20 24 -20 11 0 19 -7 19 -16 0 -13 -7 -15 -31 -10 -17 3 -43 6 -58 7 -14 0 -20 3 -13 6 14 6 16 33 2 33 -5 0 -10 5 -10 10 0 6 14 10 31 10 22 0 32 -5 36 -20z m3 -85 c11 -13 8 -15 -19 -15 -31 0 -42 14 -18 23 20 9 24 8 37 -8z"/>
 <path d="M90 2072 c0 -11 69 -30 91 -25 10 3 19 12 19 19 0 10 -15 14 -55 14 -30 0 -55 -3 -55 -8z"/>
 <path d="M280 2070 c0 -5 5 -10 10 -10 6 0 10 5 10 10 0 6 -4 10 -10 10 -5 0 -10 -4 -10 -10z"/>
 <path d="M1755 2071 c-10 -17 4 -31 31 -31 19 0 25 5 22 18 -4 19 -43 29 -53 13z"/>
 <path d="M260 2025 c0 -8 5 -15 10 -15 6 0 10 7 10 15 0 8 -4 15 -10 15 -5 0 -10 -7 -10 -15z"/>
 <path d="M840 2025 c0 -17 9 -19 28 -6 11 7 10 10 -3 15 -23 9 -25 8 -25 -9z"/>
 <path d="M900 2025 c0 -8 5 -15 10 -15 6 0 10 7 10 15 0 8 -4 15 -10 15 -5 0 -10 -7 -10 -15z"/>
 <path d="M2460 2030 c0 -5 7 -10 15 -10 8 0 15 5 15 10 0 6 -7 10 -15 10 -8 0 -15 -4 -15 -10z"/>
 <path d="M350 2015 c0 -8 5 -15 10 -15 6 0 10 7 10 15 0 8 -4 15 -10 15 -5 0 -10 -7 -10 -15z"/>
 <path d="M420 2015 c0 -16 12 -18 48 -9 34 10 26 24 -13 24 -24 0 -35 -5 -35 -15z"/>
 <path d="M83 2007 c-10 -16 14 -29 48 -25 23 2 35 9 37 20 3 15 -3 18 -38 16 -22 -1 -43 -5 -47 -11z"/>
 <path d="M10 1946 c0 -56 8 -66 51 -66 31 0 23 30 -8 31 -27 2 -27 2 -3 6 56 9 70 14 70 28 0 10 -10 15 -30 15 -21 0 -28 4 -24 14 3 8 -4 16 -18 20 -37 10 -38 8 -38 -48z"/>
 <path d="M2281 1991 c-10 -6 -3 -12 23 -21 41 -13 49 -11 40 14 -7 17 -40 21 -63 7z"/>
 <path d="M2135 1980 c-15 -24 13 -34 47 -18 28 14 29 17 11 17 -12 1 -28 4 -36 7 -8 3 -18 0 -22 -6z"/>
 <path d="M1465 1970 c-10 -16 5 -28 43 -36 25 -5 32 -3 32 9 0 8 -8 17 -17 20 -10 2 -25 8 -34 12 -10 3 -20 1 -24 -5z"/>
 <path d="M1815 1970 c-22 -5 -62 -9 -88 -9 -41 -1 -48 -4 -45 -18 4 -20 26 -21 148 -10 36 3 73 6 83 6 9 1 17 8 17 16 0 8 -8 15 -17 15 -10 0 -27 2 -38 4 -11 2 -38 0 -60 -4z"/>
 <path d="M2390 1965 c0 -8 5 -15 10 -15 6 0 10 7 10 15 0 8 -4 15 -10 15 -5 0 -10 -7 -10 -15z"/>
 <path d="M1310 1956 c0 -9 7 -16 16 -16 9 0 14 5 12 12 -6 18 -28 21 -28 4z"/>
 <path d="M2260 1955 c0 -8 7 -15 15 -15 8 0 15 7 15 15 0 8 -7 15 -15 15 -8 0 -15 -7 -15 -15z"/>
 <path d="M2020 1945 c0 -17 9 -19 28 -6 11 7 10 10 -3 15 -23 9 -25 8 -25 -9z"/>
 <path d="M1270 1940 c0 -5 7 -10 15 -10 8 0 15 5 15 10 0 6 -7 10 -15 10 -8 0 -15 -4 -15 -10z"/>
 <path d="M180 1926 c0 -8 8 -15 18 -16 192 -13 242 -18 265 -28 37 -16 77 -15 77 1 0 25 -109 49 -237 53 -103 4 -123 2 -123 -10z"/>
 <path d="M1888 1914 c-14 -14 -8 -33 12 -39 27 -9 18 -21 -22 -29 -26 -5 -30 -9 -18 -16 8 -5 27 -10 42 -10 14 0 28 -5 30 -11 5 -14 38 0 38 17 0 8 7 14 16 14 12 0 15 6 10 24 -4 15 -1 26 7 29 6 2 10 7 6 10 -9 10 -113 20 -121 11z"/>
 <path d="M17 1863 c-12 -12 -7 -51 7 -56 8 -3 29 -1 48 5 91 30 101 42 42 53 -29 5 -41 2 -60 -15 l-23 -22 6 21 c5 20 -6 28 -20 14z"/>
 <path d="M160 1855 c0 -8 5 -15 10 -15 6 0 10 7 10 15 0 8 -4 15 -10 15 -5 0 -10 -7 -10 -15z"/>
 <path d="M1500 1855 c0 -8 7 -15 15 -15 8 0 15 7 15 15 0 8 -7 15 -15 15 -8 0 -15 -7 -15 -15z"/>
 <path d="M2343 1842 c-4 -10 -15 -12 -42 -6 -50 10 -156 6 -214 -8 -46 -12 -76 -32 -64 -44 8 -8 69 -7 170 1 53 5 82 4 90 -4 6 -6 49 -11 105 -11 51 0 102 -5 113 -10 13 -8 32 -7 62 1 l42 12 -27 10 c-22 9 -26 15 -22 34 5 20 2 23 -19 23 -14 0 -29 4 -32 10 -10 15 -156 9 -162 -8z"/>
 <path d="M1742 1833 c5 -25 28 -28 28 -4 0 12 -6 21 -16 21 -9 0 -14 -7 -12 -17z"/>
 <path d="M1810 1831 c0 -12 6 -21 16 -21 9 0 14 7 12 17 -5 25 -28 28 -28 4z"/>
 <path d="M450 1824 c0 -17 22 -14 28 4 2 7 -3 12 -12 12 -9 0 -16 -7 -16 -16z"/>
 <path d="M1590 1825 c0 -8 9 -15 20 -15 11 0 20 7 20 15 0 8 -9 15 -20 15 -11 0 -20 -7 -20 -15z"/>
 <path d="M2600 1829 c0 -15 33 -69 42 -69 4 0 8 7 8 15 0 8 -4 15 -10 15 -5 0 -12 11 -16 25 -6 25 -24 35 -24 14z"/>
 <path d="M163 1823 c-7 -2 -13 -11 -13 -18 0 -10 16 -14 61 -14 37 1 65 -4 69 -11 11 -18 23 5 15 29 -5 16 -16 19 -63 19 -31 0 -63 -2 -69 -5z"/>
 <path d="M1460 1815 c0 -8 7 -15 15 -15 8 0 15 7 15 15 0 8 -7 15 -15 15 -8 0 -15 -7 -15 -15z"/>
 <path d="M380 1805 c0 -17 2 -18 24 -9 23 9 20 24 -4 24 -11 0 -20 -7 -20 -15z"/>
 <path d="M330 1785 c0 -18 5 -25 20 -25 21 0 24 8 14 34 -10 25 -34 19 -34 -9z"/>
 <path d="M72 1784 c1 -9 9 -19 16 -22 9 -3 13 2 10 14 -1 9 -9 19 -16 22 -9 3 -13 -2 -10 -14z"/>
 </g>
<g id="layer22" fill="#d9d4cc" stroke="none">
 <path d="M820 1540 c0 -5 -16 -10 -35 -10 -34 0 -47 -13 -22 -23 10 -4 10 -6 0 -6 -15 -1 -18 -31 -3 -31 5 0 13 8 18 17 9 15 11 15 27 -1 13 -13 27 -16 55 -11 20 3 57 6 81 5 24 -1 55 -1 69 -2 14 0 30 -4 37 -10 7 -5 18 -6 25 -2 16 10 82 5 86 -7 2 -4 23 -6 48 -2 37 5 44 3 44 -11 0 -13 5 -16 23 -10 12 4 25 11 28 16 4 5 17 8 30 6 23 -3 23 -3 -6 -22 -16 -10 -38 -19 -49 -20 -10 -1 -21 -6 -23 -13 -3 -9 15 -11 69 -9 91 4 180 14 186 21 3 3 11 0 18 -6 8 -7 14 -7 19 1 8 13 65 13 65 0 0 -5 6 -10 14 -10 8 0 22 -7 30 -16 15 -14 17 -14 32 1 13 13 31 15 98 10 44 -3 126 -8 181 -11 136 -6 170 -10 192 -22 11 -6 35 -7 63 -1 53 10 478 11 484 0 3 -4 34 -8 69 -9 l64 -3 0 39 0 38 -296 1 c-294 2 -376 5 -481 17 -50 5 -398 26 -442 26 -11 0 -18 7 -18 20 0 13 -7 20 -20 20 -11 0 -20 -4 -20 -10 0 -5 5 -10 10 -10 6 0 10 -7 10 -15 0 -17 -45 -21 -55 -5 -3 6 -15 10 -27 10 -12 0 -22 8 -25 21 -5 18 -11 20 -41 16 -38 -7 -54 -17 -34 -24 6 -3 12 -14 12 -26 0 -21 0 -21 -20 -1 -10 10 -25 24 -32 29 -17 14 -58 17 -58 4 0 -5 -4 -9 -9 -9 -5 0 -8 8 -7 17 1 12 -7 18 -24 19 -14 1 -45 4 -70 7 -25 3 -60 1 -77 -6 -28 -9 -35 -8 -47 8 -12 17 -17 17 -61 5 -37 -10 -50 -11 -53 -2 -6 20 -25 13 -19 -7 3 -14 -2 -20 -21 -24 -26 -5 -72 17 -72 34 0 5 -4 9 -10 9 -5 0 -10 -4 -10 -10z m403 -47 c-7 -2 -19 -2 -25 0 -7 3 -2 5 12 5 14 0 19 -2 13 -5z m247 -53 c0 -5 -4 -10 -9 -10 -6 0 -13 5 -16 10 -3 6 1 10 9 10 9 0 16 -4 16 -10z"/>
 <path d="M10 1525 c0 -8 5 -15 10 -15 6 0 10 7 10 15 0 8 -4 15 -10 15 -5 0 -10 -7 -10 -15z"/>
 <path d="M183 1508 c2 -30 5 -33 36 -33 18 0 35 3 37 7 3 4 11 5 19 1 10 -3 15 1 15 11 0 9 -6 16 -12 15 -38 -5 -68 2 -68 16 0 8 -7 15 -15 15 -11 0 -14 -9 -12 -32z"/>
 <path d="M317 1499 c-9 -6 -17 -15 -17 -20 0 -6 5 -7 12 -3 7 4 47 7 90 6 64 -2 78 0 78 13 0 12 -14 15 -73 14 -40 0 -80 -5 -90 -10z"/>
 <path d="M510 1495 c0 -10 10 -15 30 -15 20 0 30 5 30 15 0 10 -10 15 -30 15 -20 0 -30 -5 -30 -15z"/>
 <path d="M636 1502 c-7 -12 5 -52 15 -52 5 0 9 9 9 20 0 16 5 18 35 15 26 -4 35 -1 35 10 0 11 -12 15 -44 15 -25 0 -47 -4 -50 -8z"/>
 <path d="M10 1485 c0 -12 14 -15 65 -15 51 0 65 3 65 15 0 12 -14 15 -65 15 -51 0 -65 -3 -65 -15z"/>
 <path d="M480 1455 c0 -8 5 -15 10 -15 6 0 10 7 10 15 0 8 -4 15 -10 15 -5 0 -10 -7 -10 -15z"/>
 <path d="M555 1441 c-12 -20 5 -29 57 -27 63 1 82 26 20 26 -22 0 -47 3 -55 6 -8 3 -18 1 -22 -5z"/>
 <path d="M880 1440 c0 -5 5 -10 10 -10 6 0 10 5 10 10 0 6 -4 10 -10 10 -5 0 -10 -4 -10 -10z"/>
 <path d="M1100 1426 c0 -9 7 -16 16 -16 17 0 14 22 -4 28 -7 2 -12 -3 -12 -12z"/>
 <path d="M770 1420 c0 -5 7 -10 15 -10 8 0 15 5 15 10 0 6 -7 10 -15 10 -8 0 -15 -4 -15 -10z"/>
 <path d="M1157 1423 c-13 -12 -7 -23 13 -23 11 0 20 7 20 15 0 15 -21 21 -33 8z"/>
 <path d="M1280 1370 c0 -5 7 -10 15 -10 8 0 15 5 15 10 0 6 -7 10 -15 10 -8 0 -15 -4 -15 -10z"/>
 <path d="M1820 1371 c0 -5 5 -13 10 -16 6 -3 10 -2 10 4 0 5 -4 13 -10 16 -5 3 -10 2 -10 -4z"/>
 <path d="M1570 1345 c0 -8 5 -15 10 -15 6 0 10 7 10 15 0 8 -4 15 -10 15 -5 0 -10 -7 -10 -15z"/>
 <path d="M1540 1330 c0 -5 5 -10 10 -10 6 0 10 5 10 10 0 6 -4 10 -10 10 -5 0 -10 -4 -10 -10z"/>
 <path d="M1770 1320 c0 -5 7 -10 15 -10 8 0 15 5 15 10 0 6 -7 10 -15 10 -8 0 -15 -4 -15 -10z"/>
 <path d="M2028 1316 c-23 -17 -23 -36 0 -36 15 0 52 32 52 45 0 10 -36 4 -52 -9z"/>
 <path d="M2310 1315 c0 -8 9 -15 20 -15 11 0 20 7 20 15 0 8 -9 15 -20 15 -11 0 -20 -7 -20 -15z"/>
 <path d="M1636 1305 c-9 -23 -8 -24 14 -18 12 3 19 10 17 16 -6 18 -24 19 -31 2z"/>
 <path d="M398 1303 c-10 -2 -18 -11 -18 -20 0 -10 6 -13 16 -9 9 3 20 6 25 6 5 0 9 7 9 15 0 15 -2 16 -32 8z"/>
 <path d="M2272 1286 c-8 -18 -16 -22 -36 -19 -19 4 -26 1 -26 -11 0 -9 7 -16 16 -16 23 0 74 32 74 47 0 23 -17 22 -28 -1z"/>
 <path d="M2720 1300 c0 -5 7 -10 15 -10 8 0 15 5 15 10 0 6 -7 10 -15 10 -8 0 -15 -4 -15 -10z"/>
 <path d="M2078 1293 c7 -3 16 -2 19 1 4 3 -2 6 -13 5 -11 0 -14 -3 -6 -6z"/>
 <path d="M850 1250 c0 -5 10 -10 23 -10 18 0 19 2 7 10 -19 13 -30 13 -30 0z"/>
 <path d="M1420 1245 c0 -8 7 -15 15 -15 8 0 15 7 15 15 0 8 -7 15 -15 15 -8 0 -15 -7 -15 -15z"/>
 <path d="M1660 1245 c0 -17 9 -19 28 -6 11 7 10 10 -3 15 -23 9 -25 8 -25 -9z"/>
 <path d="M2483 1253 c-14 -5 -18 -55 -6 -66 4 -4 13 7 20 24 20 48 17 55 -14 42z"/>
 <path d="M60 1235 c0 -8 5 -15 10 -15 6 0 10 7 10 15 0 8 -4 15 -10 15 -5 0 -10 -7 -10 -15z"/>
 <path d="M1506 1241 c-7 -11 14 -51 27 -51 5 0 7 12 5 27 -3 28 -22 41 -32 24z"/>
 <path d="M2600 1240 c-12 -7 -8 -11 18 -16 17 -4 32 -10 32 -15 0 -5 8 -9 18 -9 9 0 13 4 7 8 -5 4 -10 14 -10 22 0 18 -43 25 -65 10z"/>
 <path d="M2754 1239 c-3 -6 -17 -8 -30 -5 -18 5 -24 2 -24 -9 0 -9 6 -15 13 -13 6 2 27 -8 46 -21 l34 -25 -6 33 c-4 19 -7 37 -7 42 0 13 -17 11 -26 -2z"/>
 <path d="M932 1228 c3 -7 13 -15 22 -16 12 -3 17 1 14 10 -3 7 -13 15 -22 16 -12 3 -17 -1 -14 -10z"/>
 <path d="M2267 1234 c-19 -19 -4 -29 41 -28 76 2 82 3 82 20 0 12 -6 14 -32 8 -39 -8 -48 -8 -69 0 -8 4 -18 3 -22 0z"/>
 <path d="M2420 1225 c0 -8 5 -15 10 -15 6 0 10 7 10 15 0 8 -4 15 -10 15 -5 0 -10 -7 -10 -15z"/>
 <path d="M1895 1220 l-30 -7 26 -7 c15 -4 35 -7 45 -6 11 1 21 2 24 1 3 -1 30 -4 60 -6 53 -5 92 6 77 21 -10 10 -163 13 -202 4z"/>
 <path d="M1367 1213 c-13 -12 -7 -23 13 -23 11 0 20 7 20 15 0 15 -21 21 -33 8z"/>
 <path d="M1595 1210 c-7 -12 12 -40 27 -40 13 0 6 43 -9 47 -6 2 -14 -1 -18 -7z"/>
 <path d="M1826 1206 c21 -15 30 -14 19 3 -3 6 -14 11 -23 11 -13 0 -13 -2 4 -14z"/>
 <path d="M350 1185 c0 -10 10 -15 30 -15 20 0 30 5 30 15 0 10 -10 15 -30 15 -20 0 -30 -5 -30 -15z"/>
 <path d="M2507 1193 c-13 -12 -7 -23 13 -23 11 0 20 7 20 15 0 15 -21 21 -33 8z"/>
 <path d="M680 1155 c0 -8 5 -15 10 -15 6 0 10 7 10 15 0 8 -4 15 -10 15 -5 0 -10 -7 -10 -15z"/>
 <path d="M1124 1156 c-9 -10 -7 -15 7 -24 10 -6 21 -8 24 -3 3 5 14 7 25 4 14 -4 20 0 20 12 0 14 -6 16 -27 11 -14 -4 -29 -3 -32 2 -4 6 -11 5 -17 -2z"/>
 <path d="M1645 1151 c-8 -26 1 -39 16 -24 8 8 8 17 1 29 -9 16 -10 15 -17 -5z"/>
 <path d="M850 1145 c0 -8 5 -15 10 -15 6 0 10 7 10 15 0 8 -4 15 -10 15 -5 0 -10 -7 -10 -15z"/>
 <path d="M1220 1145 c0 -8 5 -15 10 -15 6 0 10 7 10 15 0 8 -4 15 -10 15 -5 0 -10 -7 -10 -15z"/>
 <path d="M2040 1135 c0 -8 5 -15 10 -15 6 0 10 7 10 15 0 8 -4 15 -10 15 -5 0 -10 -7 -10 -15z"/>
 <path d="M2252 1130 c-16 -25 -15 -30 2 -30 20 0 29 17 19 35 -7 12 -10 11 -21 -5z"/>
 <path d="M2820 1135 c0 -8 5 -15 10 -15 6 0 10 7 10 15 0 8 -4 15 -10 15 -5 0 -10 -7 -10 -15z"/>
 <path d="M1682 1124 c4 -24 58 -33 58 -10 0 9 -6 16 -14 16 -8 0 -22 3 -31 6 -13 5 -16 2 -13 -12z"/>
 </g>
<g id="layer23" fill="#90a9ad" stroke="none">
 <path d="M1308 2078 c9 -9 15 -9 24 0 9 9 7 12 -12 12 -19 0 -21 -3 -12 -12z"/>
 <path d="M525 2071 c-18 -4 -31 -14 -33 -25 -3 -13 1 -17 15 -13 10 3 37 9 61 12 26 4 42 12 42 21 0 15 -31 17 -85 5z"/>
 <path d="M720 2070 c0 -5 5 -10 10 -10 6 0 10 5 10 10 0 6 -4 10 -10 10 -5 0 -10 -4 -10 -10z"/>
 <path d="M1090 2065 c0 -8 7 -15 15 -15 8 0 15 7 15 15 0 8 -7 15 -15 15 -8 0 -15 -7 -15 -15z"/>
 <path d="M705 1685 c-38 -7 -89 -14 -112 -14 -41 -1 -43 -3 -43 -31 0 -25 5 -31 33 -38 28 -7 22 -9 -48 -17 -44 -4 -91 -7 -105 -7 -14 0 -27 -3 -30 -8 -5 -8 -73 -15 -95 -10 -5 1 -39 1 -74 0 -44 -1 -66 2 -72 12 -8 11 -11 11 -18 -1 -7 -10 -25 -14 -60 -12 -39 1 -51 -1 -51 -13 0 -12 38 -15 248 -16 496 -4 490 -4 507 10 19 16 306 21 394 6 66 -11 131 -1 131 19 0 7 -6 15 -12 18 -7 2 9 3 36 1 26 -1 57 2 67 9 13 8 24 8 43 -2 19 -11 32 -11 57 -2 17 6 33 11 35 11 1 0 0 -9 -3 -20 -6 -24 24 -29 33 -5 4 8 17 15 29 15 13 0 27 5 30 10 4 6 14 9 23 6 29 -9 192 -9 312 0 63 5 132 9 153 8 20 0 37 4 37 9 0 5 6 7 14 4 12 -5 26 11 26 30 0 3 -79 3 -175 -1 -153 -6 -175 -4 -175 9 0 8 -6 15 -12 16 -7 0 -41 3 -76 5 -44 4 -69 1 -79 -8 -13 -10 -17 -10 -20 0 -6 17 -23 15 -23 -4 0 -11 -6 -14 -20 -9 -11 4 -20 2 -20 -4 0 -6 -18 -11 -40 -11 -30 0 -40 4 -40 16 0 15 -10 16 -80 11 -44 -4 -80 -2 -80 2 0 15 -33 22 -41 9 -6 -10 -17 -10 -50 -1 -45 12 -125 8 -143 -6 -6 -5 -38 -11 -70 -13 -33 -3 -62 -10 -64 -16 -2 -7 -10 -12 -18 -12 -10 0 -13 7 -8 23 5 23 3 24 -63 30 -87 9 -103 8 -188 -8z m110 -35 c11 -5 14 -9 6 -9 -7 -1 -24 -12 -37 -26 -22 -24 -28 -25 -76 -19 l-53 7 34 9 c26 7 32 13 28 29 -4 17 0 19 36 18 23 0 51 -4 62 -9z m-155 -10 c0 -5 -7 -10 -16 -10 -8 0 -12 5 -9 10 3 6 10 10 16 10 5 0 9 -4 9 -10z m535 1 c-6 -5 -44 -12 -85 -15 -51 -4 -65 -3 -42 3 18 5 36 11 39 15 4 3 27 6 52 6 28 0 41 -4 36 -9z m-340 -36 c-16 -7 -34 -10 -39 -7 -12 7 21 21 49 20 15 0 13 -3 -10 -13z"/>
 <path d="M2200 1676 c0 -8 5 -18 10 -21 6 -3 10 3 10 14 0 12 -4 21 -10 21 -5 0 -10 -6 -10 -14z"/>
 <path d="M460 1645 c0 -7 11 -12 25 -12 14 0 25 5 25 12 0 7 -11 13 -25 13 -14 0 -25 -6 -25 -13z"/>
 <path d="M2231 1628 c-14 -31 -10 -45 9 -33 6 4 65 8 130 9 117 1 151 10 136 35 -8 13 -57 14 -108 2 -27 -6 -38 -6 -38 3 0 7 -21 11 -58 12 -55 1 -59 -1 -71 -28z"/>
 <path d="M380 1629 c0 -16 26 -39 44 -39 9 0 16 7 16 15 0 8 -7 15 -15 15 -8 0 -15 5 -15 10 0 6 -7 10 -15 10 -8 0 -15 -5 -15 -11z"/>
 <path d="M2524 1629 c-3 -6 -2 -15 3 -20 12 -12 53 1 53 17 0 17 -46 19 -56 3z"/>
 <path d="M2600 1625 c0 -8 9 -15 20 -15 11 0 20 7 20 15 0 8 -9 15 -20 15 -11 0 -20 -7 -20 -15z"/>
 <path d="M2712 1631 c-11 -7 -10 -10 3 -15 23 -9 25 -8 25 9 0 17 -9 19 -28 6z"/>
 <path d="M1415 1569 c-4 -11 -4 -23 0 -27 7 -7 25 17 25 36 0 20 -18 14 -25 -9z"/>
 <path d="M180 1185 c0 -8 5 -15 10 -15 6 0 10 7 10 15 0 8 -4 15 -10 15 -5 0 -10 -7 -10 -15z"/>
 <path d="M810 1145 c0 -8 7 -15 15 -15 8 0 15 7 15 15 0 8 -7 15 -15 15 -8 0 -15 -7 -15 -15z"/>
 <path d="M758 1143 c7 -3 16 -2 19 1 4 3 -2 6 -13 5 -11 0 -14 -3 -6 -6z"/>
 <path d="M1110 1131 c0 -5 5 -13 10 -16 6 -3 10 -2 10 4 0 5 -4 13 -10 16 -5 3 -10 2 -10 -4z"/>
 <path d="M1528 1133 c7 -3 16 -2 19 1 4 3 -2 6 -13 5 -11 0 -14 -3 -6 -6z"/>
 <path d="M350 1080 c0 -5 5 -10 10 -10 6 0 10 5 10 10 0 6 -4 10 -10 10 -5 0 -10 -4 -10 -10z"/>
 </g>
<g id="layer24" fill="#75a6ae" stroke="none">
 <path d="M386 2078 c-11 -6 -37 -10 -58 -10 -27 1 -38 -2 -38 -13 0 -11 14 -14 65 -13 57 1 65 4 65 20 0 14 6 19 23 16 14 -2 22 -10 22 -23 0 -15 7 -20 35 -21 35 -2 50 8 50 35 0 10 -9 12 -36 6 -24 -4 -34 -3 -29 4 9 15 -74 14 -99 -1z"/>
 <path d="M635 2083 c-11 -2 -30 -6 -42 -9 -22 -4 -33 -34 -13 -34 6 0 10 3 10 8 0 4 33 6 73 4 72 -4 127 8 127 28 0 10 -113 12 -155 3z"/>
 <path d="M1133 2083 c-13 -2 -23 -9 -23 -14 0 -16 29 -22 44 -10 11 10 16 8 24 -5 7 -13 16 -15 38 -10 75 18 143 26 187 20 48 -6 67 8 25 20 -25 6 -260 6 -295 -1z"/>
 <path d="M1608 2083 c7 -3 16 -2 19 1 4 3 -2 6 -13 5 -11 0 -14 -3 -6 -6z"/>
 <path d="M1738 2083 c7 -3 16 -2 19 1 4 3 -2 6 -13 5 -11 0 -14 -3 -6 -6z"/>
 <path d="M1028 2073 c-10 -2 -18 -11 -18 -20 0 -12 7 -14 31 -9 17 3 35 6 40 6 5 0 9 7 9 15 0 15 -25 18 -62 8z"/>
 <path d="M1090 2025 c0 -7 14 -12 30 -13 19 0 30 4 30 13 0 9 -11 13 -30 13 -16 -1 -30 -6 -30 -13z"/>
 <path d="M1765 2031 c-8 -15 3 -31 21 -31 9 0 14 7 12 17 -4 20 -24 28 -33 14z"/>
 <path d="M1390 2015 c0 -8 5 -15 10 -15 6 0 10 7 10 15 0 8 -4 15 -10 15 -5 0 -10 -7 -10 -15z"/>
 <path d="M1310 2005 c0 -8 5 -15 10 -15 6 0 10 7 10 15 0 8 -4 15 -10 15 -5 0 -10 -7 -10 -15z"/>
 <path d="M923 1765 c-3 -9 -3 -18 0 -21 9 -9 27 6 27 22 0 19 -19 18 -27 -1z"/>
 <path d="M980 1755 c0 -9 9 -15 25 -15 16 0 25 6 25 15 0 9 -9 15 -25 15 -16 0 -25 -6 -25 -15z"/>
 <path d="M1662 1750 c-7 -11 -19 -20 -27 -20 -8 0 -18 -6 -22 -14 -12 -21 -193 -10 -193 11 0 12 -8 14 -37 8 -21 -4 -70 -7 -108 -6 -39 1 -94 -5 -122 -12 -35 -10 -68 -11 -105 -5 -140 22 -138 22 -138 4 0 -9 -8 -16 -19 -16 -22 0 -34 -25 -25 -54 l6 -21 -23 21 c-13 12 -34 25 -46 29 -13 3 -23 13 -23 21 0 11 -6 13 -20 9 -11 -4 -20 -2 -20 4 0 14 -87 15 -95 2 -3 -6 -29 -9 -57 -9 -32 1 -53 -3 -56 -10 -5 -17 -22 -15 -22 3 0 16 -36 21 -42 5 -2 -6 -19 -6 -45 0 -30 7 -58 6 -90 -2 -27 -6 -106 -12 -178 -14 -72 -1 -133 -3 -137 -3 -5 -1 -8 -33 -8 -71 l0 -70 195 1 c128 0 195 4 195 11 0 6 9 8 21 5 12 -3 33 -1 48 5 14 5 91 12 170 14 94 2 147 7 151 15 6 8 9 8 14 0 9 -14 53 -14 61 -1 4 6 12 7 22 1 16 -8 81 -5 113 6 8 3 47 6 85 8 94 3 205 25 205 40 0 9 24 12 80 12 59 -1 80 -4 80 -14 0 -7 5 -13 10 -13 6 0 10 7 10 15 0 19 10 19 24 1 9 -13 23 -13 91 -3 44 7 85 15 90 19 25 16 144 8 170 -12 8 -6 135 -6 253 -1 6 1 12 6 12 12 0 7 8 18 18 25 16 13 16 15 -3 30 -14 11 -33 13 -65 9 -70 -9 -147 -14 -241 -16 -76 -1 -89 1 -108 20 -11 11 -21 26 -21 31 0 17 -14 11 -28 -10z m431 -67 c-7 -2 -21 -2 -30 0 -10 3 -4 5 12 5 17 0 24 -2 18 -5z m-858 -13 c7 -12 -22 -12 -50 0 -17 7 -15 9 12 9 17 1 35 -3 38 -9z m-625 -35 c0 -8 -4 -15 -10 -15 -5 0 -10 7 -10 15 0 8 5 15 10 15 6 0 10 -7 10 -15z m90 5 c0 -5 -5 -10 -11 -10 -5 0 -7 5 -4 10 3 6 8 10 11 10 2 0 4 -4 4 -10z"/>
 <path d="M813 1733 c-17 -6 -16 -30 1 -36 16 -6 36 11 36 30 0 13 -15 16 -37 6z"/>
 <path d="M2265 1706 c-31 -22 -5 -42 56 -44 42 -1 50 2 45 14 -3 9 -6 22 -6 30 0 20 -18 18 -22 -3 -3 -16 -4 -16 -20 0 -20 21 -29 21 -53 3z"/>
 <path d="M2190 1704 c0 -8 32 -33 43 -34 14 0 7 28 -9 34 -20 8 -34 8 -34 0z"/>
 <path d="M2411 1692 c-7 -6 -11 -18 -7 -28 5 -17 17 -19 98 -19 82 0 93 2 96 18 3 15 0 18 -18 12 -11 -4 -27 -2 -34 4 -17 14 -118 24 -135 13z"/>
 <path d="M2713 1663 c-20 -8 -15 -23 7 -23 11 0 20 7 20 15 0 15 -6 17 -27 8z"/>
 <path d="M2815 1660 c-7 -12 2 -30 16 -30 5 0 9 9 9 20 0 21 -15 27 -25 10z"/>
 <path d="M2640 1645 c0 -8 5 -15 10 -15 6 0 10 7 10 15 0 8 -4 15 -10 15 -5 0 -10 -7 -10 -15z"/>
 <path d="M1300 1635 c0 -9 9 -15 25 -15 16 0 25 6 25 15 0 9 -9 15 -25 15 -16 0 -25 -6 -25 -15z"/>
 </g>
<g id="layer25" fill="#adafae" stroke="none">
 <path d="M1660 1652 c-20 -25 -65 -54 -72 -46 -9 8 -186 9 -194 1 -12 -12 -72 -8 -77 6 -3 9 -10 7 -25 -7 -16 -13 -32 -17 -64 -14 -32 3 -48 -1 -65 -16 -35 -30 -28 -39 22 -33 36 5 45 4 45 -8 0 -8 5 -15 10 -15 6 0 10 8 10 17 0 15 2 15 14 -2 11 -16 30 -20 110 -23 84 -4 96 -2 96 12 0 9 5 16 10 16 6 0 10 -7 10 -15 0 -8 9 -15 20 -15 11 0 20 -7 20 -15 0 -8 5 -15 10 -15 6 0 10 7 10 15 0 21 27 19 47 -5 20 -23 33 -26 33 -6 0 22 46 25 59 4 8 -13 18 -17 32 -13 12 4 27 1 37 -9 10 -8 33 -15 52 -15 19 1 107 -4 194 -10 144 -9 162 -8 188 7 28 17 30 16 48 -8 21 -28 1 -27 453 -21 l147 2 0 29 c0 47 -8 57 -40 52 -17 -2 -36 1 -43 6 -14 12 -57 5 -57 -9 0 -14 -20 -10 -37 7 -14 13 -14 17 -2 25 19 12 29 11 29 -2 0 -5 10 -3 22 5 12 9 31 16 41 16 14 0 18 5 14 20 -4 15 0 20 14 20 10 0 19 7 19 15 0 17 -21 19 -67 6 -20 -6 -35 -6 -38 0 -3 5 -65 7 -138 5 -73 -2 -140 0 -149 5 -10 5 -34 6 -55 1 -42 -9 -103 2 -103 19 0 7 -17 9 -47 5 -27 -3 -82 -8 -123 -11 -41 -3 -104 -8 -140 -11 -56 -6 -174 -8 -247 -5 -13 1 -23 5 -23 10 0 5 15 8 33 7 22 -1 32 3 32 14 0 23 -57 24 -75 2z m-295 -102 c3 -5 -1 -10 -10 -10 -9 0 -13 5 -10 10 3 6 8 10 10 10 2 0 7 -4 10 -10z m1243 -12 c2 6 8 12 14 12 6 0 7 -8 4 -17 -4 -9 -1 -20 6 -24 18 -11 -73 -3 -102 9 -24 10 -24 11 -2 11 12 1 22 5 22 11 0 6 11 5 27 -3 21 -9 27 -9 31 1z m-438 -8 c0 -5 -12 -10 -27 -10 -22 0 -25 2 -13 10 20 13 40 13 40 0z m-137 -7 c-7 -2 -21 -2 -30 0 -10 3 -4 5 12 5 17 0 24 -2 18 -5z m297 -24 c0 -5 -4 -9 -10 -9 -5 0 -10 7 -10 16 0 8 5 12 10 9 6 -3 10 -10 10 -16z m140 17 c0 -3 -4 -8 -10 -11 -5 -3 -10 -1 -10 4 0 6 5 11 10 11 6 0 10 -2 10 -4z"/>
 <path d="M1119 1586 c-3 -3 -33 -9 -68 -15 -47 -8 -68 -7 -83 2 -17 10 -22 9 -31 -4 -9 -14 -15 -15 -35 -6 -17 8 -25 8 -31 -1 -5 -8 -16 -9 -40 -2 -33 9 -51 6 -51 -9 0 -11 100 -32 113 -24 6 3 62 6 124 5 62 0 113 3 113 7 0 4 -6 13 -12 20 -11 10 -10 11 5 6 12 -5 17 -2 17 9 0 15 -11 21 -21 12z"/>
 <path d="M2820 1580 c0 -5 -7 -10 -15 -10 -8 0 -15 -4 -15 -10 0 -5 11 -10 25 -10 18 0 25 5 25 20 0 11 -4 20 -10 20 -5 0 -10 -4 -10 -10z"/>
 <path d="M650 1535 c0 -18 5 -25 20 -25 11 0 20 4 20 9 0 5 3 16 6 25 5 12 0 16 -20 16 -21 0 -26 -5 -26 -25z"/>
 <path d="M220 1535 c0 -12 14 -15 65 -15 51 0 65 3 65 15 0 12 -14 15 -65 15 -51 0 -65 -3 -65 -15z"/>
 <path d="M365 1541 c-12 -21 1 -24 100 -23 92 0 116 4 102 18 -13 13 -194 17 -202 5z"/>
 <path d="M710 1535 c0 -9 9 -15 25 -15 16 0 25 6 25 15 0 9 -9 15 -25 15 -16 0 -25 -6 -25 -15z"/>
 <path d="M2210 1313 c0 -13 -11 -22 -32 -28 -18 -6 -34 -17 -36 -26 -4 -22 27 -33 47 -15 9 7 27 17 40 21 13 4 19 10 13 14 -6 3 -10 15 -9 25 1 10 -4 21 -10 23 -8 3 -13 -3 -13 -14z"/>
 <path d="M1737 1263 c-4 -3 -7 -11 -7 -17 0 -6 5 -5 12 2 6 6 9 14 7 17 -3 3 -9 2 -12 -2z"/>
 <path d="M160 1185 c0 -8 5 -15 10 -15 6 0 10 7 10 15 0 8 -4 15 -10 15 -5 0 -10 -7 -10 -15z"/>
 <path d="M200 1185 c0 -11 12 -15 45 -15 33 0 45 4 45 15 0 11 -12 15 -45 15 -33 0 -45 -4 -45 -15z"/>
 <path d="M310 1185 c0 -8 5 -15 10 -15 6 0 10 7 10 15 0 8 -4 15 -10 15 -5 0 -10 -7 -10 -15z"/>
 <path d="M500 1175 c0 -8 5 -15 10 -15 6 0 10 7 10 15 0 8 -4 15 -10 15 -5 0 -10 -7 -10 -15z"/>
 <path d="M590 1165 c0 -8 5 -15 10 -15 6 0 10 7 10 15 0 8 -4 15 -10 15 -5 0 -10 -7 -10 -15z"/>
 <path d="M2102 1158 c-19 -19 -14 -27 23 -34 44 -8 54 0 30 26 -21 23 -36 25 -53 8z"/>
 <path d="M927 1153 c-12 -11 -8 -23 8 -23 8 0 15 7 15 15 0 16 -12 20 -23 8z"/>
 <path d="M990 1140 c-12 -8 -11 -10 8 -10 12 0 22 5 22 10 0 13 -11 13 -30 0z"/>
 <path d="M1490 1135 c0 -8 14 -12 40 -11 22 0 40 5 40 11 0 6 -18 11 -40 11 -26 1 -40 -3 -40 -11z"/>
 <path d="M2440 1135 c0 -7 48 -11 135 -13 114 -2 135 0 135 13 0 13 -21 15 -135 13 -87 -2 -135 -6 -135 -13z"/>
 <path d="M1660 1110 c0 -5 7 -10 15 -10 8 0 15 5 15 10 0 6 -7 10 -15 10 -8 0 -15 -4 -15 -10z"/>
 </g>
<g id="layer26" fill="#63a2a8" stroke="none">
 <path d="M364 2081 c4 -5 -3 -7 -14 -4 -12 3 -20 0 -20 -6 0 -8 -12 -11 -32 -9 -24 2 -33 -1 -33 -12 0 -11 15 -16 63 -18 35 -2 69 2 76 7 9 8 18 6 32 -4 26 -19 74 -20 74 0 0 8 -6 15 -14 15 -7 0 -19 7 -26 15 -8 9 -9 15 -2 15 6 0 14 -4 17 -10 3 -5 17 -10 31 -10 15 0 24 -6 24 -15 0 -8 7 -15 15 -15 8 0 15 7 15 15 0 8 5 15 10 15 6 0 10 -4 10 -10 0 -5 16 -9 35 -8 27 1 35 5 35 20 0 15 5 18 19 13 11 -3 22 -1 26 5 4 7 -51 10 -170 10 -103 0 -174 -4 -171 -9z"/>
 <path d="M763 2083 c-7 -2 -13 -11 -13 -19 0 -21 170 -17 199 5 19 15 14 16 -77 18 -53 1 -103 -1 -109 -4z"/>
 <path d="M1092 2076 c-9 -12 -18 -13 -38 -6 -33 13 -114 -6 -114 -27 0 -10 7 -14 20 -10 11 3 20 2 20 -3 0 -4 -9 -10 -20 -13 -11 -3 -20 -12 -20 -21 0 -9 -4 -16 -10 -16 -5 0 -10 5 -10 10 0 6 -3 9 -7 8 -5 0 -16 2 -26 7 -17 7 -103 2 -179 -11 -27 -4 -38 -3 -38 6 0 10 -28 11 -117 6 -136 -8 -153 -12 -153 -32 0 -12 12 -15 55 -13 30 1 58 0 62 -4 3 -4 40 -7 82 -8 66 0 73 -2 51 -12 -48 -22 -54 -49 -7 -36 17 4 62 11 100 14 47 5 67 11 67 20 0 9 -15 15 -42 18 -41 3 -41 4 10 5 39 2 52 -2 52 -12 0 -19 27 -28 48 -17 10 5 24 6 32 1 8 -4 44 -4 79 0 35 5 70 6 77 3 17 -6 31 27 15 36 -6 4 -36 7 -66 7 -56 -1 -74 10 -32 18 44 10 184 9 160 -1 -7 -2 -13 -11 -13 -19 0 -22 86 -19 99 4 8 14 12 15 22 5 16 -16 41 -17 56 -2 11 11 35 16 103 22 33 4 97 -10 136 -28 19 -9 44 -12 63 -9 42 9 41 34 -1 35 -28 1 -29 2 -8 6 14 2 31 12 39 21 10 12 15 14 18 5 3 -7 11 -13 19 -13 10 0 13 -7 8 -25 -7 -28 1 -32 22 -10 8 8 22 11 31 8 12 -5 15 -2 10 10 -3 9 -2 17 3 17 6 0 10 5 10 11 0 7 -10 9 -25 5 -14 -4 -25 -2 -25 2 0 5 -15 14 -32 20 -26 8 -28 10 -11 11 12 1 25 6 29 12 4 8 -50 9 -192 4 -274 -8 -278 -9 -286 -20 -5 -6 -11 -5 -17 4 -13 20 -93 25 -109 7z m78 -1 c0 -9 -44 -23 -54 -18 -4 3 -2 9 5 14 15 10 49 12 49 4z m447 -1 c-3 -3 -12 -4 -19 -1 -8 3 -5 6 6 6 11 1 17 -2 13 -5z m-87 -34 c0 -5 -4 -10 -9 -10 -5 0 -18 -3 -28 -7 -16 -6 -16 -5 -4 10 15 19 41 23 41 7z m-330 -40 c0 -13 -11 -13 -30 0 -12 8 -11 10 8 10 12 0 22 -4 22 -10z"/>
 <path d="M1768 2083 c7 -3 16 -2 19 1 4 3 -2 6 -13 5 -11 0 -14 -3 -6 -6z"/>
 <path d="M230 2070 c0 -5 7 -10 15 -10 8 0 15 5 15 10 0 6 -7 10 -15 10 -8 0 -15 -4 -15 -10z"/>
 <path d="M1940 2070 c0 -5 5 -10 10 -10 6 0 10 5 10 10 0 6 -4 10 -10 10 -5 0 -10 -4 -10 -10z"/>
 <path d="M2376 2064 c-10 -25 -7 -34 10 -34 18 0 44 23 44 39 0 17 -47 13 -54 -5z"/>
 <path d="M2540 2065 c0 -8 5 -15 10 -15 6 0 10 7 10 15 0 8 -4 15 -10 15 -5 0 -10 -7 -10 -15z"/>
 <path d="M70 2055 c0 -8 5 -15 10 -15 6 0 10 7 10 15 0 8 -4 15 -10 15 -5 0 -10 -7 -10 -15z"/>
 <path d="M2137 2056 c-4 -10 -5 -21 -2 -24 9 -9 17 6 13 25 -3 17 -4 17 -11 -1z"/>
 <path d="M2220 2055 c0 -8 5 -15 10 -15 6 0 10 -5 10 -11 0 -6 -9 -8 -20 -4 -22 7 -120 -14 -120 -26 0 -11 84 -17 91 -6 4 5 16 6 28 2 12 -3 21 -2 21 4 0 11 38 26 58 23 6 -2 12 5 12 14 0 10 -5 14 -15 10 -8 -3 -21 1 -29 9 -19 19 -46 19 -46 0z"/>
 <path d="M180 2045 c0 -8 7 -15 15 -15 8 0 15 7 15 15 0 8 -7 15 -15 15 -8 0 -15 -7 -15 -15z"/>
 <path d="M1793 2052 c-19 -12 -4 -61 21 -63 220 -11 266 -10 266 5 0 13 -13 16 -64 16 -61 0 -64 1 -58 22 5 20 2 21 -36 15 -23 -3 -42 -1 -42 4 0 11 -70 12 -87 1z"/>
 <path d="M2030 2045 c0 -10 10 -15 30 -15 20 0 30 5 30 15 0 10 -10 15 -30 15 -20 0 -30 -5 -30 -15z"/>
 <path d="M2433 1915 c-16 -17 -17 -35 -3 -35 6 0 10 4 10 9 0 5 10 13 21 16 17 6 19 9 8 16 -18 11 -22 11 -36 -6z"/>
 <path d="M2190 1906 c0 -8 -3 -23 -6 -33 -5 -16 -4 -16 10 1 18 22 21 46 6 46 -5 0 -10 -6 -10 -14z"/>
 <path d="M2260 1895 c0 -12 13 -15 55 -15 42 0 55 3 55 15 0 12 -13 15 -55 15 -42 0 -55 -3 -55 -15z"/>
 <path d="M2764 1899 c-10 -17 13 -36 27 -22 12 12 4 33 -11 33 -5 0 -12 -5 -16 -11z"/>
 <path d="M1810 1890 c0 -5 5 -10 10 -10 6 0 10 5 10 10 0 6 -4 10 -10 10 -5 0 -10 -4 -10 -10z"/>
 <path d="M1850 1885 c0 -8 5 -15 10 -15 6 0 10 7 10 15 0 8 -4 15 -10 15 -5 0 -10 -7 -10 -15z"/>
 <path d="M926 1883 c-1 -1 -38 -4 -82 -6 -51 -3 -79 -8 -78 -16 1 -6 2 -20 3 -31 1 -16 8 -20 41 -20 29 0 40 4 40 15 0 8 5 15 10 15 6 0 10 -5 10 -11 0 -8 11 -9 33 -4 17 4 39 7 47 7 27 -1 90 31 90 44 0 10 -15 13 -56 11 -31 -1 -57 -3 -58 -4z"/>
 <path d="M1110 1865 c0 -8 5 -15 10 -15 6 0 10 -7 10 -15 0 -23 17 -18 24 8 9 34 8 37 -19 37 -16 0 -25 -6 -25 -15z"/>
 <path d="M1203 1874 c-28 -12 -13 -34 23 -34 28 0 35 3 32 18 -3 17 -32 25 -55 16z"/>
 <path d="M1400 1865 c0 -8 7 -15 15 -15 8 0 15 7 15 15 0 8 -7 15 -15 15 -8 0 -15 -7 -15 -15z"/>
 <path d="M2690 1865 c0 -8 5 -15 10 -15 6 0 10 7 10 15 0 8 -4 15 -10 15 -5 0 -10 -7 -10 -15z"/>
 <path d="M2010 1845 c0 -8 9 -15 20 -15 11 0 20 7 20 15 0 8 -9 15 -20 15 -11 0 -20 -7 -20 -15z"/>
 <path d="M710 1835 c0 -8 5 -15 10 -15 6 0 10 7 10 15 0 8 -4 15 -10 15 -5 0 -10 -7 -10 -15z"/>
 <path d="M633 1833 c-7 -2 -13 -12 -13 -20 0 -11 6 -14 23 -9 12 3 28 6 35 6 6 0 12 7 12 15 0 15 -31 19 -57 8z"/>
 <path d="M170 1785 c0 -8 5 -15 10 -15 6 0 10 7 10 15 0 8 -4 15 -10 15 -5 0 -10 -7 -10 -15z"/>
 <path d="M483 1783 c-12 -2 -23 -12 -25 -21 -2 -9 -10 -17 -18 -17 -8 -1 -49 -9 -90 -18 -75 -18 -196 -18 -297 -1 l-43 7 0 -35 0 -35 148 3 c81 3 158 5 172 5 14 0 30 5 37 10 7 6 35 4 78 -6 83 -19 111 -19 119 0 4 10 14 13 36 9 18 -4 36 -1 46 7 11 9 18 9 22 2 4 -7 58 -11 145 -11 112 -1 139 2 144 13 6 17 39 20 48 5 3 -5 20 -9 38 -9 18 0 39 -1 47 -3 8 -1 40 3 71 10 47 11 60 10 94 -4 36 -15 40 -15 51 0 12 17 74 22 74 6 0 -13 223 -13 235 -1 6 6 29 13 53 17 34 5 42 4 42 -9 0 -13 18 -16 98 -20 53 -2 109 -8 125 -12 22 -6 27 -4 27 10 0 13 3 15 13 6 18 -14 87 -11 87 4 0 7 9 15 20 18 19 5 37 33 28 42 -16 16 -153 30 -224 23 -121 -12 -266 -16 -296 -7 -15 4 -72 4 -125 -1 -259 -22 -242 -22 -236 0 6 24 -10 26 -32 4 -12 -12 -19 -13 -29 -5 -16 14 -316 13 -332 0 -18 -14 -81 -14 -99 1 -15 12 -35 11 -132 -6 -26 -5 -33 -3 -33 10 0 9 -4 16 -10 16 -5 0 -10 -7 -10 -15 0 -8 -7 -15 -15 -15 -8 0 -15 7 -15 15 0 8 -3 14 -7 14 -5 -1 -18 -4 -30 -6z"/>
 <path d="M2410 1740 c-41 -4 -85 -6 -97 -3 -17 4 -23 1 -23 -11 0 -20 11 -25 66 -29 23 -2 47 -7 54 -12 7 -4 15 -2 19 4 4 6 14 9 23 6 19 -8 64 28 54 43 -4 7 -10 11 -14 11 -4 -1 -41 -5 -82 -9z"/>
 <path d="M2700 1730 c0 -5 7 -10 15 -10 8 0 15 5 15 10 0 6 -7 10 -15 10 -8 0 -15 -4 -15 -10z"/>
 <path d="M2220 1722 c0 -11 51 -35 58 -28 2 3 2 12 -1 21 -7 15 -57 22 -57 7z"/>
 <path d="M2510 1705 c0 -8 7 -15 15 -15 8 0 15 7 15 15 0 8 -7 15 -15 15 -8 0 -15 -7 -15 -15z"/>
 <path d="M2760 1705 c0 -8 5 -15 10 -15 6 0 10 7 10 15 0 8 -4 15 -10 15 -5 0 -10 -7 -10 -15z"/>
 </g>
<g id="layer27" fill="#49929d" stroke="none">
 <path d="M10 2046 l0 -44 75 2 c41 1 75 -2 75 -6 0 -7 -52 -21 -100 -27 -13 -1 -13 -2 0 -11 8 -5 39 -8 68 -6 50 4 52 3 37 -13 -14 -16 -14 -21 0 -47 19 -37 19 -40 -3 -40 -15 0 -18 7 -16 28 2 15 0 28 -4 28 -4 0 -18 3 -31 7 -21 5 -23 3 -19 -15 7 -26 -3 -30 -55 -17 -23 6 -27 4 -27 -14 0 -12 6 -21 15 -21 14 0 18 -9 13 -27 -1 -5 -8 -7 -15 -5 -8 2 -13 -6 -13 -19 0 -14 5 -19 15 -16 8 4 17 2 20 -3 4 -6 -3 -10 -14 -10 -12 0 -21 -7 -21 -16 0 -11 6 -14 23 -8 41 13 77 12 77 -3 0 -8 6 -13 13 -10 6 2 17 -3 24 -12 9 -13 14 -13 24 -4 10 10 9 15 -1 28 -11 13 -10 14 4 9 11 -4 16 -1 16 11 0 11 -5 15 -15 11 -11 -4 -15 1 -15 17 0 20 6 22 58 25 31 1 65 5 75 8 11 3 17 0 17 -9 0 -14 20 -27 41 -27 5 0 9 7 9 15 0 8 12 22 28 32 15 10 30 22 34 27 4 6 12 5 22 -3 8 -7 20 -10 26 -6 5 3 10 -1 10 -9 0 -12 10 -16 36 -16 27 0 37 -5 41 -20 6 -21 29 -28 35 -10 2 5 27 15 56 22 54 13 69 33 30 41 -13 3 20 5 72 5 106 0 166 5 176 14 3 4 17 2 31 -3 14 -5 30 -6 36 -2 7 4 32 9 57 10 217 9 221 10 235 29 11 15 16 17 26 7 7 -7 29 -13 49 -14 l35 -1 -27 -10 c-16 -5 -28 -16 -28 -23 0 -15 -40 -26 -99 -27 -40 0 -57 -20 -28 -31 6 -3 -2 -6 -20 -6 -42 -1 -63 -10 -63 -27 0 -13 48 -14 143 -5 4 1 7 11 7 22 0 18 2 19 15 9 8 -7 15 -18 15 -25 0 -19 49 -25 59 -8 6 12 14 13 47 3 55 -17 133 -23 147 -13 16 12 77 16 77 4 0 -13 93 -19 145 -9 25 4 65 12 90 16 25 5 66 5 93 0 82 -16 132 -18 132 -7 0 6 -9 13 -20 16 -11 3 -20 9 -20 13 0 14 31 20 108 20 l77 0 -30 -20 c-27 -18 -31 -18 -41 -4 -15 18 -64 9 -64 -13 0 -10 6 -12 20 -8 11 3 20 2 20 -2 0 -5 26 -9 58 -9 31 -1 76 -7 100 -14 29 -10 45 -11 50 -4 10 15 52 12 52 -3 0 -18 17 -16 24 2 4 11 14 13 37 8 21 -4 34 -2 39 8 7 10 13 8 28 -11 13 -16 23 -21 33 -14 17 11 129 12 129 2 0 -5 5 -8 10 -8 6 0 10 7 10 15 0 17 11 20 26 6 5 -6 28 -13 52 -17 l42 -7 0 37 c0 23 -4 35 -10 31 -6 -3 -18 2 -27 11 -17 16 -16 17 9 11 l26 -7 0 103 c0 64 -3 93 -8 77 -5 -15 -8 -18 -9 -8 -2 28 -14 31 -133 38 -5 0 -8 7 -8 15 0 8 -7 15 -16 15 -8 0 -13 4 -10 9 4 5 26 3 53 -5 64 -19 73 -18 71 11 l-2 25 -134 0 c-116 0 -133 -2 -122 -14 9 -12 8 -15 -7 -15 -10 0 -40 -3 -66 -7 -42 -6 -48 -9 -43 -27 4 -17 1 -16 -23 7 -28 27 -51 34 -51 16 0 -16 -37 -53 -47 -47 -4 2 -35 1 -68 -4 -57 -9 -190 -21 -245 -23 -14 0 -44 3 -67 7 -35 6 -43 4 -43 -8 0 -15 -20 -22 -20 -7 0 4 -4 13 -9 21 -12 18 -55 -4 -47 -25 3 -8 1 -14 -4 -14 -6 0 -10 3 -10 8 0 4 -12 12 -26 19 -32 15 -64 -1 -64 -32 -1 -18 -2 -18 -13 -4 -15 20 -38 27 -105 34 -29 3 -60 12 -68 20 -20 19 -100 14 -214 -14 -94 -23 -191 -42 -231 -45 -14 -2 -30 -6 -36 -9 -7 -4 -14 -3 -17 2 -9 13 -181 7 -199 -7 -10 -9 -17 -10 -22 -2 -9 15 -41 12 -59 -5 -8 -8 -29 -15 -46 -15 -22 0 -33 -6 -38 -21 -8 -20 -9 -20 -25 -5 -14 15 -20 15 -51 2 -30 -12 -35 -12 -40 0 -3 8 -16 14 -28 14 -13 0 -32 6 -43 14 -24 16 -57 17 -67 2 -12 -18 -9 -26 7 -20 22 9 18 -9 -4 -23 -13 -8 -21 -9 -23 -2 -2 6 -20 11 -41 12 -31 1 -36 4 -31 19 3 12 0 18 -10 18 -9 0 -16 -6 -16 -14 0 -20 -32 -45 -37 -28 -3 6 -11 12 -19 12 -8 0 -14 10 -14 24 0 19 4 23 20 19 12 -3 29 2 39 11 17 16 28 16 102 5 45 -6 96 -12 113 -13 20 -1 34 -8 38 -19 9 -21 45 -15 64 9 6 8 16 14 23 14 6 0 11 6 11 14 0 11 -16 14 -67 15 -38 0 -101 3 -142 7 -59 5 -70 9 -55 17 10 6 22 15 26 21 5 7 13 4 23 -9 14 -19 16 -19 29 -2 14 19 36 23 36 7 0 -5 5 -10 10 -10 6 0 10 11 10 24 0 23 -2 23 -90 23 l-91 0 6 -29 c4 -16 2 -28 -3 -28 -5 0 -9 7 -8 15 0 9 -11 23 -26 32 -23 14 -40 15 -127 7 -56 -5 -101 -6 -101 -2 0 11 43 22 78 19 23 -2 32 2 32 12 0 10 7 13 19 10 10 -3 22 0 25 6 5 8 -21 11 -83 11 l-91 0 0 -44z m2550 14 c0 -5 -5 -10 -11 -10 -5 0 -7 5 -4 10 3 6 8 10 11 10 2 0 4 -4 4 -10z m105 -40 c3 -5 0 -10 -7 -11 -10 0 -10 -2 0 -6 6 -2 12 -14 12 -25 0 -22 -6 -22 -125 5 l-50 11 70 17 c85 21 92 22 100 9z m-297 -18 c2 -7 -5 -12 -17 -12 -14 0 -19 5 -14 15 6 17 25 15 31 -3z m338 -22 c0 -11 -4 -20 -8 -20 -10 0 -11 24 -1 33 9 9 9 10 9 -13z m-542 -31 c-3 -5 -10 -7 -15 -3 -5 3 -7 10 -3 15 3 5 10 7 15 3 5 -3 7 -10 3 -15z m-620 -4 c26 -4 52 -13 59 -19 7 -6 28 -12 47 -13 50 -2 50 -2 44 -18 -4 -8 -13 -15 -20 -15 -8 0 -17 -7 -20 -15 -9 -23 -55 -19 -61 5 -5 20 -43 29 -43 10 0 -5 -7 -10 -15 -10 -8 0 -15 -4 -15 -9 0 -5 -11 -4 -25 2 -14 7 -25 17 -25 24 0 6 -10 13 -22 15 -12 2 -23 10 -25 18 -3 10 -2 11 4 4 4 -6 20 -14 36 -18 15 -3 27 -11 27 -16 0 -6 5 -10 10 -10 6 0 10 6 10 14 0 9 7 12 21 9 17 -5 20 -2 17 13 -2 14 -13 20 -41 22 -20 2 -37 8 -37 14 0 5 6 8 14 5 7 -3 34 -9 60 -12z m281 -5 c-3 -5 -10 -10 -16 -10 -5 0 -9 5 -9 10 0 6 7 10 16 10 8 0 12 -4 9 -10z m229 1 c3 -5 -1 -11 -9 -15 -15 -6 -29 7 -18 18 9 9 21 8 27 -3z m261 -26 c28 3 84 6 127 8 60 1 74 -1 66 -10 -6 -7 -20 -10 -33 -7 -13 3 -26 1 -29 -5 -9 -14 -46 -14 -46 -1 0 6 -4 10 -10 10 -5 0 -10 -7 -10 -15 0 -9 -9 -15 -24 -15 -14 0 -28 -4 -31 -10 -3 -5 -16 -10 -29 -10 -12 0 -26 -3 -30 -7 -4 -4 -44 -6 -89 -4 -45 1 -94 -2 -109 -8 -17 -6 -29 -7 -33 -1 -4 6 4 10 16 10 17 0 20 5 17 24 -4 22 -2 24 26 19 23 -3 36 0 49 15 15 16 24 18 70 11 28 -5 75 -6 102 -4z m-535 -5 c0 -5 -5 -10 -11 -10 -5 0 -7 5 -4 10 3 6 8 10 11 10 2 0 4 -4 4 -10z m973 -3 c3 -9 -5 -12 -30 -9 -25 3 -31 7 -22 13 20 13 46 11 52 -4z m57 -1 c0 -3 -4 -8 -10 -11 -5 -3 -10 -1 -10 4 0 6 5 11 10 11 6 0 10 -2 10 -4z m-850 -10 c0 -2 -7 -6 -15 -10 -8 -3 -15 -1 -15 4 0 6 7 10 15 10 8 0 15 -2 15 -4z m-70 -21 c0 -8 -7 -15 -15 -15 -16 0 -20 12 -8 23 11 12 23 8 23 -8z m-500 -9 c0 -3 -4 -8 -10 -11 -5 -3 -10 -1 -10 4 0 6 5 11 10 11 6 0 10 -2 10 -4z m70 0 c0 -9 -40 -13 -46 -5 -3 5 6 9 20 9 14 0 26 -2 26 -4z m1244 -12 c9 -8 14 -20 11 -25 -11 -16 -23 -9 -27 16 -6 29 -5 30 16 9z m111 6 c-3 -5 -10 -10 -16 -10 -5 0 -9 5 -9 10 0 6 7 10 16 10 8 0 12 -4 9 -10z m-2705 -11 c0 -8 -42 -20 -48 -14 -2 2 -2 8 1 12 6 10 47 12 47 2z m1720 7 c0 -11 -19 -15 -25 -6 -3 5 1 10 9 10 9 0 16 -2 16 -4z m588 -32 c28 -4 42 -3 42 5 0 6 8 11 18 11 20 -1 58 -27 50 -36 -3 -3 -41 -9 -83 -13 -60 -5 -81 -4 -91 6 -11 11 -11 18 -2 33 7 11 15 15 18 10 3 -5 25 -12 48 -16z m-108 -14 c8 -5 11 -12 7 -16 -3 -4 -13 -1 -21 5 -8 7 -21 9 -27 5 -8 -4 -9 -3 -5 4 9 14 26 15 46 2z m-2206 -15 c-4 -8 -10 -15 -15 -15 -5 0 -9 7 -9 15 0 8 7 15 15 15 9 0 12 -6 9 -15z m2686 -15 c8 -5 12 -11 9 -14 -3 -3 -14 1 -25 9 -21 16 -8 20 16 5z"/>
 <path d="M305 2080 c28 -12 45 -12 45 0 0 6 -15 10 -32 9 -28 0 -30 -2 -13 -9z"/>
 <path d="M1010 2080 c0 -5 6 -10 14 -10 8 0 18 5 21 10 3 6 -3 10 -14 10 -12 0 -21 -4 -21 -10z"/>
 <path d="M1815 2080 c3 -6 12 -10 20 -10 7 0 15 -7 19 -15 8 -21 33 -19 46 4 10 19 51 23 67 8 3 -4 19 -7 35 -7 18 0 28 -5 28 -15 0 -8 -7 -15 -15 -15 -8 0 -15 4 -15 9 0 17 -55 -5 -58 -23 -3 -15 0 -17 20 -10 12 4 44 7 71 6 34 -1 47 3 47 13 0 7 10 15 21 17 12 2 25 13 30 25 l8 22 -165 0 c-107 1 -163 -3 -159 -9z m251 -20 c0 -11 -4 -20 -8 -20 -10 0 -11 24 -1 33 9 9 9 10 9 -13z"/>
 <path d="M2185 2080 c7 -11 121 -24 136 -14 7 4 28 8 47 10 73 7 39 13 -72 13 -64 0 -114 -4 -111 -9z"/>
 <path d="M420 2070 c0 -5 14 -10 30 -10 17 0 30 5 30 10 0 6 -13 10 -30 10 -16 0 -30 -4 -30 -10z"/>
 <path d="M1720 2070 c0 -5 10 -10 23 -10 18 0 19 2 7 10 -19 13 -30 13 -30 0z"/>
 <path d="M2811 2061 c-28 -28 -28 -45 0 -31 21 12 35 37 26 46 -3 3 -15 -4 -26 -15z"/>
 <path d="M1800 2060 c0 -5 5 -10 10 -10 6 0 10 5 10 10 0 6 -4 10 -10 10 -5 0 -10 -4 -10 -10z"/>
 <path d="M650 2045 c0 -8 6 -15 14 -15 8 0 16 -4 18 -10 2 -5 18 -12 36 -16 25 -5 32 -3 32 10 0 11 9 16 26 16 16 0 24 5 22 13 -3 8 -30 13 -76 14 -58 2 -72 0 -72 -12z"/>
 <path d="M1910 2045 c0 -8 7 -15 15 -15 8 0 15 7 15 15 0 8 -7 15 -15 15 -8 0 -15 -7 -15 -15z"/>
 <path d="M521 2034 c-41 -29 -27 -44 43 -44 101 0 121 51 23 56 -27 2 -53 -3 -66 -12z"/>
 <path d="M810 2035 c0 -8 7 -15 15 -15 8 0 15 7 15 15 0 8 -7 15 -15 15 -8 0 -15 -7 -15 -15z"/>
 <path d="M940 2024 c0 -9 7 -14 17 -12 25 5 28 28 4 28 -12 0 -21 -6 -21 -16z"/>
 <path d="M990 1995 c-16 -19 1 -42 22 -29 7 5 20 9 28 9 44 4 50 6 50 20 0 21 -83 21 -100 0z"/>
 <path d="M950 1975 c0 -8 5 -15 10 -15 6 0 10 7 10 15 0 8 -4 15 -10 15 -5 0 -10 -7 -10 -15z"/>
 <path d="M995 1829 c-9 -14 -7 -15 36 -22 50 -7 70 7 28 22 -40 14 -56 14 -64 0z"/>
 <path d="M420 1815 c-18 -21 -5 -32 46 -38 26 -2 50 -11 55 -18 10 -17 16 -11 24 22 7 26 6 27 -39 22 -36 -4 -47 -2 -52 11 -8 20 -18 20 -34 1z"/>
 <path d="M790 1805 c0 -8 9 -15 19 -15 11 0 23 -4 26 -10 3 -5 19 -10 36 -10 42 0 36 25 -10 38 -51 16 -71 15 -71 -3z"/>
 <path d="M228 1796 c-21 -15 -24 -36 -5 -36 6 0 22 -3 33 -6 16 -4 23 0 27 17 7 27 8 25 -18 32 -11 4 -28 0 -37 -7z"/>
 <path d="M944 1794 c3 -8 6 -18 6 -20 0 -2 5 -4 10 -4 16 0 11 27 -6 34 -12 5 -15 2 -10 -10z"/>
 <path d="M310 1776 c0 -9 7 -16 15 -16 9 0 18 -7 21 -15 7 -18 54 -20 54 -2 0 7 -17 19 -37 27 -21 8 -41 16 -45 18 -5 2 -8 -3 -8 -12z"/>
 <path d="M200 1720 c0 -5 11 -10 25 -10 14 0 25 5 25 10 0 6 -11 10 -25 10 -14 0 -25 -4 -25 -10z"/>
 </g>
<g id="layer28" fill="#eae5da" stroke="none">
 <path d="M1538 1463 c7 -3 16 -2 19 1 4 3 -2 6 -13 5 -11 0 -14 -3 -6 -6z"/>
 <path d="M590 1425 c0 -8 5 -15 10 -15 6 0 10 7 10 15 0 8 -4 15 -10 15 -5 0 -10 -7 -10 -15z"/>
 <path d="M163 1392 l-153 -3 0 -105 0 -105 62 6 c35 3 68 6 73 6 70 5 405 -4 405 -12 0 -5 7 -9 15 -9 8 0 15 5 15 10 0 16 37 12 44 -5 4 -11 17 -15 43 -13 22 1 38 -3 41 -10 7 -21 22 -13 22 13 0 16 6 25 15 25 8 0 15 -8 15 -17 0 -14 8 -18 38 -18 20 0 42 4 49 8 6 4 14 3 17 -1 3 -5 41 -8 83 -7 105 3 103 3 103 20 0 8 5 15 10 15 6 0 10 -9 10 -20 0 -26 26 -26 41 1 9 17 13 19 20 8 5 -8 9 -10 9 -5 0 6 7 1 15 -10 9 -12 18 -15 22 -9 12 15 53 12 64 -5 7 -12 10 -11 15 8 7 23 37 29 64 12 13 -8 12 -10 -2 -10 -10 0 -18 -7 -18 -14 0 -12 18 -14 103 -12 56 2 108 4 115 5 6 0 12 10 12 21 0 13 7 20 20 20 11 0 20 7 20 15 0 12 -8 14 -39 9 -36 -6 -39 -4 -35 13 4 15 12 18 37 15 18 -3 37 -8 43 -13 7 -6 18 -2 28 10 17 18 17 22 2 43 -9 12 -16 30 -16 40 0 11 -8 18 -20 18 -19 0 -25 13 -21 53 2 15 -7 17 -74 16 -61 -1 -75 -4 -71 -15 8 -20 -11 -17 -23 4 -9 16 -11 16 -40 -1 -27 -16 -31 -16 -31 -3 0 21 -10 20 -26 -1 -13 -17 -13 -17 -14 0 0 20 -4 21 -30 5 -14 -9 -25 -10 -37 -3 -19 11 -308 11 -427 1 -41 -3 -74 -2 -82 4 -8 7 -26 7 -54 1 -30 -7 -49 -6 -63 2 -13 8 -21 9 -23 2 -3 -6 -19 -10 -37 -8 -72 6 -210 8 -354 5z m1357 -43 c0 -15 -4 -19 -16 -15 -9 3 -21 6 -27 6 -12 0 23 29 36 30 4 0 7 -9 7 -21z m-1434 -117 c-7 -12 -46 -23 -46 -13 0 7 43 29 49 25 1 -2 0 -7 -3 -12z m910 -39 c-10 -10 -19 5 -10 18 6 11 8 11 12 0 2 -7 1 -15 -2 -18z m396 7 c-25 -23 -42 -26 -42 -6 0 16 15 24 44 25 19 1 19 0 -2 -19z m103 -29 c-3 -6 -11 -8 -17 -5 -6 4 -5 9 3 15 16 10 23 4 14 -10z"/>
 <path d="M1710 1385 c0 -8 9 -15 20 -15 11 0 20 7 20 15 0 8 -9 15 -20 15 -11 0 -20 -7 -20 -15z"/>
 <path d="M1592 1378 c7 -19 38 -22 38 -4 0 10 -9 16 -21 16 -12 0 -19 -5 -17 -12z"/>
 <path d="M2140 1345 c0 -8 5 -15 10 -15 6 0 10 7 10 15 0 8 -4 15 -10 15 -5 0 -10 -7 -10 -15z"/>
 <path d="M1830 1331 c0 -15 -8 -21 -32 -23 -30 -3 -33 -6 -36 -39 -4 -42 8 -48 98 -50 l55 0 -40 -19 c-22 -10 -33 -19 -25 -19 13 -1 13 -3 1 -10 -11 -7 -18 -4 -26 12 -14 29 -60 31 -60 3 0 -11 -6 -21 -13 -24 -30 -10 -7 -23 41 -23 28 0 61 0 72 1 156 0 225 5 225 17 0 7 11 13 25 13 18 0 25 5 25 20 0 11 -7 20 -15 20 -17 0 -19 12 -5 26 7 7 7 20 2 34 -7 20 -17 24 -55 25 -33 2 -47 -2 -52 -13 -4 -12 -8 -13 -17 -4 -15 15 -65 16 -73 2 -3 -5 -17 -10 -31 -10 -13 0 -24 5 -24 10 0 6 -8 10 -17 10 -13 0 -14 3 -5 12 17 17 15 48 -3 48 -8 0 -15 -9 -15 -19z m259 -91 c-7 -5 -18 -6 -24 -2 -6 4 -3 8 8 10 9 2 17 9 18 15 0 7 3 7 6 -2 3 -7 -1 -17 -8 -21z m-33 -15 l29 -15 -40 0 c-23 0 -46 -5 -52 -11 -14 -14 -33 -3 -33 18 0 10 6 14 20 10 11 -3 20 -1 20 4 0 13 24 11 56 -6z"/>
 <path d="M2240 1335 c0 -8 5 -15 10 -15 6 0 10 7 10 15 0 8 -4 15 -10 15 -5 0 -10 -7 -10 -15z"/>
 <path d="M2372 1268 c-18 -18 -15 -28 8 -28 13 0 20 7 20 20 0 23 -10 26 -28 8z"/>
 <path d="M2261 1248 c-7 -11 -10 -22 -7 -25 9 -9 46 8 46 22 0 22 -26 24 -39 3z"/>
 <path d="M2794 1228 c3 -13 6 -26 6 -30 0 -5 9 -8 20 -8 16 0 20 7 20 30 0 26 -4 30 -26 30 -22 0 -25 -3 -20 -22z"/>
 <path d="M2360 1204 c0 -12 -11 -14 -46 -12 -56 4 -69 -14 -26 -36 41 -21 546 -26 550 -5 2 13 -28 19 -120 23 -10 0 -18 6 -18 13 0 7 -4 13 -10 13 -5 0 -10 -4 -10 -10 0 -5 -17 -10 -37 -9 -21 0 -32 3 -25 6 6 2 12 12 12 20 0 10 -6 13 -16 9 -9 -3 -18 -6 -20 -6 -2 0 -4 -7 -4 -15 0 -8 -4 -15 -10 -15 -5 0 -10 7 -10 15 0 8 -7 15 -15 15 -9 0 -15 -9 -15 -21 0 -15 -4 -19 -16 -15 -9 3 -21 6 -27 6 -7 0 -6 4 3 10 23 15 7 21 -69 25 -58 3 -71 1 -71 -11z"/>
 <path d="M1596 1175 c-3 -8 -12 -12 -21 -9 -9 4 -15 1 -15 -8 0 -10 12 -15 35 -16 35 -1 40 4 29 32 -8 20 -20 21 -28 1z"/>
 <path d="M1277 1163 c-4 -3 -7 -11 -7 -17 0 -6 5 -5 12 2 6 6 9 14 7 17 -3 3 -9 2 -12 -2z"/>
 <path d="M2190 1145 c-7 -9 -10 -18 -7 -21 10 -11 37 5 37 21 0 19 -14 19 -30 0z"/>
 <path d="M1128 1143 c7 -3 16 -2 19 1 4 3 -2 6 -13 5 -11 0 -14 -3 -6 -6z"/>
 <path d="M1700 1095 c0 -8 5 -15 10 -15 6 0 10 7 10 15 0 8 -4 15 -10 15 -5 0 -10 -7 -10 -15z"/>
 </g>
<g id="layer29" fill="#e3ddd1" stroke="none">
 <path d="M286 1503 c-2 -3 -155 -11 -223 -12 l-53 -1 0 -60 0 -60 258 -1 c141 0 275 -2 296 -3 22 -2 58 1 80 5 38 7 39 6 21 -8 -19 -14 -17 -14 20 -8 22 3 70 8 105 10 36 2 78 8 95 13 16 5 47 5 67 2 21 -4 57 -6 81 -5 38 1 44 -1 39 -17 -4 -15 2 -18 37 -18 28 0 41 4 41 14 0 23 31 29 37 6 6 -24 19 -26 27 -3 6 14 9 14 27 -5 24 -26 20 -26 55 -7 39 20 94 20 94 0 0 -11 12 -15 48 -15 26 0 53 -5 58 -10 16 -16 44 0 44 25 0 17 7 24 29 27 16 2 39 0 52 -4 13 -5 26 -5 32 1 6 6 16 6 27 -2 14 -8 22 -8 34 2 12 10 20 8 46 -10 26 -19 34 -21 50 -11 25 15 34 1 25 -39 -5 -22 -3 -34 6 -40 11 -7 10 -9 -3 -9 -9 0 -18 -5 -20 -12 -2 -6 -10 -8 -16 -4 -9 5 -9 13 -1 27 12 23 6 34 -14 26 -15 -6 -29 -69 -20 -93 3 -8 18 -14 35 -14 23 0 29 4 24 15 -5 13 -2 13 19 -1 18 -11 25 -13 25 -4 0 8 9 10 25 6 18 -5 25 -2 25 9 0 12 5 13 27 4 14 -5 32 -8 39 -5 7 3 10 -2 7 -15 -3 -10 0 -19 6 -19 6 0 11 5 11 10 0 6 9 10 19 10 11 0 23 5 26 10 10 16 45 12 45 -5 0 -21 13 -19 28 5 10 17 9 26 -10 56 -21 32 -26 35 -58 30 -33 -5 -34 -4 -15 10 11 8 25 12 33 9 7 -3 26 2 42 10 22 11 35 12 59 4 17 -6 42 -8 55 -5 22 5 53 -14 40 -26 -2 -3 -7 -30 -9 -61 l-4 -55 45 -7 c28 -4 50 -2 59 5 8 7 15 7 19 1 8 -13 84 -12 92 1 4 6 10 5 14 -3 7 -10 12 -10 23 -1 12 10 16 10 20 -1 4 -10 39 -16 134 -20 70 -4 137 -8 148 -9 16 -2 21 4 23 28 3 27 -1 31 -35 41 l-38 10 38 2 37 1 0 70 0 71 -34 -3 c-19 -1 -40 3 -48 8 -17 14 -466 18 -530 6 -33 -7 -48 -6 -51 2 -2 6 -26 12 -53 13 -178 7 -248 14 -256 25 -5 9 -10 10 -15 2 -11 -15 -53 -12 -53 3 0 7 -4 13 -10 13 -5 0 -10 -4 -10 -10 0 -5 -9 -10 -20 -10 -11 0 -20 6 -20 14 0 9 -7 12 -20 9 -11 -3 -20 -12 -20 -19 0 -24 -47 -16 -69 12 -17 21 -32 28 -71 32 -28 2 -50 0 -50 -5 0 -5 -7 -18 -16 -29 -8 -10 -13 -14 -10 -7 9 18 -4 42 -22 41 -9 0 -46 3 -82 6 -36 3 -124 8 -196 10 -73 2 -136 6 -140 8 -5 3 -53 5 -106 4 -54 -1 -98 2 -98 5 0 6 -548 7 -554 2z m1297 -70 c-7 -2 -21 -2 -30 0 -10 3 -4 5 12 5 17 0 24 -2 18 -5z m801 -224 c-3 -5 -10 -7 -15 -3 -5 3 -7 10 -3 15 3 5 10 7 15 3 5 -3 7 -10 3 -15z m269 14 c3 -5 -10 -9 -29 -10 -19 -2 -34 2 -34 7 0 12 57 14 63 3z m-173 -12 c0 -4 -11 -6 -25 -3 -14 2 -25 6 -25 8 0 2 11 4 25 4 14 0 25 -4 25 -9z m80 -1 c0 -6 -11 -8 -27 -4 -40 10 -41 14 -5 14 18 0 32 -5 32 -10z m180 6 c0 -2 -11 -6 -25 -8 -13 -3 -22 -1 -19 3 5 9 44 13 44 5z"/>
 <path d="M1650 1445 c0 -8 5 -15 10 -15 6 0 10 7 10 15 0 8 -4 15 -10 15 -5 0 -10 -7 -10 -15z"/>
 <path d="M2090 1430 c0 -5 7 -10 15 -10 8 0 15 5 15 10 0 6 -7 10 -15 10 -8 0 -15 -4 -15 -10z"/>
 <path d="M2270 1410 c0 -5 5 -10 10 -10 6 0 10 5 10 10 0 6 -4 10 -10 10 -5 0 -10 -4 -10 -10z"/>
 <path d="M964 1339 c-10 -17 13 -36 27 -22 12 12 4 33 -11 33 -5 0 -12 -5 -16 -11z"/>
 <path d="M1040 1331 c0 -5 5 -13 10 -16 6 -3 10 -2 10 4 0 5 -4 13 -10 16 -5 3 -10 2 -10 -4z"/>
 <path d="M305 1310 c-3 -5 -3 -15 1 -21 3 -6 0 -16 -7 -21 -10 -7 -7 -8 11 -4 14 3 35 6 48 6 13 0 22 6 22 15 0 8 -9 15 -20 15 -11 0 -20 5 -20 10 0 6 -6 10 -14 10 -8 0 -18 -4 -21 -10z"/>
 <path d="M440 1306 c0 -9 7 -16 16 -16 9 0 14 5 12 12 -6 18 -28 21 -28 4z"/>
 <path d="M173 1273 c-12 -3 -23 -13 -25 -25 -3 -20 -3 -20 -27 1 -13 12 -24 21 -25 21 -28 -5 -82 -32 -84 -44 -4 -20 42 -32 71 -19 12 5 33 6 47 2 14 -4 38 -7 53 -8 23 -1 28 3 25 19 -2 10 2 20 7 22 6 2 11 -7 13 -19 4 -24 10 -27 36 -17 50 19 -30 78 -91 67z"/>
 <path d="M716 1264 c-9 -22 -8 -24 8 -18 7 3 16 -2 19 -10 7 -18 37 -22 37 -5 0 8 5 8 15 -1 8 -7 15 -19 15 -26 0 -20 18 -17 30 5 14 28 12 44 -5 37 -8 -3 -15 0 -15 6 0 7 -13 9 -35 5 -26 -4 -35 -2 -35 9 0 19 -26 18 -34 -2z"/>
 <path d="M1130 1270 c0 -5 5 -10 10 -10 6 0 10 5 10 10 0 6 -4 10 -10 10 -5 0 -10 -4 -10 -10z"/>
 <path d="M1230 1263 c0 -15 -8 -18 -47 -16 -27 2 -60 6 -75 9 -22 5 -28 3 -28 -10 0 -9 6 -16 13 -15 40 5 55 -1 50 -22 -5 -18 -2 -20 28 -18 19 2 40 0 47 -5 6 -4 17 -4 24 0 10 7 147 7 308 1 42 -2 45 0 47 26 2 27 -7 32 -51 28 -10 0 -25 7 -32 16 -10 13 -16 15 -21 7 -5 -7 -28 -11 -55 -9 -27 2 -48 -1 -48 -6 0 -6 -15 -7 -36 -3 -28 5 -38 3 -49 -12 -13 -18 -14 -18 -15 -1 0 10 -8 17 -20 17 -11 0 -20 7 -20 15 0 8 -4 15 -10 15 -5 0 -10 -8 -10 -17z"/>
 <path d="M1570 1270 c0 -5 9 -10 20 -10 11 0 20 5 20 10 0 6 -9 10 -20 10 -11 0 -20 -4 -20 -10z"/>
 <path d="M986 1245 c-16 -14 -36 -25 -43 -25 -8 0 -13 -6 -10 -12 6 -20 122 -17 122 2 0 8 -8 14 -17 14 -25 -2 -22 13 3 21 17 6 19 9 8 16 -22 14 -32 11 -63 -16z"/>
 <path d="M423 1244 c-8 -21 13 -42 28 -27 13 13 5 43 -11 43 -6 0 -13 -7 -17 -16z"/>
 <path d="M590 1245 c0 -8 7 -15 15 -15 8 0 15 7 15 15 0 8 -7 15 -15 15 -8 0 -15 -7 -15 -15z"/>
 <path d="M880 1250 c0 -5 5 -10 10 -10 6 0 10 5 10 10 0 6 -4 10 -10 10 -5 0 -10 -4 -10 -10z"/>
 <path d="M930 1250 c0 -5 7 -10 15 -10 8 0 15 5 15 10 0 6 -7 10 -15 10 -8 0 -15 -4 -15 -10z"/>
 <path d="M354 1229 c-10 -17 13 -36 27 -22 12 12 4 33 -11 33 -5 0 -12 -5 -16 -11z"/>
 <path d="M680 1226 c0 -8 7 -16 15 -20 17 -6 18 -4 9 18 -8 20 -24 21 -24 2z"/>
 <path d="M500 1215 c0 -8 5 -15 10 -15 6 0 10 7 10 15 0 8 -4 15 -10 15 -5 0 -10 -7 -10 -15z"/>
 <path d="M1082 1208 c7 -19 38 -22 38 -4 0 10 -9 16 -21 16 -12 0 -19 -5 -17 -12z"/>
 <path d="M410 1185 c0 -9 9 -15 25 -15 16 0 25 6 25 15 0 9 -9 15 -25 15 -16 0 -25 -6 -25 -15z"/>
 <path d="M730 1175 c0 -8 5 -15 10 -15 6 0 10 7 10 15 0 8 -4 15 -10 15 -5 0 -10 -7 -10 -15z"/>
 <path d="M870 1175 c0 -8 5 -15 10 -15 6 0 10 7 10 15 0 8 -4 15 -10 15 -5 0 -10 -7 -10 -15z"/>
 <path d="M1100 1165 c0 -9 11 -13 30 -13 17 1 30 6 30 13 0 7 -13 12 -30 13 -19 0 -30 -4 -30 -13z"/>
 <path d="M1180 1169 c0 -11 24 -39 34 -39 11 0 6 21 -8 36 -17 17 -26 18 -26 3z"/>
 <path d="M2197 1173 c-13 -3 -16 -10 -11 -26 10 -36 23 -43 39 -21 26 34 12 57 -28 47z"/>
 <path d="M1480 1155 c0 -8 5 -15 10 -15 6 0 10 7 10 15 0 8 -4 15 -10 15 -5 0 -10 -7 -10 -15z"/>
 <path d="M2260 1160 c0 -5 7 -10 15 -10 8 0 15 5 15 10 0 6 -7 10 -15 10 -8 0 -15 -4 -15 -10z"/>
 <path d="M1280 1145 c0 -8 5 -15 10 -15 6 0 10 7 10 15 0 8 -4 15 -10 15 -5 0 -10 -7 -10 -15z"/>
 <path d="M1940 1140 c0 -5 7 -10 15 -10 8 0 15 5 15 10 0 6 -7 10 -15 10 -8 0 -15 -4 -15 -10z"/>
 <path d="M1711 1094 c0 -11 3 -14 6 -6 3 7 2 16 -1 19 -3 4 -6 -2 -5 -13z"/>
 </g>
<g id="layer30" fill="#5296a5" stroke="none">
 <path d="M20 2080 c-13 -9 -13 -11 0 -20 10 -6 11 -10 3 -10 -7 0 -13 -9 -13 -21 0 -19 4 -20 93 -15 137 8 253 10 263 4 17 -10 86 4 91 18 3 8 13 14 23 14 18 0 36 17 28 25 -2 2 -80 7 -173 10 -154 5 -168 4 -151 -9 27 -22 17 -27 -28 -15 -21 6 -49 8 -62 5 -17 -5 -26 -2 -30 9 -7 17 -22 19 -44 5z m360 -30 c-14 -4 -32 -4 -40 -1 -10 3 -4 8 15 11 37 8 59 -2 25 -10z"/>
 <path d="M88 2083 c7 -3 16 -2 19 1 4 3 -2 6 -13 5 -11 0 -14 -3 -6 -6z"/>
 <path d="M568 2078 c9 -9 15 -9 24 0 9 9 7 12 -12 12 -19 0 -21 -3 -12 -12z"/>
 <path d="M870 2080 c0 -6 -34 -10 -82 -10 -136 0 -218 -11 -218 -28 0 -12 12 -14 68 -9 45 4 56 3 33 -3 -18 -4 -36 -13 -40 -18 -9 -15 -81 -27 -81 -13 0 13 -91 14 -185 2 -33 -4 -75 -4 -93 0 -42 9 -70 1 -77 -22 -4 -10 -14 -19 -24 -19 -9 0 -22 -5 -28 -11 -6 -6 -33 -12 -60 -13 -43 -1 -48 -4 -46 -23 2 -17 -1 -21 -13 -16 -12 4 -15 1 -12 -13 3 -16 12 -19 53 -19 28 1 73 4 100 8 38 6 46 5 32 -3 -9 -6 -17 -15 -17 -20 0 -12 57 -13 64 -2 7 12 114 13 122 1 3 -6 -3 -13 -15 -16 -12 -3 -21 -12 -21 -19 0 -18 38 -18 74 1 15 8 38 15 50 14 17 -1 15 -2 -7 -9 -16 -5 -34 -16 -41 -26 -16 -21 -153 -28 -164 -7 -10 18 -122 25 -122 8 0 -23 -32 -26 -55 -5 -33 31 -55 17 -55 -35 0 -42 0 -42 42 -50 76 -14 279 -9 332 8 33 11 55 13 67 7 24 -13 29 -13 29 5 0 10 10 15 30 15 20 0 30 -5 30 -15 0 -20 20 -19 36 3 13 16 13 16 14 0 0 -26 20 -22 20 3 0 18 5 21 30 17 17 -3 30 -1 30 4 0 4 9 8 20 8 11 0 20 -4 20 -9 0 -12 129 -11 136 0 8 14 298 11 312 -3 13 -13 79 -15 202 -6 47 4 104 7 128 7 55 1 59 27 5 34 -21 2 -63 12 -92 20 -38 11 -59 13 -67 6 -14 -12 -26 2 -16 18 10 16 152 22 152 6 0 -7 5 -13 10 -13 6 0 10 6 10 14 0 23 38 26 65 5 19 -15 29 -18 43 -10 21 11 32 6 32 -16 0 -8 -12 -13 -30 -13 -32 0 -51 -23 -33 -41 6 -6 25 -10 44 -10 19 0 51 0 72 0 26 0 37 5 37 16 0 8 7 15 15 15 8 0 15 6 15 14 0 10 -14 16 -42 18 -36 2 -44 7 -46 26 -3 20 1 22 43 22 25 0 58 -6 73 -14 33 -17 121 -10 129 11 7 19 -14 41 -48 48 -20 5 -29 13 -29 27 0 17 -4 19 -32 13 -18 -4 -38 -12 -45 -17 -14 -11 -73 -1 -73 13 0 5 6 9 13 10 6 0 32 2 57 4 170 13 184 12 206 -12 12 -13 31 -23 43 -23 26 0 27 -15 4 -30 -13 -8 -14 -13 -5 -16 6 -3 10 -10 7 -15 -4 -5 3 -18 13 -29 16 -17 24 -19 46 -10 15 5 76 11 135 13 69 2 114 7 124 15 26 22 139 22 183 0 25 -12 41 -15 48 -8 5 5 18 10 28 10 10 0 18 5 18 10 0 15 27 12 33 -3 7 -19 87 -20 87 -1 0 7 -6 14 -12 15 -7 0 -4 4 7 8 11 5 24 6 30 3 5 -3 29 -7 52 -8 39 -1 43 1 43 22 0 21 -3 22 -32 13 -20 -5 -36 -5 -42 1 -11 11 -68 1 -78 -14 -6 -8 -11 -7 -17 3 -5 8 -16 11 -25 8 -11 -5 -16 -1 -16 12 0 17 -9 19 -77 20 -44 1 -80 6 -84 12 -4 6 -16 8 -28 4 -12 -4 -21 -2 -21 4 0 16 -31 13 -44 -4 -16 -22 -102 -10 -109 15 -4 16 3 17 79 13 83 -5 83 -5 90 21 6 26 26 34 99 39 22 2 30 7 30 22 0 19 -7 20 -224 20 -162 0 -225 -3 -228 -12 -7 -18 -35 -25 -45 -11 -6 10 -10 10 -17 -1 -5 -7 -14 -11 -20 -7 -6 4 -36 0 -68 -8 -35 -10 -59 -12 -61 -6 -5 14 -30 12 -35 -2 -2 -7 -7 -11 -10 -8 -22 20 69 45 150 41 12 0 24 3 27 8 3 5 -96 7 -221 5 -157 -2 -228 -7 -233 -15 -6 -8 -20 -8 -54 -1 -37 8 -46 7 -46 -4 0 -14 -10 -13 -104 6 -29 6 -47 5 -68 -6 -31 -16 -39 -54 -11 -54 13 0 14 -3 6 -11 -16 -16 -43 -3 -43 20 0 27 -30 34 -73 16 -41 -17 -112 -21 -87 -5 8 5 25 10 38 10 14 0 22 6 22 16 0 14 -7 16 -42 11 -32 -5 -37 -4 -20 3 12 5 22 12 22 15 0 3 -56 5 -125 5 -77 0 -125 -4 -125 -10z m165 -20 c3 -5 -1 -10 -10 -10 -9 0 -13 5 -10 10 3 6 8 10 10 10 2 0 7 -4 10 -10z m794 -26 c23 -27 23 -27 2 -21 -11 3 -23 2 -25 -1 -3 -6 -33 -7 -80 -3 -21 2 7 15 32 16 19 0 27 5 26 18 -2 25 19 21 45 -9z m371 16 c0 -5 -8 -10 -17 -10 -15 0 -16 2 -3 10 19 12 20 12 20 0z m-1390 -19 c44 -8 44 -9 -22 -10 -40 0 -68 3 -68 9 0 12 27 12 90 1z m530 -11 c0 -5 -5 -10 -11 -10 -5 0 -7 5 -4 10 3 6 8 10 11 10 2 0 4 -4 4 -10z m-444 -45 c39 -20 91 -19 102 1 8 14 10 13 15 -5 6 -23 2 -24 -90 -22 -41 0 -53 -3 -53 -14 0 -9 10 -15 26 -15 50 0 17 -25 -44 -33 -36 -5 -62 -14 -62 -20 0 -8 -3 -7 -9 1 -5 8 -20 15 -35 15 -21 2 -25 6 -20 22 9 27 16 33 21 18 3 -8 23 -13 49 -13 38 0 46 4 56 25 14 32 11 35 -49 45 l-48 8 56 1 c33 1 69 -5 85 -14z m-349 -1 c-3 -3 -12 -4 -19 -1 -8 3 -5 6 6 6 11 1 17 -2 13 -5z m936 -12 c27 0 51 -3 55 -6 3 -3 -13 -6 -36 -6 -28 0 -44 -5 -51 -17 -9 -16 -10 -16 -11 -2 0 22 -51 33 -65 14 -11 -13 -45 -18 -220 -33 -49 -5 -94 -9 -100 -11 -5 -2 -19 -3 -29 -2 -38 2 -7 12 80 27 49 8 125 22 169 32 52 12 94 15 120 11 22 -4 62 -7 88 -7z m725 11 c-10 -2 -26 -2 -35 0 -10 3 -2 5 17 5 19 0 27 -2 18 -5z m-1855 -23 c40 -5 113 -10 162 -11 80 -1 86 -2 53 -11 -42 -11 -48 -28 -19 -57 20 -20 18 -31 -6 -31 -7 0 -13 6 -13 14 0 15 -45 30 -62 20 -5 -4 -13 -2 -17 4 -4 6 -37 14 -75 17 -37 4 -79 10 -93 16 -13 5 -45 10 -71 10 -26 1 -37 4 -24 6 12 2 27 13 33 25 8 15 17 18 35 14 14 -4 58 -11 97 -16z m1727 10 c0 -5 -5 -10 -11 -10 -5 0 -7 5 -4 10 3 6 8 10 11 10 2 0 4 -4 4 -10z m-665 -30 c3 -5 -1 -10 -10 -10 -9 0 -13 5 -10 10 3 6 8 10 10 10 2 0 7 -4 10 -10z m715 -10 c-8 -5 -24 -9 -35 -9 l-20 0 20 9 c11 5 27 9 35 9 13 1 13 0 0 -9z m130 -10 c-6 -11 -16 -17 -22 -14 -7 5 -5 12 7 21 25 18 28 17 15 -7z m278 -12 c-2 -6 -10 -14 -16 -16 -7 -2 -10 2 -6 12 7 18 28 22 22 4z m-1551 -4 c-3 -3 -12 -4 -19 -1 -8 3 -5 6 6 6 11 1 17 -2 13 -5z m813 -14 c0 -5 -2 -10 -4 -10 -3 0 -8 5 -11 10 -3 6 -1 10 4 10 6 0 11 -4 11 -10z m-855 -20 c-3 -5 -11 -10 -16 -10 -6 0 -7 5 -4 10 3 6 11 10 16 10 6 0 7 -4 4 -10z m-45 -10 c0 -5 -4 -10 -10 -10 -5 0 -10 5 -10 10 0 6 5 10 10 10 6 0 10 -4 10 -10z m-300 -6 c0 -3 -10 -18 -21 -32 -12 -15 -19 -20 -15 -12 3 8 9 23 12 33 6 16 24 25 24 11z m-93 -10 c-3 -3 -12 -4 -19 -1 -8 3 -5 6 6 6 11 1 17 -2 13 -5z"/>
 <path d="M1518 2083 c7 -3 16 -2 19 1 4 3 -2 6 -13 5 -11 0 -14 -3 -6 -6z"/>
 <path d="M2590 2080 c0 -5 7 -10 15 -10 8 0 15 5 15 10 0 6 -7 10 -15 10 -8 0 -15 -4 -15 -10z"/>
 <path d="M2635 2079 c-4 -6 -5 -12 -3 -14 7 -7 48 7 48 16 0 13 -37 11 -45 -2z"/>
 <path d="M2700 2070 c0 -5 5 -10 10 -10 6 0 10 5 10 10 0 6 -4 10 -10 10 -5 0 -10 -4 -10 -10z"/>
 <path d="M2831 2054 c0 -11 3 -14 6 -6 3 7 2 16 -1 19 -3 4 -6 -2 -5 -13z"/>
 <path d="M510 2035 c0 -8 7 -15 15 -15 8 0 15 7 15 15 0 8 -7 15 -15 15 -8 0 -15 -7 -15 -15z"/>
 <path d="M150 1985 c0 -8 5 -15 10 -15 6 0 10 7 10 15 0 8 -4 15 -10 15 -5 0 -10 -7 -10 -15z"/>
 <path d="M2490 1965 c0 -8 5 -15 10 -15 6 0 10 7 10 15 0 8 -4 15 -10 15 -5 0 -10 -7 -10 -15z"/>
 <path d="M2750 1844 c0 -8 9 -13 23 -12 12 1 32 -2 45 -6 17 -6 22 -4 22 11 0 14 -9 18 -45 20 -33 1 -45 -2 -45 -13z"/>
 <path d="M2590 1815 c0 -8 9 -15 20 -15 11 0 20 7 20 15 0 8 -9 15 -20 15 -11 0 -20 -7 -20 -15z"/>
 <path d="M2646 1808 c-9 -33 -8 -36 12 -41 9 -2 -6 -2 -34 0 -33 4 -54 1 -59 -6 -4 -8 -11 -9 -19 -2 -15 12 -196 21 -196 9 0 -4 -11 -8 -25 -8 -18 0 -25 -5 -25 -20 0 -22 5 -24 70 -20 97 6 115 5 125 -7 13 -15 20 -16 133 -14 85 1 94 3 99 21 4 14 9 17 17 11 6 -5 30 -12 54 -16 39 -6 42 -5 42 15 0 15 -5 20 -15 17 -8 -4 -17 -2 -20 3 -4 6 -17 10 -29 10 -13 0 -29 7 -36 15 -7 8 -18 15 -25 15 -8 0 -11 8 -8 20 4 17 0 20 -25 20 -22 0 -31 -6 -36 -22z"/>
 <path d="M1540 1805 c0 -8 5 -15 10 -15 6 0 10 7 10 15 0 8 -4 15 -10 15 -5 0 -10 -7 -10 -15z"/>
 <path d="M1980 1806 c0 -11 -7 -13 -28 -7 -15 5 -50 5 -77 1 -28 -4 -58 -4 -68 2 -20 11 -37 3 -37 -18 0 -8 -4 -14 -10 -14 -5 0 -10 -5 -10 -11 0 -6 14 -9 33 -8 18 2 38 0 45 -5 16 -9 142 -10 205 -1 44 7 49 5 54 -14 9 -34 45 -27 63 12 11 23 15 27 18 15 2 -13 13 -18 35 -19 18 0 26 -3 20 -6 -20 -8 -15 -23 7 -23 11 0 20 7 20 15 0 7 7 18 16 23 26 15 9 50 -21 44 -16 -3 -25 0 -25 8 0 8 -9 10 -27 7 -120 -25 -146 -28 -168 -23 -14 4 -25 13 -25 21 0 8 -4 15 -10 15 -5 0 -10 -6 -10 -14z"/>
 <path d="M260 1795 c0 -8 5 -15 10 -15 6 0 10 7 10 15 0 8 -4 15 -10 15 -5 0 -10 -7 -10 -15z"/>
 </g>
<g id="layer31" fill="#6c90b1" stroke="none">
 <path d="M1144 2065 c32 -28 56 -29 64 -5 4 13 3 13 -11 2 -13 -11 -17 -10 -27 7 -6 12 -21 21 -33 21 -21 0 -20 -1 7 -25z"/>
 <path d="M1556 2080 c7 -7 19 -7 35 -1 23 9 22 10 -10 10 -24 1 -32 -2 -25 -9z"/>
 <path d="M1778 2083 c7 -3 16 -2 19 1 4 3 -2 6 -13 5 -11 0 -14 -3 -6 -6z"/>
 <path d="M1080 2070 c0 -5 5 -10 10 -10 6 0 10 5 10 10 0 6 -4 10 -10 10 -5 0 -10 -4 -10 -10z"/>
 <path d="M1440 2065 c0 -8 5 -15 10 -15 6 0 10 7 10 15 0 8 -4 15 -10 15 -5 0 -10 -7 -10 -15z"/>
 <path d="M2180 2055 c0 -8 7 -15 15 -15 8 0 15 7 15 15 0 8 -7 15 -15 15 -8 0 -15 -7 -15 -15z"/>
 <path d="M1720 2015 c0 -16 9 -19 34 -9 25 9 19 24 -9 24 -16 0 -25 -6 -25 -15z"/>
 <path d="M2831 1894 c0 -11 3 -14 6 -6 3 7 2 16 -1 19 -3 4 -6 -2 -5 -13z"/>
 <path d="M1230 1700 c0 -5 5 -10 10 -10 6 0 10 5 10 10 0 6 -4 10 -10 10 -5 0 -10 -4 -10 -10z"/>
 <path d="M2430 1695 c0 -8 5 -15 10 -15 6 0 10 7 10 15 0 8 -4 15 -10 15 -5 0 -10 -7 -10 -15z"/>
 <path d="M10 601 l0 -591 1415 0 1415 0 0 559 0 558 -47 6 c-27 3 -151 6 -276 7 l-229 1 -24 -26 c-14 -16 -24 -38 -24 -56 0 -30 -1 -31 -39 -24 -29 5 -46 2 -65 -10 -14 -10 -26 -13 -26 -7 0 5 7 12 15 16 21 8 19 49 -5 79 l-20 25 -175 0 c-131 0 -175 -4 -175 -13 0 -6 -9 -20 -21 -31 -21 -19 -21 -19 -48 13 l-26 32 -228 0 c-124 0 -232 3 -237 6 -6 4 -20 -1 -31 -11 -18 -16 -20 -16 -37 -1 -21 19 -107 24 -117 7 -4 -7 -11 -7 -18 -2 -7 5 -64 10 -127 11 -63 1 -150 6 -193 12 -58 9 -81 9 -90 0 -8 -8 -16 -6 -29 6 -15 13 -56 17 -278 21 l-260 5 0 -592z"/>
 </g>

</svg>