<!DOCTYPE svg PUBLIC "-//W3C//DTD SVG 20010904//EN" "http://www.w3.org/TR/2001/REC-SVG-20010904/DTD/svg10.dtd">
<svg version="1.0" xmlns="http://www.w3.org/2000/svg" width="285px" height="188px" viewBox="0 0 2850 1880" preserveAspectRatio="xMidYMid meet">
<g id="layer1" fill="#d2dded" stroke="none">
 <path d="M2658 174 c-27 -26 25 -60 68 -44 14 6 41 10 60 10 24 0 34 5 34 15 0 10 -10 15 -34 15 -18 0 -53 3 -77 6 -24 3 -47 2 -51 -2z"/>
 <path d="M2255 160 c-11 -17 5 -30 36 -30 18 0 29 5 29 14 0 23 -53 36 -65 16z"/>
 <path d="M2420 155 c0 -9 9 -15 25 -15 16 0 25 6 25 15 0 9 -9 15 -25 15 -16 0 -25 -6 -25 -15z"/>
 <path d="M2500 155 c0 -8 7 -15 15 -15 8 0 15 7 15 15 0 8 -7 15 -15 15 -8 0 -15 -7 -15 -15z"/>
 <path d="M2063 143 c-44 -9 -25 -29 28 -30 41 -1 49 2 47 16 -3 16 -34 22 -75 14z"/>
 <path d="M1780 126 c0 -9 7 -16 16 -16 17 0 14 22 -4 28 -7 2 -12 -3 -12 -12z"/>
 <path d="M1560 115 c0 -9 9 -15 25 -15 16 0 25 6 25 15 0 9 -9 15 -25 15 -16 0 -25 -6 -25 -15z"/>
 <path d="M1670 115 c0 -8 5 -15 10 -15 6 0 10 7 10 15 0 8 -4 15 -10 15 -5 0 -10 -7 -10 -15z"/>
 </g>
<g id="layer2" fill="#217c9f" stroke="none">
 <path d="M2810 995 c0 -8 7 -15 15 -15 8 0 15 7 15 15 0 8 -7 15 -15 15 -8 0 -15 -7 -15 -15z"/>
 <path d="M873 723 c-15 -6 -18 -53 -3 -53 6 0 10 5 10 11 0 7 7 8 18 4 9 -4 23 -9 30 -12 6 -3 12 2 12 10 0 9 -9 19 -20 22 -11 3 -20 11 -20 16 0 10 -8 10 -27 2z"/>
 <path d="M820 700 c0 -5 -8 -10 -18 -10 -21 0 -52 -29 -52 -48 0 -7 13 -12 29 -12 16 0 36 -3 45 -6 23 -9 34 26 13 41 -21 15 -22 25 -2 25 8 0 15 5 15 10 0 6 -7 10 -15 10 -8 0 -15 -4 -15 -10z"/>
 <path d="M691 654 c0 -11 3 -14 6 -6 3 7 2 16 -1 19 -3 4 -6 -2 -5 -13z"/>
 <path d="M552 573 c3 -13 -1 -19 -16 -20 -37 -3 -91 -11 -91 -13 0 -1 -14 -3 -32 -5 -18 -1 -40 -6 -50 -10 -10 -4 -29 -9 -43 -11 -14 -1 -45 -6 -70 -10 l-45 -7 40 -18 c22 -10 48 -19 58 -19 10 0 17 -8 17 -20 0 -18 3 -19 20 -10 16 9 20 8 20 -6 0 -13 7 -16 35 -11 26 4 35 2 35 -8 0 -7 6 -16 13 -19 6 -3 -8 -3 -32 0 -34 5 -42 3 -39 -7 2 -7 20 -17 39 -21 29 -6 37 -3 56 20 19 23 22 24 23 9 0 -25 24 -16 28 11 2 12 9 22 15 23 7 1 34 3 61 5 31 3 54 11 62 22 13 16 13 16 14 0 0 -28 27 -21 34 8 4 15 6 28 4 29 -3 4 -124 13 -171 14 -16 1 -26 5 -22 11 3 5 12 7 19 4 8 -3 17 -1 21 5 3 6 15 11 26 11 22 0 25 15 4 24 -8 3 -12 12 -9 21 4 10 0 15 -11 15 -12 0 -16 -6 -13 -17z"/>
 <path d="M600 575 c0 -8 7 -15 15 -15 8 0 15 7 15 15 0 8 -7 15 -15 15 -8 0 -15 -7 -15 -15z"/>
 <path d="M315 361 c-3 -6 -3 -15 0 -21 3 -5 1 -10 -5 -10 -6 0 -13 7 -16 15 -9 23 -24 18 -24 -9 0 -22 -4 -24 -35 -22 -19 2 -35 0 -35 -3 0 -3 -23 -4 -51 -2 -28 1 -70 0 -95 -4 l-44 -6 0 -55 0 -54 113 0 c175 0 307 11 307 25 0 18 -34 25 -122 25 -42 0 -83 3 -92 6 -24 9 -19 24 7 24 13 0 27 3 31 7 3 4 27 6 51 6 33 -1 45 3 45 13 0 8 -5 14 -11 14 -5 0 -7 5 -4 10 3 6 15 10 26 10 31 0 20 34 -13 38 -14 2 -29 -2 -33 -7z m-275 -121 c0 -5 -4 -10 -10 -10 -5 0 -10 5 -10 10 0 6 5 10 10 10 6 0 10 -4 10 -10z"/>
 </g>
<g id="layer3" fill="#587b8e" stroke="none">
 <path d="M1380 1260 c0 -5 11 -17 25 -26 14 -9 25 -21 25 -26 0 -13 -26 -38 -39 -38 -5 0 -14 -6 -18 -13 -4 -8 -16 -16 -25 -20 -19 -7 -25 -37 -8 -37 6 0 10 -13 10 -28 0 -18 9 -37 25 -50 l25 -22 10 26 c7 18 7 30 0 38 -6 9 -6 16 3 25 6 6 13 30 13 53 1 22 7 44 14 48 15 9 4 50 -19 67 -19 15 -41 17 -41 3z"/>
 <path d="M841 1013 c-1 -7 -8 -10 -16 -7 -9 4 -15 0 -15 -10 0 -18 8 -20 29 -7 7 5 11 15 8 22 -4 9 -6 10 -6 2z"/>
 <path d="M1412 963 c5 -25 28 -28 28 -4 0 12 -6 21 -16 21 -9 0 -14 -7 -12 -17z"/>
 <path d="M844 956 c-3 -9 -15 -16 -26 -16 -17 0 -19 -4 -13 -27 7 -31 24 -45 43 -38 7 3 15 -2 18 -10 8 -20 20 -19 53 6 23 17 33 19 47 10 18 -10 17 -10 -3 -11 -34 0 -28 -27 8 -34 27 -5 30 -9 25 -31 -5 -21 -2 -27 21 -37 16 -7 34 -21 41 -30 7 -10 24 -18 38 -18 13 0 24 -4 24 -10 0 -5 7 -10 15 -10 8 0 15 7 15 15 0 21 12 19 40 -8 20 -19 31 -22 53 -16 22 6 34 4 50 -11 24 -23 37 -25 37 -6 0 18 -19 33 -52 41 -25 6 -48 35 -28 35 24 0 7 29 -20 35 -16 4 -38 18 -48 32 -11 14 -30 27 -43 29 -13 1 -27 3 -31 3 -4 1 -5 7 -2 15 4 9 -3 14 -20 14 -17 0 -26 -6 -26 -17 -1 -14 -2 -14 -14 2 -7 9 -18 17 -25 17 -14 0 -15 -27 -1 -33 6 -3 5 -4 -2 -3 -16 3 -47 66 -41 82 5 15 -8 24 -44 29 -16 2 -40 6 -55 10 -21 5 -29 3 -34 -9z m56 -43 c0 -12 -8 -18 -25 -18 -17 0 -25 6 -25 18 0 12 8 17 25 17 17 0 25 -5 25 -17z m155 -103 c3 -5 -1 -10 -10 -10 -9 0 -13 5 -10 10 3 6 8 10 10 10 2 0 7 -4 10 -10z"/>
 <path d="M1130 880 c0 -5 5 -10 10 -10 6 0 10 5 10 10 0 6 -4 10 -10 10 -5 0 -10 -4 -10 -10z"/>
 <path d="M1180 875 c0 -8 5 -15 10 -15 6 0 10 7 10 15 0 8 -4 15 -10 15 -5 0 -10 -7 -10 -15z"/>
 <path d="M1247 853 c-10 -10 -8 -53 2 -53 5 0 9 14 9 30 -1 33 -1 33 -11 23z"/>
 <path d="M1270 840 c0 -5 7 -10 15 -10 8 0 15 5 15 10 0 6 -7 10 -15 10 -8 0 -15 -4 -15 -10z"/>
 <path d="M1450 835 c0 -9 9 -15 25 -15 18 0 25 -5 25 -20 0 -13 7 -20 19 -20 11 0 26 -3 35 -6 9 -3 16 -2 16 4 0 5 -9 12 -21 15 -12 3 -18 10 -14 17 11 19 -16 40 -51 40 -24 0 -34 -5 -34 -15z"/>
 <path d="M2528 804 c-3 -3 -19 -6 -34 -7 -19 -2 -30 -9 -32 -21 -3 -16 0 -18 25 -11 15 4 52 9 81 12 36 3 52 9 52 19 0 10 -13 14 -43 14 -24 0 -46 -2 -49 -6z"/>
 <path d="M2786 803 c-3 -4 -39 -7 -79 -7 -57 -1 -72 -4 -72 -16 0 -10 8 -14 25 -13 14 2 60 3 103 4 69 1 77 3 77 20 0 13 -7 19 -23 19 -13 0 -27 -3 -31 -7z"/>
 <path d="M1600 766 c0 -8 7 -16 15 -20 17 -6 18 -4 9 18 -8 20 -24 21 -24 2z"/>
 <path d="M2210 765 c0 -8 5 -15 10 -15 6 0 10 7 10 15 0 8 -4 15 -10 15 -5 0 -10 -7 -10 -15z"/>
 <path d="M2150 755 c0 -8 5 -15 10 -15 6 0 10 7 10 15 0 8 -4 15 -10 15 -5 0 -10 -7 -10 -15z"/>
 <path d="M1920 726 c0 -9 7 -16 16 -16 9 0 14 5 12 12 -6 18 -28 21 -28 4z"/>
 <path d="M2030 725 c0 -8 5 -15 10 -15 6 0 10 7 10 15 0 8 -4 15 -10 15 -5 0 -10 -7 -10 -15z"/>
 <path d="M2690 720 c0 -5 5 -10 10 -10 6 0 10 5 10 10 0 6 -4 10 -10 10 -5 0 -10 -4 -10 -10z"/>
 <path d="M1362 618 c6 -18 28 -21 28 -4 0 9 -7 16 -16 16 -9 0 -14 -5 -12 -12z"/>
 <path d="M2270 615 c0 -12 14 -15 70 -15 56 0 70 3 70 15 0 12 -14 15 -70 15 -56 0 -70 -3 -70 -15z"/>
 <path d="M2440 595 c0 -7 16 -12 35 -13 24 -1 35 3 35 13 0 10 -11 14 -35 13 -19 -1 -35 -6 -35 -13z"/>
 <path d="M2700 534 c0 -17 22 -14 28 4 2 7 -3 12 -12 12 -9 0 -16 -7 -16 -16z"/>
 <path d="M2790 486 c0 -9 7 -16 16 -16 9 0 14 5 12 12 -6 18 -28 21 -28 4z"/>
 <path d="M2500 455 c0 -17 9 -19 28 -6 11 7 10 10 -3 15 -23 9 -25 8 -25 -9z"/>
 <path d="M2610 402 c0 -10 8 -13 25 -10 14 3 28 2 30 -3 3 -4 18 -4 34 1 18 5 33 4 39 -2 12 -12 32 -2 32 16 0 10 -20 14 -80 13 -63 0 -80 -4 -80 -15z"/>
 <path d="M2480 395 c0 -8 9 -15 20 -15 11 0 20 -4 20 -10 0 -5 5 -10 10 -10 6 0 10 11 10 25 0 21 -5 25 -30 25 -20 0 -30 -5 -30 -15z"/>
 <path d="M2366 384 c-11 -29 -6 -34 29 -34 24 0 35 5 35 15 0 8 -9 15 -20 15 -11 0 -20 5 -20 10 0 16 -17 12 -24 -6z"/>
 <path d="M2303 383 c-20 -8 -15 -23 7 -23 11 0 20 7 20 15 0 15 -6 17 -27 8z"/>
 <path d="M2190 345 c0 -11 -11 -15 -40 -15 -22 0 -40 5 -40 10 0 6 -7 10 -15 10 -8 0 -15 -4 -15 -10 0 -5 -7 -10 -15 -10 -8 0 -15 -7 -15 -15 0 -12 14 -15 70 -15 56 0 70 3 70 15 0 10 11 15 35 15 24 0 35 5 35 15 0 10 -11 15 -35 15 -24 0 -35 -5 -35 -15z"/>
 <path d="M1990 325 c0 -8 9 -15 20 -15 11 0 20 7 20 15 0 8 -9 15 -20 15 -11 0 -20 -7 -20 -15z"/>
 <path d="M2340 325 c0 -12 13 -15 55 -15 42 0 55 3 55 15 0 12 -13 15 -55 15 -42 0 -55 -3 -55 -15z"/>
 <path d="M1837 324 c-16 -16 -5 -24 34 -24 28 0 39 4 37 13 -5 13 -60 22 -71 11z"/>
 <path d="M600 265 c0 -8 9 -15 20 -15 11 0 20 7 20 15 0 8 -9 15 -20 15 -11 0 -20 -7 -20 -15z"/>
 <path d="M720 265 c0 -8 5 -15 10 -15 6 0 10 7 10 15 0 8 -4 15 -10 15 -5 0 -10 -7 -10 -15z"/>
 <path d="M920 255 c0 -10 10 -15 29 -15 16 0 43 -3 60 -6 24 -5 31 -3 31 9 0 19 -21 27 -76 27 -32 0 -44 -4 -44 -15z"/>
 </g>
<g id="layer4" fill="#535339" stroke="none">
 <path d="M12 1804 l3 -68 73 -12 c39 -7 81 -10 93 -7 26 7 21 37 -7 41 -16 2 -20 8 -16 27 4 26 22 25 55 -3 9 -8 20 -13 23 -10 3 3 26 -1 51 -8 26 -8 49 -11 52 -8 11 10 -41 44 -67 44 -24 0 -24 1 -8 13 22 16 14 57 -11 57 -9 0 -13 -6 -10 -15 4 -8 2 -17 -4 -21 -12 -7 -41 15 -34 26 2 4 -41 8 -96 9 l-100 2 3 -67z"/>
 <path d="M335 1850 c5 -16 2 -20 -16 -18 -36 5 -33 -19 6 -38 37 -17 75 -57 75 -79 0 -15 -44 -28 -48 -15 -5 13 -63 13 -82 0 -13 -9 -12 -12 4 -25 11 -8 28 -13 38 -9 10 3 18 0 18 -6 0 -7 8 -10 20 -7 11 3 22 1 25 -4 3 -5 23 -13 44 -19 21 -5 49 -21 62 -34 13 -13 34 -26 47 -30 26 -9 20 -26 -9 -26 -22 0 -24 -10 -6 -30 10 -12 9 -12 -5 -1 -10 7 -18 22 -18 32 0 25 -17 32 -40 16 -18 -13 -18 -14 10 -31 17 -9 30 -21 30 -27 0 -5 5 -9 10 -9 12 0 73 -41 78 -52 2 -5 9 -8 15 -8 7 0 26 -14 44 -30 18 -17 43 -30 57 -30 18 0 24 -4 20 -15 -5 -11 1 -15 20 -15 14 0 26 5 26 10 0 6 -5 10 -11 10 -6 0 -8 11 -5 28 6 25 2 29 -55 56 -62 30 -109 70 -109 93 0 14 -33 54 -82 100 -7 7 -22 22 -32 33 -11 11 -27 20 -36 20 -10 0 -15 8 -15 23 2 33 13 47 31 40 12 -4 15 -1 12 13 -3 14 -11 18 -29 16 -15 -1 -33 6 -43 17 -25 28 -11 45 20 25 23 -16 24 -15 24 4 0 26 -28 42 -70 42 -27 0 -30 -3 -25 -20z"/>
 <path d="M435 1859 c7 -10 26 -19 73 -33 37 -12 27 18 -11 32 -41 15 -70 16 -62 1z"/>
 <path d="M562 1808 c7 -19 38 -22 38 -4 0 10 -9 16 -21 16 -12 0 -19 -5 -17 -12z"/>
 <path d="M487 1793 c-13 -13 -7 -35 8 -30 8 4 17 2 20 -3 7 -12 85 -13 85 -2 0 11 -66 42 -89 42 -10 0 -21 -3 -24 -7z"/>
 <path d="M750 1780 c0 -5 7 -10 15 -10 8 0 15 -7 15 -15 0 -8 5 -15 10 -15 15 0 12 19 -4 36 -17 16 -36 19 -36 4z"/>
 <path d="M687 1744 c-14 -14 -7 -35 11 -32 9 2 17 10 17 17 0 16 -18 25 -28 15z"/>
 <path d="M796 1689 c-32 -33 -38 -44 -29 -57 10 -16 15 -18 55 -21 15 -1 16 -5 8 -27 -14 -36 -13 -44 9 -44 13 0 21 9 26 30 5 21 14 32 31 36 26 7 32 28 11 41 -8 4 -17 16 -20 27 -5 13 -14 17 -32 14 -13 -3 -22 -1 -19 3 3 5 16 9 30 9 27 0 32 15 8 24 -28 11 -39 6 -78 -35z"/>
 <path d="M723 1700 c-24 -10 -32 -40 -10 -40 17 1 47 25 47 39 0 13 -7 13 -37 1z"/>
 <path d="M700 1631 c0 -5 7 -12 16 -15 22 -9 24 -8 24 9 0 8 -9 15 -20 15 -11 0 -20 -4 -20 -9z"/>
 <path d="M890 1545 c0 -8 5 -15 10 -15 6 0 10 7 10 15 0 8 -4 15 -10 15 -5 0 -10 -7 -10 -15z"/>
 <path d="M910 1135 c0 -8 5 -15 10 -15 6 0 10 7 10 15 0 8 -4 15 -10 15 -5 0 -10 -7 -10 -15z"/>
 <path d="M2525 403 c-144 -11 -165 -15 -165 -29 0 -17 25 -18 193 -3 94 9 127 15 127 26 0 13 -48 15 -155 6z"/>
 <path d="M2163 343 c-28 -5 -31 -33 -4 -33 30 0 51 11 51 26 0 14 -6 15 -47 7z"/>
 </g>
<g id="layer5" fill="#a8caed" stroke="none">
 <path d="M1572 671 c-11 -7 -10 -10 3 -15 26 -10 35 -7 35 9 0 17 -18 19 -38 6z"/>
 <path d="M2485 179 c-116 -5 -191 -12 -193 -19 -6 -16 -22 -12 -22 6 0 13 -13 15 -92 10 -51 -3 -118 -8 -148 -12 -73 -9 -199 -9 -227 0 -17 5 -23 3 -23 -7 0 -9 6 -18 13 -20 8 -4 9 -6 0 -6 -6 -1 -19 6 -28 15 -11 11 -19 13 -28 6 -7 -6 -18 -7 -26 -2 -17 10 -161 13 -161 2 0 -11 -77 -32 -94 -26 -12 4 -16 0 -16 -16 0 -11 4 -19 9 -16 5 3 14 0 20 -8 13 -16 113 -21 401 -19 290 1 360 3 435 14 39 6 86 12 105 13 79 8 141 19 146 27 3 5 14 3 26 -4 16 -9 22 -9 25 1 3 7 22 12 44 12 38 0 52 13 27 23 -7 3 -1 6 14 6 22 1 25 -2 21 -20 -5 -19 -3 -20 18 -14 13 5 38 9 54 9 36 1 55 12 55 32 0 11 -11 15 -42 13 -24 -1 -61 1 -83 4 -22 3 -125 1 -230 -4z"/>
 </g>
<g id="layer6" fill="#618772" stroke="none">
 <path d="M465 1863 c17 -16 112 -53 137 -53 13 0 42 -9 63 -20 31 -16 46 -18 67 -11 20 7 30 6 38 -5 14 -16 102 -60 149 -74 34 -9 61 4 61 29 0 14 -17 14 -22 1 -4 -11 -111 26 -150 52 -14 10 -29 18 -33 18 -4 0 -20 9 -36 21 -21 14 -41 20 -70 18 -26 -2 -43 2 -49 10 -5 9 -35 16 -86 19 -50 3 -75 1 -69 -5z"/>
 <path d="M980 1690 c0 -5 7 -10 15 -10 8 0 15 5 15 10 0 6 -7 10 -15 10 -8 0 -15 -4 -15 -10z"/>
 <path d="M897 1673 c-13 -12 -7 -23 13 -23 11 0 20 7 20 15 0 15 -21 21 -33 8z"/>
 <path d="M290 1650 c0 -5 7 -10 15 -10 8 0 15 5 15 10 0 6 -7 10 -15 10 -8 0 -15 -4 -15 -10z"/>
 <path d="M980 1635 c0 -8 5 -15 10 -15 6 0 10 7 10 15 0 8 -4 15 -10 15 -5 0 -10 -7 -10 -15z"/>
 <path d="M400 1595 c0 -8 7 -15 15 -15 8 0 15 7 15 15 0 8 -7 15 -15 15 -8 0 -15 -7 -15 -15z"/>
 <path d="M912 1598 c5 -14 57 -33 66 -23 10 9 -28 35 -51 35 -10 0 -17 -5 -15 -12z"/>
 <path d="M1100 1590 c-8 -4 -25 -12 -38 -19 -18 -9 -27 -9 -38 0 -17 14 -29 6 -21 -16 4 -9 19 -15 37 -15 23 0 33 -6 39 -23 5 -13 21 -31 35 -40 14 -10 26 -24 26 -32 0 -10 10 -15 29 -15 16 0 31 -5 33 -11 2 -7 13 -9 25 -5 33 10 41 126 9 126 -8 0 -11 11 -8 30 l4 30 -58 -1 c-33 -1 -66 -5 -74 -9z"/>
 <path d="M670 1456 c0 -13 28 -26 58 -26 18 0 15 27 -4 34 -27 10 -54 7 -54 -8z"/>
 <path d="M1136 1394 c-8 -21 3 -37 21 -30 11 4 13 1 8 -14 -5 -15 0 -22 20 -30 35 -13 38 -13 31 7 -6 14 -3 14 15 -3 18 -16 19 -20 5 -22 -20 -4 -21 -22 -1 -22 21 0 19 -24 -4 -44 -42 -38 -32 -102 13 -94 17 3 21 -1 23 -23 2 -22 -1 -26 -17 -22 -22 6 -25 -4 -10 -41 6 -16 27 -34 55 -47 25 -12 45 -28 45 -35 0 -8 6 -17 14 -20 8 -3 12 -13 8 -26 -4 -17 -2 -20 12 -15 14 6 16 3 11 -13 -5 -16 -2 -20 18 -20 20 0 24 -4 20 -19 -6 -24 5 -31 40 -24 34 7 35 20 2 35 -14 6 -25 16 -25 21 0 10 -19 32 -95 111 -34 34 -44 50 -35 56 7 4 21 5 31 3 16 -4 19 0 19 25 0 16 7 35 15 42 20 16 19 22 -5 48 l-20 22 30 -6 c27 -6 30 -4 30 20 0 52 -87 114 -103 74 -3 -8 -6 -7 -6 4 -1 9 4 20 9 23 17 11 11 25 -15 35 -16 6 -23 14 -19 25 7 17 -16 21 -31 6 -6 -6 -25 -2 -49 10 -48 23 -52 23 -60 3z m184 -161 c-8 -3 -22 -11 -30 -17 -13 -10 -13 -9 -1 7 7 9 21 17 30 16 13 0 14 -1 1 -6z"/>
 <path d="M791 1331 c-10 -6 -5 -12 17 -22 30 -13 36 -34 7 -22 -8 3 -15 0 -15 -6 0 -6 -9 -11 -20 -11 -26 0 -26 -27 1 -35 11 -4 23 -4 26 -2 3 3 16 1 30 -4 17 -6 30 -6 38 1 17 14 27 0 13 -17 -9 -11 -9 -19 1 -35 7 -11 8 -17 2 -13 -16 10 -51 -4 -51 -21 0 -13 9 -13 74 -5 4 0 6 10 3 22 -4 15 0 23 14 26 10 3 19 13 19 22 0 23 -28 61 -45 61 -7 0 -19 13 -26 29 -16 37 -57 51 -88 32z"/>
 <path d="M940 1126 c-16 -42 -7 -56 32 -52 28 3 30 2 15 -9 -9 -7 -17 -17 -17 -24 0 -6 -4 -11 -10 -11 -5 0 -10 6 -10 14 0 16 -34 31 -50 21 -14 -9 -12 -35 3 -35 7 0 18 -9 25 -20 14 -22 42 -26 60 -8 18 18 45 -10 37 -39 -4 -16 -1 -25 10 -29 8 -4 15 -16 15 -29 0 -30 30 -55 67 -55 25 0 32 5 37 26 5 19 2 30 -11 40 -10 7 -20 14 -23 14 -9 0 2 90 11 90 15 0 10 30 -6 36 -8 3 -17 14 -20 25 -6 17 -15 19 -76 16 -63 -3 -98 5 -67 15 8 3 8 9 0 24 -10 18 -11 17 -22 -10z m77 -92 c-3 -3 -12 -4 -19 -1 -8 3 -5 6 6 6 11 1 17 -2 13 -5z"/>
 <path d="M815 1030 c-7 -12 2 -30 16 -30 5 0 9 9 9 20 0 21 -15 27 -25 10z"/>
 <path d="M1140 985 c0 -8 7 -15 15 -15 8 0 15 7 15 15 0 8 -7 15 -15 15 -8 0 -15 -7 -15 -15z"/>
 <path d="M1200 981 c-12 -8 -12 -13 4 -30 27 -30 48 -27 44 6 -3 29 -23 39 -48 24z"/>
 <path d="M1152 934 c2 -11 11 -20 22 -22 13 -3 17 1 14 14 -2 11 -11 20 -22 22 -13 3 -17 -1 -14 -14z"/>
 <path d="M1280 915 c0 -8 9 -15 20 -15 11 0 20 -7 20 -15 0 -8 7 -15 15 -15 8 0 15 7 15 15 0 8 -6 15 -14 15 -8 0 -16 7 -20 15 -3 8 -12 15 -21 15 -8 0 -15 -7 -15 -15z"/>
 <path d="M1180 873 c0 -10 12 -23 26 -30 22 -10 25 -10 20 3 -3 9 -6 22 -6 30 0 8 -9 14 -20 14 -12 0 -20 -7 -20 -17z"/>
 <path d="M1500 825 c0 -8 5 -15 10 -15 6 0 10 7 10 15 0 8 -4 15 -10 15 -5 0 -10 -7 -10 -15z"/>
 </g>
<g id="layer7" fill="#020202" stroke="none">
 <path d="M0 940 l0 -940 1425 0 1425 0 0 940 0 940 -1425 0 -1425 0 0 -940z m2840 0 l0 -930 -1415 0 -1415 0 0 930 0 930 1415 0 1415 0 0 -930z"/>
 </g>
<g id="layer8" fill="#857c5e" stroke="none">
 <path d="M274 1855 c21 -16 13 -35 -15 -35 -10 0 -19 -7 -19 -15 0 -11 11 -15 39 -15 24 0 41 -5 44 -14 3 -7 0 -13 -6 -13 -34 1 -47 -5 -47 -19 0 -10 6 -14 14 -11 7 3 32 -1 54 -9 23 -7 48 -11 56 -8 11 4 13 0 9 -15 -6 -23 15 -29 34 -10 13 13 63 -30 63 -55 0 -13 7 -17 28 -14 19 2 27 8 26 21 -2 15 14 22 40 18 5 -1 16 5 25 13 10 9 22 12 30 6 8 -4 21 -6 29 -2 12 4 14 0 9 -19 -4 -13 -7 -28 -7 -33 0 -4 -11 -5 -25 -2 -14 4 -31 3 -38 -1 -7 -4 -23 -6 -37 -5 -14 1 -31 -2 -38 -7 -22 -13 7 -51 38 -51 l25 1 -25 14 c-22 13 -23 14 -5 15 11 1 37 3 58 5 27 3 48 -2 68 -15 16 -11 42 -29 59 -40 16 -11 41 -20 55 -20 14 0 25 -5 25 -11 0 -6 7 -9 15 -5 8 3 15 1 15 -5 0 -6 5 -7 10 -4 6 3 24 -3 40 -15 17 -12 37 -19 45 -16 19 7 19 -11 0 -30 -13 -14 -15 -14 -15 0 0 9 -7 16 -15 16 -8 0 -15 4 -15 10 0 5 -7 7 -16 3 -9 -3 -20 0 -25 8 -8 12 -11 11 -20 -3 -11 -19 -39 -25 -39 -8 0 5 -11 12 -25 16 -14 3 -25 10 -25 16 0 5 -4 6 -10 3 -5 -3 -24 2 -41 12 -26 15 -33 16 -37 4 -3 -10 -9 -8 -23 10 -17 23 -19 23 -35 7 -17 -16 -17 -18 1 -38 10 -11 26 -20 36 -20 10 0 21 -5 25 -11 4 -7 21 -9 45 -5 34 6 39 4 39 -14 0 -22 25 -28 33 -7 3 6 6 2 6 -10 1 -13 7 -23 16 -23 8 0 15 -4 15 -9 0 -5 8 -11 18 -14 13 -3 11 -6 -10 -15 -16 -6 -28 -18 -28 -26 0 -28 66 -36 85 -9 8 11 18 14 31 9 18 -7 18 -8 2 -17 -37 -20 -40 -46 -13 -89 14 -22 25 -49 25 -60 0 -13 7 -20 20 -20 11 0 20 -4 20 -10 0 -5 -9 -10 -20 -10 -11 0 -20 -4 -20 -10 0 -5 14 -10 30 -10 19 0 30 -5 30 -14 0 -21 20 -30 33 -17 17 17 58 14 51 -4 -7 -18 22 -21 30 -2 5 10 7 10 12 0 3 -7 12 -13 19 -13 8 0 19 -9 25 -19 5 -11 24 -23 42 -26 17 -4 38 -14 46 -21 15 -15 62 -19 62 -5 0 5 -12 12 -26 15 -47 12 -95 49 -90 70 3 12 -7 34 -25 57 -19 24 -26 40 -19 44 6 4 9 13 6 21 -3 8 -1 14 4 14 17 0 11 28 -7 35 -12 4 -24 -1 -35 -15 -10 -12 -18 -18 -18 -13 0 5 -18 17 -40 27 -43 19 -52 36 -20 36 11 0 20 5 20 10 0 6 4 10 10 10 5 0 7 -7 4 -15 -4 -10 3 -18 21 -25 34 -13 35 -13 35 4 0 8 -6 17 -12 19 -8 3 -7 6 4 6 9 1 19 -7 23 -18 5 -16 42 -31 76 -31 22 0 5 31 -46 84 -30 31 -55 63 -55 72 0 11 -6 14 -22 8 -20 -6 -21 -5 -9 10 10 12 11 19 2 30 -9 11 -9 15 1 18 10 4 10 8 -1 22 -8 9 -20 15 -28 12 -8 -3 -11 -1 -8 4 3 6 -6 21 -22 35 -29 25 -49 31 -55 17 -5 -13 -58 -24 -58 -12 0 5 7 10 16 10 9 0 14 7 12 18 -3 12 -13 17 -38 16 -19 0 -38 5 -42 10 -5 7 -8 7 -8 -1 0 -7 -7 -13 -15 -13 -8 0 -15 -7 -15 -15 0 -22 -21 -18 -27 5 -5 20 -43 29 -43 10 0 -5 -4 -10 -10 -10 -5 0 -10 9 -10 19 0 12 -8 21 -22 23 -12 2 -23 10 -26 18 -4 12 -2 13 9 3 23 -22 42 -16 35 12 -5 20 -3 23 10 18 14 -5 16 -2 10 23 -4 16 -12 32 -18 35 -7 4 -7 9 0 13 5 3 12 -1 16 -9 6 -17 56 -21 56 -5 0 6 -5 10 -11 10 -6 0 -20 12 -31 26 -15 18 -28 24 -48 22 -15 -1 -34 2 -41 8 -8 6 -34 11 -59 10 -43 -1 -45 -2 -43 -28 2 -29 -14 -38 -23 -14 -3 8 -19 14 -39 14 -18 0 -41 5 -52 11 -15 9 -12 10 20 11 30 0 38 4 35 16 -4 21 -96 50 -110 36 -9 -9 -66 5 -78 19 -3 3 -25 6 -50 7 -41 1 -43 0 -26 -13z m124 -48 c10 -8 10 -12 1 -18 -10 -6 -10 -11 0 -23 11 -13 11 -16 0 -15 -18 0 -62 56 -54 68 6 11 31 5 53 -12z m67 -47 c8 -13 -15 -13 -35 0 -12 8 -11 10 7 10 12 0 25 -4 28 -10z m239 -24 c-6 -16 -24 -23 -24 -8 0 10 22 33 27 28 2 -2 1 -11 -3 -20z m-141 -35 c-5 -21 -39 -35 -49 -20 -3 5 4 9 14 9 11 0 22 7 26 15 8 22 15 19 9 -4z m157 -22 c0 -5 -4 -9 -10 -9 -5 0 -10 7 -10 16 0 8 5 12 10 9 6 -3 10 -10 10 -16z m320 -173 c0 -2 -8 -10 -17 -17 -16 -13 -17 -12 -4 4 13 16 21 21 21 13z m33 -83 c-4 -10 -9 -11 -19 -2 -11 9 -12 15 -3 26 14 17 31 -1 22 -24z m-53 -8 c0 -8 8 -15 18 -16 10 0 12 -3 5 -6 -18 -7 -16 -21 7 -45 15 -17 17 -24 8 -30 -21 -13 -26 -9 -33 22 -7 33 -14 37 -33 18 -9 -9 -12 -8 -12 4 0 9 5 20 11 24 6 3 9 15 6 25 -3 12 0 19 9 19 8 0 14 -7 14 -15z m126 -278 c3 -16 3 -31 0 -34 -3 -4 -6 3 -6 15 0 15 -6 22 -19 22 -29 0 -53 38 -38 61 10 16 12 16 34 -9 12 -14 25 -39 29 -55z"/>
 <path d="M210 1840 c0 -24 25 -27 34 -4 9 23 8 24 -14 24 -13 0 -20 -7 -20 -20z"/>
 <path d="M400 1620 c0 -5 7 -10 15 -10 8 0 15 5 15 10 0 6 -7 10 -15 10 -8 0 -15 -4 -15 -10z"/>
 <path d="M1230 1120 c0 -5 7 -10 15 -10 8 0 15 5 15 10 0 6 -7 10 -15 10 -8 0 -15 -4 -15 -10z"/>
 </g>
<g id="layer9" fill="#3f98c2" stroke="none">
 <path d="M2254 503 c-14 -23 -104 -28 -104 -7 0 8 -7 14 -15 14 -8 0 -15 -7 -15 -15 0 -11 -11 -15 -39 -15 -66 0 -94 -20 -48 -35 32 -10 97 -12 97 -3 0 4 42 8 94 8 72 0 96 4 106 16 11 12 10 18 -3 32 -16 15 -17 15 -17 -1 0 -10 -8 -17 -19 -17 -14 0 -18 5 -14 20 7 25 -8 26 -23 3z"/>
 <path d="M1572 492 c-6 -5 -27 -7 -44 -5 -18 2 -96 -1 -173 -7 -77 -5 -193 -12 -257 -16 -94 -5 -118 -9 -118 -21 0 -11 14 -14 63 -12 83 2 97 1 97 -11 0 -5 -16 -10 -36 -10 -24 0 -34 -4 -32 -12 4 -12 24 -19 91 -33 60 -12 21 -22 -95 -24 -66 -1 -124 -4 -129 -6 -4 -3 -40 -6 -80 -6 -52 -1 -77 -6 -84 -16 -8 -11 -31 -15 -91 -14 -43 0 -86 -4 -94 -9 -13 -9 -13 -10 0 -12 8 -1 -21 -4 -65 -7 -63 -5 -80 -9 -83 -22 -2 -14 10 -18 68 -24 46 -5 73 -12 77 -21 4 -11 28 -13 106 -11 88 2 102 5 105 20 3 15 -6 17 -73 17 -59 0 -77 3 -82 15 -3 9 -4 18 -1 20 6 6 98 12 263 18 83 3 191 10 240 16 147 17 299 33 320 32 10 0 24 4 30 8 9 8 122 21 183 21 12 0 22 4 22 9 0 5 26 11 57 13 31 3 59 10 61 16 2 7 11 12 21 12 18 0 51 33 51 51 0 6 -12 10 -27 9 -85 -6 -143 0 -143 15 0 8 -9 15 -20 15 -11 0 -20 -7 -20 -15 0 -16 -20 -20 -35 -6 -15 13 -59 21 -73 13z"/>
 <path d="M1913 453 c-25 -10 -14 -32 15 -30 16 2 27 8 27 17 0 15 -21 22 -42 13z"/>
 <path d="M860 435 c0 -10 11 -15 35 -15 24 0 35 5 35 15 0 10 -11 15 -35 15 -24 0 -35 -5 -35 -15z"/>
 <path d="M1040 395 c0 -8 5 -15 10 -15 6 0 10 7 10 15 0 8 -4 15 -10 15 -5 0 -10 -7 -10 -15z"/>
 <path d="M1040 205 c0 -10 11 -15 35 -15 24 0 35 5 35 15 0 10 -11 15 -35 15 -24 0 -35 -5 -35 -15z"/>
 <path d="M10 43 c0 -22 18 -33 53 -32 15 0 17 2 7 6 -8 3 -25 15 -37 26 l-23 20 0 -20z"/>
 </g>
<g id="layer10" fill="#91b5d6" stroke="none">
 <path d="M1857 813 c-10 -9 -8 -41 2 -48 13 -8 61 16 61 31 0 19 -48 33 -63 17z"/>
 <path d="M1987 763 c-15 -15 -6 -33 17 -33 35 0 56 10 56 26 0 14 -60 20 -73 7z"/>
 <path d="M2430 755 c0 -7 11 -12 25 -12 14 0 25 5 25 12 0 7 -11 13 -25 13 -14 0 -25 -6 -25 -13z"/>
 <path d="M2187 733 c-16 -16 -4 -23 38 -23 33 0 45 4 45 15 0 11 -11 15 -38 15 -21 0 -42 -3 -45 -7z"/>
 <path d="M2350 725 c0 -8 5 -15 10 -15 6 0 10 7 10 15 0 8 -4 15 -10 15 -5 0 -10 -7 -10 -15z"/>
 <path d="M1870 701 c-14 -4 -49 -6 -78 -5 -39 2 -54 -1 -59 -12 -3 -9 -9 -11 -17 -5 -24 20 -196 7 -196 -15 0 -18 63 -29 89 -15 14 8 33 8 63 1 57 -13 135 -13 140 0 2 6 26 14 53 18 33 5 50 12 50 21 0 18 -13 21 -45 12z"/>
 <path d="M1930 695 c0 -8 5 -15 10 -15 6 0 10 7 10 15 0 8 -4 15 -10 15 -5 0 -10 -7 -10 -15z"/>
 <path d="M1290 657 c0 -8 7 -18 16 -21 28 -11 54 -6 54 9 0 8 -6 15 -12 15 -7 0 -23 3 -35 6 -17 5 -23 2 -23 -9z"/>
 <path d="M1970 635 c0 -8 7 -15 15 -15 8 0 15 7 15 15 0 8 -7 15 -15 15 -8 0 -15 -7 -15 -15z"/>
 <path d="M1445 591 c-4 -21 -12 -31 -26 -31 -10 0 -24 -9 -31 -20 -7 -11 -21 -20 -30 -20 -10 0 -18 -7 -18 -15 0 -18 57 -20 145 -4 33 6 77 10 98 9 27 0 37 3 37 15 0 18 4 19 31 3 17 -10 23 -10 26 0 3 6 14 12 26 12 28 1 82 44 73 59 -8 13 -43 15 -50 2 -3 -4 -19 -11 -35 -14 -17 -4 -47 -14 -68 -23 -77 -34 -160 -24 -132 16 8 11 12 12 16 3 3 -10 8 -9 20 3 19 19 16 22 -34 30 -40 6 -41 5 -48 -25z"/>
 <path d="M1630 605 c0 -8 7 -15 15 -15 8 0 15 7 15 15 0 8 -7 15 -15 15 -8 0 -15 -7 -15 -15z"/>
 <path d="M1574 589 c-10 -17 13 -36 27 -22 12 12 4 33 -11 33 -5 0 -12 -5 -16 -11z"/>
 <path d="M1301 544 c2 -11 0 -25 -5 -32 -10 -16 7 -37 22 -28 15 9 9 69 -6 74 -9 3 -13 -3 -11 -14z"/>
 <path d="M2750 451 c-28 -8 -41 -41 -15 -41 25 0 55 19 55 35 0 16 -2 17 -40 6z"/>
 <path d="M2470 441 c0 -5 5 -13 10 -16 6 -3 10 -2 10 4 0 5 -4 13 -10 16 -5 3 -10 2 -10 -4z"/>
 <path d="M2393 415 c-3 -9 -2 -19 1 -23 8 -8 38 10 44 26 6 18 -38 14 -45 -3z"/>
 <path d="M2504 416 c-9 -23 -1 -28 30 -20 24 6 37 24 17 24 -5 0 -16 3 -25 6 -10 4 -18 0 -22 -10z"/>
 <path d="M2210 355 c0 -8 5 -15 10 -15 6 0 10 7 10 15 0 8 -4 15 -10 15 -5 0 -10 -7 -10 -15z"/>
 <path d="M2308 363 c-16 -2 -28 -11 -28 -19 0 -17 12 -17 64 -3 29 8 36 13 25 20 -8 5 -18 8 -24 7 -5 0 -22 -3 -37 -5z"/>
 <path d="M2515 250 c-82 -4 -192 -8 -242 -9 -75 -1 -93 -4 -93 -16 0 -9 9 -15 24 -15 13 0 26 -6 29 -12 4 -10 7 -10 18 0 18 17 25 15 49 -10 19 -21 27 -22 280 -24 l260 -2 0 49 0 49 -87 -2 c-49 -1 -155 -5 -238 -8z"/>
 <path d="M1950 215 c0 -12 16 -15 80 -15 64 0 80 3 80 15 0 12 -16 15 -80 15 -64 0 -80 -3 -80 -15z"/>
 <path d="M1690 205 c0 -13 13 -15 75 -14 52 1 75 6 75 14 0 8 -23 13 -75 14 -62 1 -75 -1 -75 -14z"/>
 <path d="M1320 195 c0 -12 18 -15 105 -15 87 0 105 3 105 15 0 12 -18 15 -105 15 -87 0 -105 -3 -105 -15z"/>
 <path d="M820 185 c0 -10 -10 -15 -34 -15 -19 0 -37 -4 -40 -9 -3 -5 -15 -7 -26 -4 -11 3 -20 0 -20 -6 0 -6 -12 -11 -27 -11 -71 0 -103 -12 -118 -43 -20 -40 -8 -52 42 -42 21 5 42 8 46 7 4 -2 17 4 29 12 11 8 27 12 34 9 8 -3 20 0 27 5 13 11 92 25 212 38 162 16 228 25 245 31 16 6 27 9 48 11 6 1 12 9 12 17 0 14 -24 16 -182 14 -101 0 -191 -5 -200 -10 -10 -6 -19 -5 -23 1 -9 15 -25 12 -25 -5z"/>
 </g>
<g id="layer11" fill="#707052" stroke="none">
 <path d="M154 1857 c11 -7 31 -23 46 -37 14 -14 19 -20 11 -13 -9 6 -28 15 -43 18 -24 6 -28 4 -28 -14 0 -17 -4 -20 -30 -14 -24 4 -30 2 -30 -12 0 -9 9 -19 20 -22 11 -3 20 -9 20 -14 0 -5 16 -9 35 -9 19 0 35 -4 35 -9 0 -14 60 -41 91 -41 22 0 27 -4 22 -17 -7 -17 5 -16 81 3 17 4 26 2 26 -6 0 -10 3 -10 15 0 12 10 15 10 15 -4 0 -10 -9 -16 -25 -16 -25 0 -31 -13 -19 -44 3 -9 10 -16 16 -16 5 0 26 -14 47 -31 21 -16 51 -31 66 -33 15 -2 42 -17 59 -33 17 -17 49 -39 71 -50 65 -32 87 -46 118 -81 26 -28 34 -32 61 -26 37 7 68 42 61 69 -3 17 -1 16 15 -5 l19 -25 -37 -31 c-35 -30 -36 -33 -23 -58 17 -31 47 -34 56 -6 3 11 13 20 21 20 8 0 14 3 14 8 0 4 12 8 26 8 35 3 41 11 20 32 -16 16 -18 16 -31 -1 -9 -12 -15 -15 -20 -7 -9 15 3 60 15 60 6 0 10 7 10 15 0 9 -9 15 -24 15 -14 0 -28 5 -31 10 -3 6 -17 10 -30 10 -17 0 -25 -6 -27 -22 l-3 -23 -20 21 c-24 26 -58 44 -80 44 -9 0 -24 7 -32 16 -11 10 -24 13 -42 9 -14 -4 -30 -7 -35 -8 -6 -1 -12 11 -16 28 -3 20 -15 35 -36 45 -20 10 -29 21 -26 33 3 15 0 18 -16 13 -32 -11 -46 23 -20 46 12 10 25 18 30 18 18 0 6 40 -22 70 -16 18 -30 34 -30 36 0 11 22 2 40 -16 22 -22 55 -17 45 7 -4 13 1 14 32 8 21 -4 40 -9 42 -11 10 -9 -21 -28 -47 -29 -20 0 -28 -6 -30 -21 -3 -20 1 -21 45 -20 37 1 49 5 51 19 5 26 22 20 22 -8 0 -18 -4 -23 -15 -19 -11 5 -15 -1 -14 -22 3 -46 22 -94 38 -94 8 0 23 -8 34 -17 13 -12 34 -18 68 -17 37 1 49 -3 49 -14 0 -8 6 -12 15 -8 8 3 15 2 15 -3 0 -15 52 -33 64 -21 8 8 7 13 -3 19 -9 6 0 10 28 13 52 5 72 -13 36 -32 -28 -15 -34 -40 -10 -40 9 0 26 7 38 15 23 15 23 14 21 -25 -1 -22 2 -42 6 -45 5 -3 6 -14 3 -25 -4 -17 0 -20 26 -21 17 -1 36 -2 43 -3 21 -2 20 25 -1 31 -16 4 -20 11 -16 24 4 10 -1 29 -9 41 -9 12 -16 30 -16 40 0 10 -5 18 -10 18 -6 0 -20 11 -32 25 -12 14 -32 25 -44 25 -12 0 -25 7 -28 16 -4 11 -14 15 -31 12 -14 -3 -25 -1 -25 4 0 20 -39 50 -56 44 -26 -10 -104 4 -104 19 0 7 7 19 16 26 15 12 16 11 10 -7 -6 -20 -3 -21 49 -23 51 -1 69 9 45 24 -6 4 -5 13 3 26 10 16 9 21 -3 29 -8 5 -23 10 -33 10 -23 0 -73 26 -98 51 -20 20 -32 22 -64 10 -12 -5 -28 -3 -40 5 -43 28 -181 66 -246 67 -63 2 -68 0 -97 -30 -16 -18 -34 -33 -38 -33 -4 0 -3 5 4 12 19 19 14 45 -10 52 -13 3 -52 6 -88 5 -54 0 -62 -2 -46 -12z m266 -59 c0 -6 7 -8 15 -4 8 3 15 1 15 -4 0 -6 -7 -10 -15 -10 -8 0 -15 -7 -15 -15 0 -20 -7 -19 -32 5 -24 22 -38 26 -38 9 0 -5 -5 -7 -10 -4 -14 9 7 35 27 35 9 0 13 6 9 15 -5 13 -2 13 19 -1 14 -9 25 -21 25 -26z m355 -64 c0 -29 -28 -23 -36 8 -6 24 -5 26 15 19 11 -5 21 -17 21 -27z m-245 -3 c0 -20 -23 -32 -70 -35 -22 -2 -26 2 -22 17 9 36 92 52 92 18z m407 -167 c-3 -3 -12 -4 -19 -1 -8 3 -5 6 6 6 11 1 17 -2 13 -5z m3 -38 c0 -3 -4 -8 -10 -11 -5 -3 -10 -1 -10 4 0 6 5 11 10 11 6 0 10 -2 10 -4z m-221 -70 c10 -12 8 -13 -8 -9 -12 3 -21 9 -21 14 0 14 16 11 29 -5z"/>
 <path d="M68 1849 c-20 -11 -24 -39 -7 -39 20 0 49 21 49 35 0 17 -17 19 -42 4z"/>
 <path d="M790 1485 c0 -8 5 -15 10 -15 6 0 10 7 10 15 0 8 -4 15 -10 15 -5 0 -10 -7 -10 -15z"/>
 <path d="M1163 1333 c-26 -5 -29 -18 -9 -39 19 -18 26 -18 26 1 0 8 5 15 10 15 6 0 10 -7 10 -15 0 -8 9 -15 20 -15 11 0 20 4 20 8 0 9 -44 53 -51 51 -2 -1 -14 -4 -26 -6z"/>
 <path d="M1222 1254 c1 -9 9 -19 16 -22 9 -3 13 2 10 14 -1 9 -9 19 -16 22 -9 3 -13 -2 -10 -14z"/>
 <path d="M946 1163 c3 -21 12 -43 19 -48 7 -6 15 -22 17 -35 1 -14 10 -25 18 -25 16 0 16 7 5 65 l-6 35 33 -38 c43 -49 61 -49 53 1 -10 57 -25 82 -52 82 -14 0 -23 -6 -23 -15 0 -8 -9 -15 -19 -15 -10 0 -21 7 -25 15 -12 32 -27 15 -20 -22z"/>
 <path d="M1160 1070 c0 -5 7 -10 15 -10 8 0 15 5 15 10 0 6 -7 10 -15 10 -8 0 -15 -4 -15 -10z"/>
 <path d="M1230 1020 c0 -6 12 -15 26 -20 33 -13 34 -13 34 4 0 7 -10 16 -22 20 -32 8 -38 7 -38 -4z"/>
 </g>
<g id="layer12" fill="#908b6f" stroke="none">
 <path d="M302 1850 c14 -23 43 -23 43 0 0 9 -11 16 -28 18 -26 3 -27 2 -15 -18z"/>
 <path d="M210 1845 c0 -8 5 -15 10 -15 6 0 10 7 10 15 0 8 -4 15 -10 15 -5 0 -10 -7 -10 -15z"/>
 <path d="M365 1830 c-12 -20 36 -60 63 -54 40 11 26 30 -44 60 -7 3 -15 0 -19 -6z"/>
 <path d="M650 1800 c0 -5 5 -10 10 -10 6 0 10 -4 10 -10 0 -14 -27 -13 -32 2 -3 7 -12 9 -22 5 -10 -4 -16 -13 -13 -20 3 -9 -12 -12 -56 -13 -41 0 -63 -5 -71 -15 -6 -9 -19 -18 -28 -22 -19 -7 -25 -37 -9 -37 24 0 60 21 64 37 4 17 5 17 6 1 1 -22 21 -24 21 -3 0 20 10 19 27 -2 10 -13 16 -15 19 -5 3 6 14 12 25 12 11 0 27 4 37 9 9 5 25 12 35 15 26 8 24 66 -3 66 -11 0 -20 -4 -20 -10z"/>
 <path d="M320 1786 c0 -9 7 -16 16 -16 17 0 14 22 -4 28 -7 2 -12 -3 -12 -12z"/>
 <path d="M750 1760 c0 -5 -7 -10 -15 -10 -36 0 1 -49 38 -50 20 0 24 39 5 58 -15 15 -28 16 -28 2z"/>
 <path d="M800 1756 c0 -7 8 -16 18 -20 9 -3 23 -9 30 -12 6 -3 12 1 12 9 0 7 -11 19 -25 25 -33 15 -35 15 -35 -2z"/>
 <path d="M695 1710 c-3 -5 -24 -10 -45 -10 -21 0 -42 -4 -45 -10 -3 -5 -18 -10 -32 -10 -16 0 -27 -7 -30 -20 -3 -11 -12 -20 -19 -20 -8 0 -14 -4 -14 -8 0 -14 80 -92 95 -92 8 0 24 -14 37 -30 18 -25 27 -30 49 -25 17 4 32 1 40 -8 7 -8 21 -12 30 -10 10 3 27 -5 39 -17 15 -15 30 -20 46 -17 16 3 24 0 24 -9 0 -8 7 -14 16 -14 10 0 14 6 10 15 -7 19 4 19 31 0 12 -8 28 -12 37 -9 19 7 22 -16 5 -33 -16 -16 -3 -43 20 -43 18 0 19 -3 9 -25 -12 -28 -2 -48 12 -25 8 12 10 11 10 -4 0 -11 12 -32 27 -48 21 -22 24 -30 14 -42 -11 -13 -9 -20 8 -42 12 -15 21 -35 21 -45 0 -11 4 -19 10 -19 5 0 7 -7 4 -15 -4 -8 -1 -22 6 -30 10 -12 10 -15 -3 -15 -9 0 -19 10 -22 23 -9 27 -63 79 -78 74 -23 -7 -16 -26 19 -46 28 -17 34 -25 25 -34 -17 -17 -14 -24 13 -31 18 -4 23 -11 19 -26 -3 -11 -12 -20 -19 -20 -8 0 -14 -4 -14 -10 0 -14 27 -12 34 3 3 9 9 7 19 -5 17 -22 27 -23 27 -3 0 12 7 14 28 9 15 -4 31 -11 37 -15 5 -5 15 -9 23 -9 8 0 23 -11 34 -26 16 -19 26 -24 47 -19 21 4 33 0 51 -20 16 -17 34 -25 56 -25 18 0 36 -4 39 -10 9 -14 35 -12 35 3 0 7 -13 21 -30 30 -16 10 -30 23 -30 28 0 18 -103 130 -115 125 -14 -5 -39 14 -48 37 -4 11 -2 17 8 17 22 0 30 22 12 35 -10 7 -17 17 -17 22 0 6 -9 13 -20 16 -20 5 -29 37 -10 37 6 0 10 6 10 14 0 7 7 19 15 26 23 19 18 33 -10 26 -14 -4 -25 -2 -25 4 0 5 6 10 14 10 27 0 28 21 1 46 -27 25 -45 31 -45 14 0 -5 4 -10 10 -10 5 0 14 -8 19 -19 10 -18 8 -18 -30 -10 -42 10 -79 29 -79 41 0 5 -9 8 -21 8 -12 0 -19 5 -16 13 2 6 14 11 25 9 15 -2 22 2 22 14 0 11 -6 15 -18 12 -17 -5 -18 0 -14 43 4 40 2 49 -11 49 -9 0 -19 -4 -22 -10 -3 -5 -14 -10 -23 -9 -14 0 -13 3 6 16 40 28 20 66 -23 43 -20 -11 -26 -10 -40 4 -19 18 -41 21 -50 6 -9 -15 -35 -12 -35 3 0 10 -14 13 -55 9 -35 -3 -55 -1 -55 6 0 6 -19 20 -43 30 -31 14 -43 25 -43 40 0 12 4 22 9 22 5 0 7 8 5 18 -2 9 3 22 11 28 8 6 11 16 7 22 -9 15 -23 15 -31 2z m265 -204 c0 -3 -4 -8 -10 -11 -5 -3 -10 -1 -10 4 0 6 5 11 10 11 6 0 10 -2 10 -4z m270 -536 c0 -5 -5 -10 -11 -10 -5 0 -7 5 -4 10 3 6 8 10 11 10 2 0 4 -4 4 -10z"/>
 <path d="M910 1565 c0 -8 5 -15 10 -15 6 0 10 7 10 15 0 8 -4 15 -10 15 -5 0 -10 -7 -10 -15z"/>
 <path d="M1070 1505 c0 -8 7 -15 15 -15 8 0 15 7 15 15 0 8 -7 15 -15 15 -8 0 -15 -7 -15 -15z"/>
 <path d="M1115 1460 c4 -19 3 -30 -4 -30 -6 0 -11 -7 -11 -15 0 -8 5 -15 10 -15 6 0 10 6 10 14 0 8 5 16 11 18 6 2 8 14 4 31 -10 37 -28 35 -20 -3z"/>
 <path d="M900 1365 c0 -14 5 -25 10 -25 6 0 10 5 10 10 0 6 7 10 15 10 8 0 15 7 15 15 0 9 -9 15 -25 15 -20 0 -25 -5 -25 -25z"/>
 <path d="M830 1335 c0 -8 7 -15 15 -15 8 0 15 7 15 15 0 8 -7 15 -15 15 -8 0 -15 -7 -15 -15z"/>
 <path d="M965 1249 c-9 -14 -4 -18 25 -21 16 -2 25 3 28 15 3 12 -3 17 -22 17 -14 0 -28 -5 -31 -11z"/>
 <path d="M950 1205 c0 -8 5 -15 10 -15 6 0 10 7 10 15 0 8 -4 15 -10 15 -5 0 -10 -7 -10 -15z"/>
 </g>
<g id="layer13" fill="#98c6f0" stroke="none">
 <path d="M1465 151 c-4 -3 -45 -6 -93 -7 -129 -1 -240 -15 -253 -30 -6 -8 -24 -14 -39 -14 -38 0 -60 -9 -60 -25 0 -15 22 -25 58 -25 14 0 34 -8 45 -18 18 -16 64 -17 676 -17 655 0 656 0 746 23 50 13 95 28 101 33 6 5 13 7 16 4 7 -8 108 44 108 55 0 6 -9 10 -20 10 -11 0 -20 -4 -20 -10 0 -15 -26 -12 -40 5 -15 18 -87 20 -92 3 -3 -7 -9 -8 -19 -3 -25 16 -89 15 -89 -1 0 -8 -10 -14 -22 -14 -13 -1 -57 -5 -98 -11 -134 -17 -161 -18 -443 -23 -152 -2 -291 -1 -307 4 -17 5 -30 5 -30 1 0 -4 -17 -5 -37 -2 -25 4 -39 12 -41 24 -2 10 3 17 12 17 9 0 16 7 16 15 0 10 -10 14 -35 13 -19 -1 -37 -4 -40 -7z"/>
 <path d="M1800 151 c0 -5 5 -13 10 -16 6 -3 10 -2 10 4 0 5 -4 13 -10 16 -5 3 -10 2 -10 -4z"/>
 <path d="M1633 143 c-7 -2 -13 -12 -13 -20 0 -10 6 -13 16 -9 9 3 20 6 25 6 5 0 9 7 9 15 0 15 -14 18 -37 8z"/>
 </g>
<g id="layer14" fill="#1f8ba3" stroke="none">
 <path d="M2568 1076 c-6 -12 -13 -16 -15 -10 -4 11 -53 7 -53 -5 0 -6 -20 -8 -82 -11 -29 -1 -32 -7 -22 -34 5 -14 9 -14 35 0 17 8 38 12 48 9 15 -5 18 -13 13 -50 -4 -43 -4 -45 22 -45 15 0 36 5 46 10 16 8 18 8 14 -5 -4 -10 0 -15 12 -15 9 0 25 -7 35 -16 21 -19 43 -9 34 15 -3 9 6 1 20 -16 27 -33 53 -41 71 -23 7 7 21 5 42 -6 17 -8 36 -13 42 -9 15 9 13 132 -2 141 -7 4 -28 10 -47 13 -27 5 -36 12 -44 36 -13 39 -14 40 -30 27 -14 -12 -57 -5 -57 8 0 4 -16 8 -36 7 -25 -1 -39 -7 -46 -21z m-29 -67 c1 11 5 10 15 -4 8 -11 12 -23 10 -27 -8 -13 -54 15 -54 32 0 28 14 33 21 8 4 -13 7 -17 8 -9z"/>
 <path d="M2328 1033 c-28 -7 -21 -20 14 -27 36 -7 43 -3 35 19 -6 15 -16 17 -49 8z"/>
 <path d="M2450 986 c0 -8 -5 -16 -12 -18 -15 -5 -1 -28 18 -28 9 0 14 11 14 30 0 17 -4 30 -10 30 -5 0 -10 -6 -10 -14z"/>
 <path d="M2300 960 c0 -5 7 -10 15 -10 8 0 15 5 15 10 0 6 -7 10 -15 10 -8 0 -15 -4 -15 -10z"/>
 <path d="M2391 958 c0 -7 4 -21 8 -31 6 -16 9 -17 19 -4 7 8 10 22 6 31 -7 19 -34 22 -33 4z"/>
 <path d="M822 688 c-7 -7 -12 -17 -12 -24 0 -15 -34 -28 -38 -15 -6 18 -41 12 -52 -9 -6 -11 -16 -17 -25 -14 -9 4 -18 -1 -21 -11 -5 -13 -14 -15 -37 -11 -27 6 -29 4 -23 -19 5 -21 3 -25 -17 -25 -12 0 -31 -6 -42 -14 -11 -7 -24 -15 -30 -16 -5 -1 -20 -6 -33 -11 -13 -5 -37 -9 -53 -9 -16 0 -29 -4 -29 -9 0 -26 167 -22 250 6 25 8 54 15 65 15 39 0 125 20 125 28 0 4 15 10 33 13 119 19 117 18 133 54 9 18 14 37 10 40 -28 28 -184 51 -204 31z"/>
 <path d="M544 438 c-3 -4 -32 -6 -64 -4 -45 2 -60 0 -60 -10 0 -7 16 -16 38 -19 54 -9 61 -13 27 -14 -38 -2 -114 -24 -123 -37 -4 -5 -18 -10 -32 -12 -27 -4 -58 -28 -48 -38 14 -13 88 -24 170 -24 77 0 89 2 98 20 8 15 21 20 50 20 21 0 42 5 45 10 3 6 31 10 61 10 36 0 56 4 60 13 3 8 22 14 46 15 48 2 45 0 53 35 7 26 5 29 -16 26 -13 -1 -35 1 -49 4 -37 9 -251 13 -256 5z"/>
 <path d="M166 267 c-9 -33 -8 -36 12 -37 165 -10 182 -9 182 6 0 10 -6 14 -15 10 -8 -3 -21 1 -29 9 -8 8 -21 15 -29 15 -7 0 -16 3 -20 6 -3 3 -26 8 -50 10 -39 3 -46 0 -51 -19z"/>
 <path d="M400 225 c0 -8 7 -15 15 -15 8 0 15 7 15 15 0 8 -7 15 -15 15 -8 0 -15 -7 -15 -15z"/>
 </g>
<g id="layer15" fill="#609ea1" stroke="none">
 <path d="M1456 1374 c-10 -25 -7 -34 9 -34 8 0 15 4 15 9 0 5 3 16 6 25 4 10 1 16 -9 16 -8 0 -18 -7 -21 -16z"/>
 <path d="M1200 1340 c0 -19 46 -58 56 -47 3 3 3 19 -1 36 -5 24 -12 31 -31 31 -17 0 -24 -6 -24 -20z"/>
 <path d="M1272 1174 c-19 -21 -2 -68 26 -72 25 -4 30 -22 6 -22 -29 0 -13 -53 22 -70 44 -22 62 -42 56 -62 -2 -11 3 -20 13 -24 9 -4 21 -17 26 -30 9 -25 31 -38 82 -48 18 -4 27 -13 27 -26 0 -15 12 -23 52 -35 28 -8 58 -15 65 -15 9 0 11 -8 7 -24 -8 -32 8 -39 58 -25 24 7 53 13 65 15 13 1 32 5 42 9 15 5 18 2 14 -14 -4 -16 1 -19 34 -19 52 -1 73 6 73 25 0 12 -7 14 -30 10 -22 -5 -30 -3 -30 8 0 8 -15 17 -36 21 -25 5 -34 11 -30 21 3 8 6 19 6 25 0 7 21 9 55 6 39 -3 55 -1 55 8 0 6 -10 15 -22 19 -14 4 -18 8 -10 12 17 7 15 33 -3 33 -8 0 -15 -7 -15 -15 0 -24 -45 -18 -78 10 -16 13 -51 30 -77 37 -26 7 -50 20 -53 28 -3 8 -10 18 -16 23 -7 5 -5 12 7 21 25 19 21 36 -8 36 -14 0 -25 5 -25 10 0 6 -6 10 -13 10 -15 0 -17 41 -3 51 4 4 -8 12 -29 19 -27 9 -40 9 -48 1 -6 -6 -20 -11 -30 -11 -19 0 -20 -10 -3 -50 5 -13 -2 -16 -36 -16 -24 -1 -35 1 -25 3 9 3 17 8 17 13 0 20 -13 40 -27 40 -9 0 -13 -6 -10 -13 4 -10 -2 -13 -18 -9 -20 3 -24 -1 -27 -24 l-3 -28 -14 30 c-8 16 -29 41 -45 56 -25 21 -29 29 -18 39 6 7 12 17 12 21 0 13 -24 8 -38 -8z m318 -90 c0 -14 -3 -14 -15 -4 -8 7 -15 14 -15 16 0 2 7 4 15 4 8 0 15 -7 15 -16z m-1 -73 c-15 -5 -22 6 -14 19 6 9 10 9 16 -1 5 -8 4 -15 -2 -18z m66 -71 c-3 -5 -11 -10 -16 -10 -6 0 -7 5 -4 10 3 6 11 10 16 10 6 0 7 -4 4 -10z m58 -127 c-7 -2 -19 -2 -25 0 -7 3 -2 5 12 5 14 0 19 -2 13 -5z"/>
 <path d="M830 1005 c0 -8 5 -15 10 -15 6 0 10 7 10 15 0 8 -4 15 -10 15 -5 0 -10 -7 -10 -15z"/>
 <path d="M1690 975 c0 -8 7 -15 15 -15 8 0 15 7 15 15 0 8 -7 15 -15 15 -8 0 -15 -7 -15 -15z"/>
 <path d="M900 951 c0 -5 -12 -9 -27 -8 -25 2 -28 -2 -31 -30 -3 -30 -1 -33 25 -33 27 -1 27 -1 9 -15 -19 -15 -19 -16 7 -43 15 -15 27 -35 27 -44 0 -43 68 -89 198 -132 29 -9 69 -28 89 -42 36 -24 63 -31 63 -16 0 5 -16 16 -35 25 -19 9 -35 23 -35 31 0 8 -8 20 -17 26 -15 9 -12 10 12 5 52 -11 78 -10 82 3 3 7 -1 10 -11 6 -10 -4 -17 2 -22 20 -3 15 -11 25 -18 24 -6 -1 -23 4 -37 11 -19 9 -36 10 -62 3 -21 -6 -37 -7 -37 -2 0 4 -9 6 -19 3 -36 -9 -56 11 -52 56 2 37 0 42 -26 52 -54 22 -58 26 -58 64 0 22 -5 40 -12 42 -7 3 -13 0 -13 -6z"/>
 <path d="M1137 933 c-4 -3 -7 -11 -7 -17 0 -6 5 -5 12 2 6 6 9 14 7 17 -3 3 -9 2 -12 -2z"/>
 <path d="M1200 862 c0 -4 9 -13 20 -20 24 -15 70 -6 70 14 0 20 -27 17 -35 -3 -6 -17 -7 -17 -19 0 -13 17 -36 23 -36 9z"/>
 <path d="M1970 835 c0 -11 12 -15 50 -15 38 0 50 4 50 15 0 11 -12 15 -50 15 -38 0 -50 -4 -50 -15z"/>
 <path d="M2100 825 c0 -8 7 -15 15 -15 8 0 15 7 15 15 0 8 -7 15 -15 15 -8 0 -15 -7 -15 -15z"/>
 <path d="M2183 814 c-18 -9 -33 -20 -33 -25 0 -13 68 -11 72 2 2 6 12 7 28 2 14 -5 60 -7 103 -5 58 3 77 7 77 18 0 17 -103 20 -144 5 -18 -7 -28 -6 -36 5 -16 18 -27 17 -67 -2z"/>
 <path d="M2486 821 c-50 -8 -58 -28 -14 -35 53 -9 143 6 143 24 0 17 -61 22 -129 11z"/>
 <path d="M1110 811 c0 -5 -3 -16 -6 -25 -4 -11 -1 -16 10 -16 10 0 16 9 16 25 0 14 -4 25 -10 25 -5 0 -10 -4 -10 -9z"/>
 <path d="M2648 813 c-10 -2 -18 -10 -18 -17 0 -9 24 -13 80 -14 65 -2 80 1 80 13 0 10 -10 15 -34 15 -18 0 -46 2 -62 4 -16 2 -37 2 -46 -1z"/>
 <path d="M2030 801 c-14 -4 -25 -13 -25 -21 0 -11 13 -15 52 -15 44 0 53 3 53 18 0 9 -6 17 -14 17 -8 0 -20 2 -28 4 -7 2 -24 1 -38 -3z"/>
 <path d="M1037 783 c-13 -12 -7 -23 13 -23 11 0 20 7 20 15 0 15 -21 21 -33 8z"/>
 <path d="M1320 660 c0 -5 7 -10 15 -10 8 0 15 5 15 10 0 6 -7 10 -15 10 -8 0 -15 -4 -15 -10z"/>
 <path d="M2223 624 c-27 -12 -13 -32 23 -32 27 0 34 4 32 17 -3 16 -33 24 -55 15z"/>
 <path d="M2030 605 c0 -8 5 -15 10 -15 6 0 10 7 10 15 0 8 -4 15 -10 15 -5 0 -10 -7 -10 -15z"/>
 <path d="M2162 611 c-11 -7 -10 -10 3 -15 23 -9 25 -8 25 9 0 17 -9 19 -28 6z"/>
 <path d="M2300 605 c0 -11 12 -15 50 -15 38 0 50 4 50 15 0 11 -12 15 -50 15 -38 0 -50 -4 -50 -15z"/>
 <path d="M1371 603 c0 -6 -4 -20 -7 -30 -5 -14 -4 -15 5 -7 7 7 11 20 8 30 -3 11 -5 14 -6 7z"/>
 <path d="M2538 593 c7 -3 16 -2 19 1 4 3 -2 6 -13 5 -11 0 -14 -3 -6 -6z"/>
 <path d="M2540 375 c0 -8 5 -15 10 -15 6 0 10 7 10 15 0 8 -4 15 -10 15 -5 0 -10 -7 -10 -15z"/>
 <path d="M2430 365 c0 -8 9 -15 20 -15 11 0 20 7 20 15 0 8 -9 15 -20 15 -11 0 -20 -7 -20 -15z"/>
 </g>
<g id="layer16" fill="#577360" stroke="none">
 <path d="M560 1858 c0 -9 9 -14 23 -14 16 1 23 -5 25 -21 4 -24 12 -29 28 -14 21 21 72 16 98 -8 14 -14 29 -22 32 -18 4 3 22 -5 40 -20 23 -17 42 -24 59 -21 17 4 25 1 25 -8 0 -8 7 -14 17 -14 15 0 15 -2 -1 -19 -27 -30 -6 -85 45 -116 21 -14 44 -25 50 -25 6 0 31 -14 55 -32 l44 -32 20 22 c23 24 35 27 45 12 3 -5 -1 -10 -9 -10 -19 0 -20 -9 -6 -46 10 -24 9 -26 -11 -21 -15 4 -19 2 -15 -8 3 -8 1 -17 -4 -20 -15 -9 -12 -28 3 -22 8 3 18 -7 26 -24 12 -27 41 -41 41 -20 0 5 17 7 39 4 32 -4 39 -2 43 15 7 24 -1 72 -12 72 -4 0 -10 9 -13 20 -3 11 -11 20 -17 20 -7 0 -10 -8 -7 -20 6 -24 -1 -25 -31 -4 -24 16 -21 37 3 27 29 -11 8 102 -22 120 -7 4 -13 15 -13 22 0 8 -7 15 -15 15 -18 0 -20 -26 -2 -33 6 -2 -2 -3 -18 -2 -17 1 -43 14 -59 28 -16 15 -33 27 -38 27 -5 0 -7 13 -3 30 5 23 3 30 -8 30 -8 0 -20 7 -27 15 -7 8 -26 15 -42 15 -19 0 -40 11 -64 35 -22 22 -44 35 -61 35 -15 0 -35 8 -45 17 -27 24 -218 33 -218 11z m562 -294 c-12 -8 -30 -13 -40 -11 -13 4 -12 5 5 6 12 0 25 6 28 11 3 6 11 10 18 10 6 0 1 -7 -11 -16z"/>
 <path d="M10 1762 c0 -39 11 -52 45 -52 20 0 84 -43 85 -56 0 -7 47 -35 105 -63 57 -29 107 -57 111 -62 3 -5 14 -7 24 -4 10 3 35 -1 56 -10 20 -8 39 -13 42 -10 3 3 11 0 18 -6 16 -13 54 -3 54 14 0 16 -56 41 -75 33 -9 -3 -12 0 -9 8 3 7 -8 24 -23 37 -15 13 -36 36 -46 52 -13 20 -25 27 -50 27 -20 0 -53 13 -83 32 -36 23 -63 32 -104 34 -65 4 -155 21 -122 23 31 1 26 35 -6 39 -20 3 -22 -1 -22 -36z"/>
 <path d="M678 1443 c7 -3 16 -2 19 1 4 3 -2 6 -13 5 -11 0 -14 -3 -6 -6z"/>
 <path d="M652 1393 c4 -25 -10 -43 -33 -43 -33 0 -16 -24 19 -27 22 -2 32 2 32 11 0 9 7 12 20 9 11 -3 20 -12 20 -19 0 -17 44 -89 60 -99 6 -3 8 -10 5 -15 -7 -11 77 -100 94 -100 10 0 11 -10 7 -35 -7 -36 7 -48 31 -24 7 7 15 3 26 -15 12 -18 13 -26 4 -29 -16 -5 20 -47 42 -48 10 0 12 -2 4 -6 -7 -2 -13 -12 -13 -20 0 -11 7 -14 25 -9 15 4 25 2 25 -5 0 -6 -9 -13 -20 -16 -12 -3 -20 -14 -20 -25 0 -15 5 -19 20 -15 13 3 20 0 20 -9 0 -8 6 -14 13 -14 6 0 21 -3 33 -6 18 -5 20 -1 20 45 0 41 -4 52 -22 61 -26 14 -21 50 7 50 11 0 19 7 19 15 0 8 -9 15 -20 15 -28 0 -79 56 -73 80 3 11 0 20 -6 20 -6 0 -11 7 -11 15 0 8 -4 15 -10 15 -5 0 -10 7 -10 16 0 9 -13 33 -30 54 -16 21 -30 46 -30 56 0 18 -39 44 -65 44 -6 0 -26 20 -45 45 -33 44 -35 45 -87 45 -46 0 -54 -3 -51 -17z m219 -136 c-10 -9 -11 -8 -5 6 3 10 9 15 12 12 3 -3 0 -11 -7 -18z"/>
 <path d="M1250 1335 c0 -8 5 -15 10 -15 6 0 10 7 10 15 0 8 -4 15 -10 15 -5 0 -10 -7 -10 -15z"/>
 <path d="M1292 1282 c3 -22 1 -29 -9 -25 -9 4 -13 -4 -13 -26 0 -32 16 -41 38 -19 9 9 12 7 12 -10 0 -17 6 -22 24 -22 32 0 44 19 23 35 -10 7 -17 20 -17 29 0 9 -6 16 -14 16 -8 0 -16 10 -18 22 -2 12 -9 23 -17 26 -10 3 -13 -3 -9 -26z"/>
 <path d="M1027 1173 c-12 -11 -8 -23 8 -23 8 0 15 7 15 15 0 16 -12 20 -23 8z"/>
 <path d="M1090 1085 c0 -8 5 -15 10 -15 6 0 10 7 10 15 0 8 -4 15 -10 15 -5 0 -10 -7 -10 -15z"/>
 <path d="M2540 395 c0 -8 5 -15 10 -15 6 0 10 7 10 15 0 8 -4 15 -10 15 -5 0 -10 -7 -10 -15z"/>
 <path d="M2658 403 c7 -3 16 -2 19 1 4 3 -2 6 -13 5 -11 0 -14 -3 -6 -6z"/>
 <path d="M2390 385 c0 -8 7 -15 15 -15 8 0 15 7 15 15 0 8 -7 15 -15 15 -8 0 -15 -7 -15 -15z"/>
 <path d="M2330 370 c0 -5 5 -10 10 -10 6 0 10 5 10 10 0 6 -4 10 -10 10 -5 0 -10 -4 -10 -10z"/>
 <path d="M2110 335 c0 -8 5 -15 10 -15 6 0 10 7 10 15 0 8 -4 15 -10 15 -5 0 -10 -7 -10 -15z"/>
 <path d="M2190 325 c0 -10 11 -15 35 -15 24 0 35 5 35 15 0 10 -11 15 -35 15 -24 0 -35 -5 -35 -15z"/>
 </g>
<g id="layer17" fill="#2f8b78" stroke="none">
 <path d="M938 1858 c9 -9 15 -9 24 0 9 9 7 12 -12 12 -19 0 -21 -3 -12 -12z"/>
 <path d="M1050 1844 c0 -19 6 -26 29 -30 19 -4 28 -11 24 -20 -6 -15 44 -63 67 -64 8 0 20 -11 27 -25 10 -22 8 -26 -15 -38 -16 -7 -27 -21 -27 -32 0 -18 9 -21 70 -26 39 -3 66 -7 60 -8 -5 -2 -22 -2 -37 -1 -30 2 -37 -17 -16 -38 9 -9 9 -12 0 -12 -7 0 -12 -7 -12 -15 0 -8 5 -15 10 -15 6 0 10 -4 10 -10 0 -5 -7 -7 -15 -4 -8 4 -15 1 -15 -5 0 -6 6 -11 14 -11 22 0 61 -69 47 -83 -20 -20 -13 -63 12 -75 12 -6 16 -11 10 -11 -16 -1 -17 -21 -1 -21 6 0 31 -10 56 -21 36 -18 43 -25 38 -43 -4 -14 1 -26 15 -36 20 -16 19 -16 -8 -15 -18 0 -29 -6 -31 -17 -2 -12 3 -18 16 -18 13 0 19 -6 18 -17 0 -10 6 -19 16 -21 11 -2 18 6 23 27 4 17 13 31 20 31 23 0 27 19 11 42 -21 30 -20 38 4 38 11 0 20 7 20 15 0 8 -8 15 -19 15 -10 0 -24 6 -30 14 -7 8 -26 18 -42 21 -27 6 -42 25 -19 25 6 0 10 7 10 15 0 13 9 33 28 64 1 2 13 -1 26 -9 14 -7 32 -10 41 -6 23 9 14 40 -13 44 -26 4 -28 15 -7 36 8 8 15 19 15 24 0 6 7 12 15 16 11 4 14 13 9 32 -6 22 -4 26 9 21 13 -5 17 3 23 39 4 28 11 44 20 44 20 0 17 16 -3 24 -39 14 -68 36 -65 51 4 23 -37 19 -46 -4 -6 -17 -9 -18 -26 -5 -17 12 -18 14 -3 14 22 0 22 19 0 37 -16 12 -14 13 18 7 34 -5 60 8 46 23 -9 9 -117 9 -117 1 0 -5 -12 -1 -26 9 l-26 17 22 16 c20 15 11 16 -130 17 l-150 1 0 -24z m110 -33 c0 -5 -9 -7 -20 -4 -11 3 -20 7 -20 9 0 2 9 4 20 4 11 0 20 -4 20 -9z"/>
 <path d="M1448 1863 c7 -3 16 -2 19 1 4 3 -2 6 -13 5 -11 0 -14 -3 -6 -6z"/>
 <path d="M1380 1850 c19 -13 30 -13 30 0 0 6 -10 10 -22 10 -19 0 -20 -2 -8 -10z"/>
 <path d="M896 1841 c-16 -3 -31 -11 -33 -17 -5 -14 61 -54 88 -54 10 0 19 -4 19 -10 0 -5 7 -10 15 -10 8 0 15 7 15 15 0 8 -9 15 -20 15 -13 0 -22 10 -28 32 -9 35 -14 38 -56 29z"/>
 <path d="M1500 1791 c0 -12 29 -23 41 -15 18 10 9 24 -16 24 -14 0 -25 -4 -25 -9z"/>
 <path d="M1538 1713 c7 -3 16 -2 19 1 4 3 -2 6 -13 5 -11 0 -14 -3 -6 -6z"/>
 <path d="M1640 1700 c0 -5 5 -10 10 -10 6 0 10 5 10 10 0 6 -4 10 -10 10 -5 0 -10 -4 -10 -10z"/>
 <path d="M1563 1623 c-15 -5 -18 -33 -4 -33 8 0 25 30 19 35 -2 1 -9 0 -15 -2z"/>
 <path d="M1352 1094 c1 -9 9 -19 16 -22 9 -3 13 2 10 14 -1 9 -9 19 -16 22 -9 3 -13 -2 -10 -14z"/>
 <path d="M755 1013 c-29 -4 -31 -6 -30 -48 0 -24 3 -46 7 -50 4 -4 4 -13 2 -19 -3 -7 6 -21 20 -30 15 -9 26 -23 26 -31 0 -38 55 13 65 60 13 58 14 59 36 39 17 -16 22 -16 29 -4 15 24 11 41 -7 38 -11 -2 -22 6 -28 20 -6 15 -16 21 -27 18 -10 -2 -18 0 -18 5 0 9 -17 9 -75 2z"/>
 <path d="M925 930 c-3 -5 -4 -14 0 -19 8 -13 -16 -26 -42 -22 -15 1 -23 -3 -23 -13 0 -11 11 -15 39 -14 35 0 41 4 50 30 11 30 7 48 -9 48 -5 0 -12 -4 -15 -10z"/>
 <path d="M721 854 c0 -11 3 -14 6 -6 3 7 2 16 -1 19 -3 4 -6 -2 -5 -13z"/>
 <path d="M830 834 c0 -17 22 -14 28 4 2 7 -3 12 -12 12 -9 0 -16 -7 -16 -16z"/>
 <path d="M750 820 c0 -5 5 -10 10 -10 6 0 10 5 10 10 0 6 -4 10 -10 10 -5 0 -10 -4 -10 -10z"/>
 <path d="M1000 775 c0 -18 45 -49 60 -40 15 9 12 25 -4 25 -7 0 -19 7 -26 15 -16 19 -30 19 -30 0z"/>
 <path d="M1840 305 c0 -8 5 -15 10 -15 6 0 10 7 10 15 0 8 -4 15 -10 15 -5 0 -10 -7 -10 -15z"/>
 </g>
<g id="layer18" fill="#92bbe4" stroke="none">
 <path d="M2110 227 c-3 -3 -196 -10 -430 -17 -234 -7 -433 -17 -442 -22 -15 -7 -111 -23 -198 -33 -14 -1 -45 -5 -70 -9 -25 -3 -72 -8 -105 -11 -84 -8 -124 -16 -131 -26 -3 -5 -18 -9 -34 -9 -16 0 -32 -5 -35 -10 -3 -6 -19 -10 -36 -10 -19 0 -29 -5 -29 -15 0 -8 8 -15 17 -15 9 0 25 -8 36 -17 17 -16 49 -18 296 -21 152 -2 292 -2 311 0 l35 4 -29 12 c-16 7 -53 13 -82 13 -33 1 -58 6 -65 15 -6 8 -23 14 -38 15 -23 1 -22 2 8 9 18 4 36 12 40 17 11 18 301 40 301 23 0 -6 9 -10 20 -10 11 0 20 7 20 15 0 8 5 15 10 15 6 0 10 -4 10 -10 0 -13 318 -12 326 1 3 5 38 6 78 3 41 -3 76 -2 79 3 3 5 27 8 53 7 27 -2 54 2 61 8 9 7 61 9 161 5 153 -7 180 -2 168 29 -6 15 -9 16 -16 4 -7 -12 -10 -12 -16 3 -3 10 -14 17 -23 16 -9 -2 -32 2 -51 8 -35 10 -192 18 -200 10z"/>
 <path d="M2590 175 c0 -7 14 -12 30 -13 19 0 30 4 30 13 0 9 -11 13 -30 13 -16 -1 -30 -6 -30 -13z"/>
 <path d="M2825 161 c-9 -8 -66 -19 -117 -20 -10 -1 -18 -6 -18 -12 0 -13 -26 -40 -32 -34 -3 3 -22 -4 -44 -14 -21 -10 -82 -26 -134 -35 -161 -28 -134 -36 118 -36 186 0 234 3 238 13 9 25 0 149 -11 138z"/>
 <path d="M2308 13 c7 -3 16 -2 19 1 4 3 -2 6 -13 5 -11 0 -14 -3 -6 -6z"/>
 </g>
<g id="layer19" fill="#7293ae" stroke="none">
 <path d="M1260 1195 c0 -9 9 -15 25 -15 28 0 34 15 9 24 -25 10 -34 7 -34 -9z"/>
 <path d="M1378 963 c7 -3 16 -2 19 1 4 3 -2 6 -13 5 -11 0 -14 -3 -6 -6z"/>
 <path d="M1116 952 c-3 -5 -7 -30 -11 -58 -6 -54 12 -91 40 -81 8 4 15 2 15 -4 0 -5 16 -26 35 -46 48 -49 47 -72 -1 -43 -28 16 -40 18 -48 9 -8 -8 -6 -14 7 -23 10 -6 31 -21 45 -34 15 -13 37 -27 50 -32 25 -11 30 -40 7 -40 -20 0 -19 -16 1 -24 26 -10 36 -7 30 9 -9 26 10 16 22 -10 7 -14 12 -29 12 -34 0 -4 -54 -18 -120 -31 -66 -13 -120 -27 -120 -31 0 -13 32 -19 106 -19 62 0 77 3 91 20 21 24 43 26 43 5 0 -8 9 -15 20 -15 11 0 20 7 20 15 0 8 5 15 10 15 6 0 10 5 10 12 0 7 15 25 33 40 27 24 30 30 17 39 -11 8 -12 12 -2 16 6 2 12 16 12 29 0 15 -4 23 -10 19 -16 -10 -70 5 -70 20 0 14 -27 28 -40 20 -5 -3 -12 0 -15 6 -5 7 7 8 39 4 39 -6 46 -5 46 10 0 12 -7 16 -28 14 -31 -4 -55 8 -46 22 4 6 11 6 19 -1 10 -8 15 -6 20 9 9 30 -21 80 -53 87 -53 11 -55 13 -42 30 10 12 11 17 1 27 -10 9 -15 9 -24 -4 -16 -22 -57 -43 -57 -29 0 5 7 10 15 10 8 0 15 7 15 16 0 20 -22 42 -38 36 -6 -2 -15 3 -18 12 -6 17 -29 22 -38 8z m24 -48 c0 -8 -5 -12 -10 -9 -6 4 -8 11 -5 16 9 14 15 11 15 -7z m107 -110 c-3 -3 -12 -4 -19 -1 -8 3 -5 6 6 6 11 1 17 -2 13 -5z m73 -134 c0 -5 -4 -10 -9 -10 -6 0 -13 5 -16 10 -3 6 1 10 9 10 9 0 16 -4 16 -10z m25 -150 c3 -5 1 -10 -4 -10 -6 0 -11 5 -11 10 0 6 2 10 4 10 3 0 8 -4 11 -10z"/>
 <path d="M1400 920 c0 -5 7 -10 15 -10 8 0 15 5 15 10 0 6 -7 10 -15 10 -8 0 -15 -4 -15 -10z"/>
 <path d="M1300 891 c0 -5 11 -16 25 -25 14 -9 25 -23 25 -31 0 -17 16 -20 25 -5 11 18 -4 45 -32 58 -32 14 -43 15 -43 3z"/>
 <path d="M1442 878 c6 -18 28 -21 28 -4 0 9 -7 16 -16 16 -9 0 -14 -5 -12 -12z"/>
 <path d="M1400 856 c0 -9 7 -16 16 -16 9 0 14 5 12 12 -6 18 -28 21 -28 4z"/>
 <path d="M1485 860 c-3 -5 -3 -14 0 -20 3 -6 -4 -10 -17 -11 -13 0 -17 -3 -10 -6 6 -2 12 -11 12 -19 0 -8 6 -14 13 -12 12 3 32 -12 87 -64 17 -16 36 -25 45 -22 8 4 17 -1 21 -10 7 -19 27 -20 55 -3 17 10 23 10 26 0 6 -18 107 -17 158 1 28 10 45 11 59 4 13 -7 31 -6 60 3 23 7 52 14 66 15 14 1 81 12 150 24 69 12 154 23 189 25 61 3 93 16 77 32 -11 11 -120 6 -186 -9 -30 -6 -79 -10 -108 -9 -29 1 -75 -5 -101 -14 -27 -9 -69 -17 -94 -18 -25 -2 -52 -9 -60 -16 -13 -10 -17 -9 -26 6 -8 14 -14 16 -28 7 -10 -5 -37 -10 -60 -9 -24 0 -43 -3 -43 -8 0 -4 -10 -3 -21 4 -12 6 -35 8 -51 5 -26 -5 -29 -3 -23 14 7 22 -20 37 -85 49 -22 4 -39 14 -46 30 -18 36 -47 51 -59 31z"/>
 <path d="M2508 793 c-10 -2 -18 -9 -18 -14 0 -5 33 -9 75 -8 52 1 75 5 75 14 0 12 -94 18 -132 8z"/>
 <path d="M2656 784 c-11 -28 -7 -36 14 -31 11 3 17 1 14 -4 -3 -6 -1 -16 6 -24 17 -20 -58 -32 -145 -23 -56 6 -200 4 -200 -2 0 -4 -84 -11 -122 -11 -50 1 -59 -19 -15 -35 22 -8 7 -11 -73 -12 -106 -3 -283 -34 -325 -57 -14 -8 -33 -17 -42 -21 -10 -3 -18 -13 -18 -22 0 -13 14 -14 108 -7 102 7 131 9 195 13 46 3 34 32 -13 32 -22 0 -40 3 -40 8 0 4 44 7 97 7 85 0 98 -3 101 -18 2 -9 8 -17 14 -17 6 0 8 9 5 19 -3 15 2 20 25 25 30 6 58 -10 58 -33 0 -6 5 -11 10 -11 6 0 10 7 10 15 0 8 -4 15 -10 15 -5 0 -10 5 -10 10 0 6 22 10 49 10 28 0 53 -4 56 -10 3 -5 17 -10 30 -10 13 0 25 -5 27 -11 3 -10 51 -15 171 -18 88 -2 47 -37 -88 -77 -33 -10 -64 -18 -70 -19 -33 -4 -85 -18 -85 -24 0 -4 6 -19 13 -34 9 -21 19 -26 45 -25 17 1 32 4 32 8 0 8 39 23 53 21 4 -1 7 6 7 15 0 8 5 12 10 9 6 -3 10 -15 10 -26 0 -14 7 -19 26 -19 20 0 25 4 22 18 -4 12 1 17 19 17 12 0 23 -6 23 -12 0 -14 22 -16 58 -7 14 4 21 12 18 21 -6 13 14 25 77 44 25 7 27 6 22 -12 -4 -11 -2 -19 4 -19 7 0 11 55 11 165 0 142 -2 164 -15 159 -10 -4 -15 0 -15 11 0 14 -10 16 -63 14 -35 -1 -68 1 -74 4 -6 4 -14 0 -17 -9z m99 -45 c8 -24 -9 -40 -32 -32 -11 4 -12 8 -2 13 6 5 9 15 6 24 -4 10 -1 16 8 16 7 0 17 -10 20 -21z m-240 -84 c-46 -15 -115 -19 -115 -7 0 18 16 22 84 21 l71 -1 -40 -13z"/>
 <path d="M1110 750 c0 -5 7 -10 15 -10 8 0 15 5 15 10 0 6 -7 10 -15 10 -8 0 -15 -4 -15 -10z"/>
 <path d="M1424 734 c3 -8 6 -18 6 -20 0 -2 5 -4 10 -4 16 0 11 27 -6 34 -12 5 -15 2 -10 -10z"/>
 <path d="M1093 698 c2 -7 12 -12 21 -12 9 1 16 -4 16 -11 0 -7 10 -15 23 -18 12 -4 27 -16 32 -28 14 -32 38 -37 33 -8 -2 16 -21 35 -53 56 -52 34 -80 42 -72 21z"/>
 <path d="M1420 685 c0 -8 5 -15 10 -15 6 0 10 7 10 15 0 8 -4 15 -10 15 -5 0 -10 -7 -10 -15z"/>
 <path d="M2038 683 c-10 -2 -18 -11 -18 -20 0 -11 6 -14 23 -9 12 3 39 6 60 6 26 0 37 4 37 15 0 11 -11 15 -42 14 -24 -1 -51 -3 -60 -6z"/>
 <path d="M1900 645 c0 -8 5 -15 10 -15 6 0 10 7 10 15 0 8 -4 15 -10 15 -5 0 -10 -7 -10 -15z"/>
 <path d="M2160 575 c0 -8 5 -15 10 -15 6 0 10 7 10 15 0 8 -4 15 -10 15 -5 0 -10 -7 -10 -15z"/>
 <path d="M2240 575 c0 -8 7 -15 15 -15 8 0 15 7 15 15 0 8 -7 15 -15 15 -8 0 -15 -7 -15 -15z"/>
 <path d="M1380 485 c0 -9 9 -15 25 -15 16 0 25 6 25 15 0 9 -9 15 -25 15 -16 0 -25 -6 -25 -15z"/>
 <path d="M765 479 c-10 -16 6 -30 26 -24 11 4 19 2 19 -5 0 -8 9 -10 28 -4 15 4 42 7 60 6 27 -2 33 1 30 15 -3 15 -16 18 -80 20 -43 1 -80 -2 -83 -8z"/>
 <path d="M728 463 c7 -3 16 -2 19 1 4 3 -2 6 -13 5 -11 0 -14 -3 -6 -6z"/>
 <path d="M2770 419 c0 -11 5 -17 10 -14 6 3 10 13 10 21 0 8 -4 14 -10 14 -5 0 -10 -9 -10 -21z"/>
 <path d="M2350 385 c0 -8 5 -15 10 -15 6 0 10 7 10 15 0 8 -4 15 -10 15 -5 0 -10 -7 -10 -15z"/>
 <path d="M2258 373 c-29 -4 -34 -17 -19 -42 7 -12 13 -12 40 0 30 13 45 51 19 48 -7 -1 -25 -4 -40 -6z"/>
 <path d="M2140 345 c0 -9 9 -15 25 -15 16 0 25 6 25 15 0 9 -9 15 -25 15 -16 0 -25 -6 -25 -15z"/>
 <path d="M2350 335 c0 -11 12 -15 45 -15 33 0 45 4 45 15 0 11 -12 15 -45 15 -33 0 -45 -4 -45 -15z"/>
 <path d="M560 275 c0 -8 5 -15 10 -15 6 0 10 7 10 15 0 8 -4 15 -10 15 -5 0 -10 -7 -10 -15z"/>
 <path d="M2770 255 c0 -7 14 -12 30 -13 19 0 30 4 30 13 0 9 -11 13 -30 13 -16 -1 -30 -6 -30 -13z"/>
 </g>
<g id="layer20" fill="#2f746b" stroke="none">
 <path d="M620 1859 c0 -6 7 -9 15 -5 8 3 15 1 15 -4 0 -6 7 -10 15 -10 8 0 15 7 15 15 0 10 -10 15 -30 15 -16 0 -30 -5 -30 -11z"/>
 <path d="M710 1866 c0 -9 94 -56 114 -56 31 0 47 -14 49 -41 2 -32 15 -39 58 -33 28 5 41 2 56 -13 11 -11 18 -24 15 -31 -6 -18 90 -102 110 -96 9 3 21 -2 26 -12 7 -12 15 -15 28 -9 32 13 52 13 47 -2 -3 -7 -12 -13 -20 -13 -25 0 -8 -25 19 -28 34 -4 55 22 37 45 -11 13 -11 15 -1 9 22 -13 64 2 60 22 -3 14 -18 18 -78 22 -66 5 -72 7 -50 17 44 19 52 36 34 72 -10 20 -22 31 -33 29 -9 -2 -28 7 -41 20 -24 22 -19 27 23 23 9 -1 17 3 17 8 0 6 -5 11 -12 11 -6 0 -20 8 -30 17 -16 14 -23 15 -38 5 -11 -7 -21 -8 -25 -2 -3 5 -1 11 5 15 29 18 -6 22 -180 24 -104 1 -190 0 -190 -3z m223 -55 c4 -18 2 -18 -20 -8 -23 10 -23 12 -6 18 10 4 19 8 19 8 1 1 4 -8 7 -18z"/>
 <path d="M840 1765 c0 -8 5 -15 10 -15 6 0 10 7 10 15 0 8 -4 15 -10 15 -5 0 -10 -7 -10 -15z"/>
 <path d="M220 1600 c0 -11 40 -34 47 -26 3 3 3 12 0 21 -7 16 -47 21 -47 5z"/>
 <path d="M240 1531 c0 -12 6 -21 15 -21 8 0 15 3 15 6 0 3 -7 12 -15 20 -13 14 -15 13 -15 -5z"/>
 <path d="M1140 1515 c0 -8 5 -15 10 -15 6 0 10 7 10 15 0 8 -4 15 -10 15 -5 0 -10 -7 -10 -15z"/>
 <path d="M1298 1523 c-36 -9 -20 -33 23 -33 33 0 40 3 37 18 -3 17 -29 24 -60 15z"/>
 <path d="M1220 1486 c0 -9 5 -16 11 -16 6 0 9 -17 7 -42 -3 -41 -2 -43 22 -40 28 3 50 27 50 54 0 12 -6 18 -17 16 -12 -2 -18 4 -18 17 0 14 -8 21 -27 23 -20 2 -28 -1 -28 -12z"/>
 <path d="M585 1340 c-9 -15 3 -30 25 -30 17 0 37 17 29 24 -13 11 -48 15 -54 6z"/>
 <path d="M1300 1300 c0 -5 5 -10 10 -10 6 0 10 5 10 10 0 6 -4 10 -10 10 -5 0 -10 -4 -10 -10z"/>
 <path d="M371 1288 c4 -30 -3 -38 -31 -38 -36 0 -40 -22 -8 -44 18 -13 19 -16 5 -16 -23 0 -22 -17 3 -30 11 -6 31 -21 45 -34 14 -13 43 -26 65 -30 29 -5 38 -10 34 -21 -4 -10 0 -15 16 -15 31 0 60 -18 60 -37 0 -9 3 -13 7 -9 4 3 22 -8 40 -26 29 -28 33 -29 33 -12 1 13 5 9 15 -13 8 -18 20 -33 27 -33 7 0 23 -3 36 -6 15 -5 22 -2 22 8 0 8 9 23 19 32 19 17 20 17 31 -3 18 -34 40 -26 37 14 -1 18 2 33 8 32 5 -1 9 -9 7 -17 -2 -14 8 -20 86 -50 38 -15 40 -22 10 -43 -27 -18 -16 -35 34 -51 26 -9 34 -19 45 -58 7 -27 18 -48 23 -48 14 0 12 27 -2 33 -7 3 0 6 16 6 27 1 28 2 21 39 -4 20 -16 45 -26 55 -13 12 -18 26 -14 38 5 13 2 19 -10 19 -8 0 -20 11 -25 25 -5 14 -15 25 -23 25 -7 0 -21 13 -30 29 -10 17 -26 32 -36 36 -14 4 -18 15 -17 42 1 29 -3 38 -20 42 -21 6 -84 71 -84 87 -1 14 -48 64 -60 64 -6 0 -10 -8 -8 -17 7 -37 -171 -33 -200 5 -10 13 -16 14 -31 5 -16 -10 -24 -9 -44 7 -31 24 -34 25 -40 3 -4 -17 -5 -17 -6 0 0 9 -8 17 -16 17 -9 0 -15 -6 -14 -12z"/>
 <path d="M271 1276 c-14 -16 -2 -56 16 -56 10 0 12 6 8 21 -5 15 -2 22 14 26 12 3 21 9 21 13 0 12 -49 9 -59 -4z"/>
 <path d="M1360 1250 c0 -5 7 -10 15 -10 8 0 15 5 15 10 0 6 -7 10 -15 10 -8 0 -15 -4 -15 -10z"/>
 <path d="M1370 1206 c-5 -5 -10 -16 -10 -24 0 -20 74 -12 78 9 4 20 -51 32 -68 15z"/>
 <path d="M1310 1166 c0 -8 -6 -17 -12 -19 -10 -4 -9 -8 2 -16 23 -16 43 -13 36 5 -3 9 -6 22 -6 30 0 8 -4 14 -10 14 -5 0 -10 -6 -10 -14z"/>
 <path d="M2710 395 c0 -8 7 -15 15 -15 8 0 15 7 15 15 0 8 -7 15 -15 15 -8 0 -15 -7 -15 -15z"/>
 <path d="M2650 385 c0 -8 5 -15 10 -15 6 0 10 7 10 15 0 8 -4 15 -10 15 -5 0 -10 -7 -10 -15z"/>
 <path d="M2338 363 c7 -3 16 -2 19 1 4 3 -2 6 -13 5 -11 0 -14 -3 -6 -6z"/>
 <path d="M2260 325 c0 -11 11 -15 40 -15 29 0 40 4 40 15 0 11 -11 15 -40 15 -29 0 -40 -4 -40 -15z"/>
 <path d="M1888 323 c-10 -2 -18 -11 -18 -20 0 -11 6 -14 23 -9 12 3 25 6 30 6 4 0 7 7 7 15 0 15 -9 17 -42 8z"/>
 <path d="M2030 315 c0 -8 5 -15 10 -15 6 0 10 7 10 15 0 8 -4 15 -10 15 -5 0 -10 -7 -10 -15z"/>
 <path d="M640 265 c0 -11 11 -15 40 -15 29 0 40 4 40 15 0 11 -11 15 -40 15 -29 0 -40 -4 -40 -15z"/>
 </g>
<g id="layer21" fill="#077790" stroke="none">
 <path d="M2831 1354 c0 -11 3 -14 6 -6 3 7 2 16 -1 19 -3 4 -6 -2 -5 -13z"/>
 <path d="M570 820 c-6 -11 -17 -20 -25 -20 -8 0 -15 -4 -15 -10 0 -5 -13 -10 -30 -10 -36 0 -80 -19 -80 -35 0 -8 -22 -15 -55 -20 -30 -3 -55 -11 -55 -16 0 -5 -6 -9 -14 -9 -7 0 -16 -10 -20 -22 -4 -17 -8 -20 -14 -10 -7 10 -11 10 -21 -2 -7 -8 -10 -20 -6 -26 4 -6 -7 -10 -29 -10 -19 0 -41 -7 -49 -15 -9 -8 -41 -18 -71 -21 -44 -5 -56 -11 -55 -23 3 -30 -1 -42 -11 -36 -7 4 -10 -51 -10 -159 l0 -165 90 0 c72 0 90 3 90 14 0 10 -11 15 -35 15 -24 0 -35 5 -35 15 0 20 -10 19 -26 -3 -13 -16 -13 -16 -14 1 0 12 -9 17 -32 18 -32 0 -32 1 -8 10 13 5 71 9 127 7 82 -2 106 0 113 11 10 17 31 23 83 23 24 -1 37 4 37 12 0 22 22 34 69 40 24 3 46 7 48 10 11 11 -11 28 -33 23 -34 -6 -51 7 -34 28 22 27 -4 40 -83 42 -40 1 -81 3 -92 3 -11 1 9 8 45 16 36 8 82 13 103 10 25 -3 37 0 37 8 0 13 34 15 46 3 12 -12 24 -8 24 8 0 14 24 20 59 15 27 -3 61 11 61 25 0 8 9 15 21 15 15 0 19 5 15 18 -5 14 -1 18 16 18 24 -1 25 5 12 72 -4 23 -11 32 -20 28 -16 -6 -19 15 -5 29 5 6 7 22 4 37 -5 26 -26 38 -70 38 -13 0 -23 5 -23 10 0 17 -19 11 -30 -10z m90 -144 c-7 -7 -13 -7 -20 0 -6 6 -3 10 10 10 13 0 16 -4 10 -10z"/>
 <path d="M700 790 c0 -5 7 -10 15 -10 8 0 15 5 15 10 0 6 -7 10 -15 10 -8 0 -15 -4 -15 -10z"/>
 <path d="M730 660 c0 -5 7 -10 15 -10 8 0 15 5 15 10 0 6 -7 10 -15 10 -8 0 -15 -4 -15 -10z"/>
 <path d="M470 440 c0 -22 1 -23 24 -14 23 9 20 34 -4 34 -13 0 -20 -7 -20 -20z"/>
 </g>
<g id="layer22" fill="#4f96b4" stroke="none">
 <path d="M1750 1030 c0 -5 5 -10 10 -10 6 0 10 5 10 10 0 6 -4 10 -10 10 -5 0 -10 -4 -10 -10z"/>
 <path d="M1550 1021 c0 -16 27 -31 44 -25 10 4 16 1 16 -9 0 -9 -10 -17 -22 -19 -29 -4 -30 -33 -2 -33 11 0 28 -6 37 -14 13 -10 20 -11 31 -2 11 9 20 10 36 1 11 -6 25 -8 30 -5 10 6 42 -9 83 -42 16 -13 41 -23 57 -23 16 0 31 -4 34 -9 3 -4 52 -11 108 -15 147 -8 218 -17 218 -27 0 -8 85 -6 287 7 50 3 93 1 96 -3 3 -5 58 -10 121 -11 107 -1 116 0 116 17 0 19 -32 28 -117 34 -17 1 -34 5 -38 8 -3 4 -55 5 -115 3 -93 -4 -110 -2 -110 11 0 20 -46 30 -76 16 -20 -9 -26 -8 -30 4 -8 19 -24 19 -24 1 0 -14 -46 -17 -259 -17 -18 0 -40 6 -50 13 -26 22 -64 37 -91 36 -14 -1 -33 2 -44 7 -10 5 -26 4 -35 -2 -20 -13 -41 -6 -41 14 0 12 -7 14 -35 9 -32 -6 -35 -5 -32 16 2 20 -2 23 -25 20 -23 -2 -28 1 -28 18 0 25 -25 37 -44 21 -10 -8 -16 -9 -21 -1 -8 12 -75 14 -75 1z"/>
 <path d="M1541 916 c-12 -14 -5 -66 9 -66 7 0 20 47 20 71 0 14 -16 11 -29 -5z"/>
 <path d="M1590 875 c0 -10 11 -15 35 -15 24 0 35 5 35 15 0 10 -11 15 -35 15 -24 0 -35 -5 -35 -15z"/>
 <path d="M1670 825 c-16 -19 -5 -35 24 -35 27 0 51 24 41 40 -9 15 -51 12 -65 -5z"/>
 <path d="M1000 691 c0 -5 7 -12 16 -15 22 -9 24 -8 24 9 0 8 -9 15 -20 15 -11 0 -20 -4 -20 -9z"/>
 <path d="M1070 650 c0 -11 4 -20 10 -20 5 0 7 -7 4 -15 -4 -9 0 -15 10 -15 16 0 21 -27 8 -46 -4 -6 -52 -16 -107 -23 -102 -12 -164 -28 -177 -46 -5 -6 -11 -5 -16 3 -7 11 -16 10 -49 -3 -22 -9 -53 -15 -69 -13 -21 2 -29 -2 -32 -15 -3 -14 3 -17 25 -16 15 0 54 -3 86 -7 49 -6 57 -5 57 10 0 21 9 20 26 -1 7 -10 14 -13 14 -8 0 6 43 9 114 7 94 -2 115 1 120 13 3 8 12 15 21 15 8 0 15 7 15 15 0 16 -25 21 -34 7 -3 -4 -21 -6 -41 -4 -57 7 -32 15 58 19 84 4 176 35 177 60 0 6 -24 23 -52 38 -29 14 -69 34 -88 45 -47 26 -80 26 -80 0z"/>
 <path d="M1990 601 c0 -9 -17 -13 -122 -27 -31 -4 -48 -11 -48 -20 0 -9 9 -12 28 -9 47 8 364 26 369 21 2 -2 -31 -7 -74 -11 -128 -12 -166 -19 -171 -33 -3 -11 34 -17 87 -14 8 0 20 -7 27 -16 9 -13 17 -14 35 -6 28 11 79 7 79 -7 0 -5 7 -9 15 -9 8 0 15 5 15 11 0 5 4 8 9 5 5 -3 7 -15 4 -26 -6 -22 -1 -24 70 -20 29 1 47 -2 47 -9 0 -6 7 -11 15 -11 8 0 15 4 15 10 0 16 41 34 49 21 10 -15 143 19 225 59 35 16 69 30 75 30 6 0 11 6 11 14 0 17 -51 26 -147 26 -58 0 -73 3 -73 15 0 8 -4 15 -10 15 -5 0 -10 -4 -10 -9 0 -14 -39 -20 -43 -7 -5 14 -477 22 -477 7z"/>
 <path d="M1370 561 c0 -12 5 -21 10 -21 6 0 10 6 10 14 0 8 -4 18 -10 21 -5 3 -10 -3 -10 -14z"/>
 <path d="M1330 525 c0 -8 5 -15 10 -15 6 0 10 7 10 15 0 8 -4 15 -10 15 -5 0 -10 -7 -10 -15z"/>
 <path d="M1500 484 c0 -16 39 -34 76 -34 13 0 24 5 24 10 0 6 7 10 15 10 8 0 15 7 15 15 0 18 -26 20 -33 3 -4 -9 -8 -10 -14 -2 -13 18 -83 16 -83 -2z"/>
 <path d="M1650 486 c0 -7 9 -16 21 -19 15 -4 19 -2 15 10 -3 8 -6 17 -6 19 0 2 -7 4 -15 4 -8 0 -15 -6 -15 -14z"/>
 <path d="M1370 475 c0 -9 9 -15 25 -15 16 0 25 6 25 15 0 9 -9 15 -25 15 -16 0 -25 -6 -25 -15z"/>
 <path d="M600 465 c0 -8 7 -15 15 -15 8 0 15 7 15 15 0 8 -7 15 -15 15 -8 0 -15 -7 -15 -15z"/>
 <path d="M1180 465 c0 -9 16 -13 55 -13 36 1 55 5 55 13 0 8 -19 12 -55 13 -39 0 -55 -4 -55 -13z"/>
 <path d="M2560 375 c0 -8 5 -15 10 -15 6 0 10 7 10 15 0 8 -4 15 -10 15 -5 0 -10 -7 -10 -15z"/>
 <path d="M2470 365 c0 -8 7 -15 15 -15 8 0 15 7 15 15 0 8 -7 15 -15 15 -8 0 -15 -7 -15 -15z"/>
 <path d="M2330 345 c0 -8 5 -15 10 -15 6 0 10 7 10 15 0 8 -4 15 -10 15 -5 0 -10 -7 -10 -15z"/>
 <path d="M1960 325 c0 -8 7 -15 15 -15 8 0 15 7 15 15 0 8 -7 15 -15 15 -8 0 -15 -7 -15 -15z"/>
 <path d="M1820 315 c0 -8 5 -15 10 -15 6 0 10 7 10 15 0 8 -4 15 -10 15 -5 0 -10 -7 -10 -15z"/>
 <path d="M2190 315 c0 -10 10 -15 30 -15 20 0 30 5 30 15 0 10 -10 15 -30 15 -20 0 -30 -5 -30 -15z"/>
 <path d="M1730 300 c0 -5 5 -10 10 -10 6 0 10 5 10 10 0 6 -4 10 -10 10 -5 0 -10 -4 -10 -10z"/>
 <path d="M2760 295 c0 -9 9 -15 25 -15 16 0 25 -6 25 -15 0 -8 7 -15 15 -15 10 0 15 10 15 30 0 28 -2 30 -40 30 -29 0 -40 -4 -40 -15z"/>
 <path d="M736 275 c-5 -18 -13 -25 -31 -25 -14 0 -25 5 -25 11 0 7 -12 9 -35 5 -19 -4 -43 -3 -52 2 -10 5 -66 13 -125 17 -92 6 -108 5 -108 -8 0 -11 22 -16 104 -22 58 -4 110 -4 115 0 6 3 11 0 11 -8 0 -16 97 -50 102 -35 2 6 11 4 20 -6 21 -20 38 -21 38 -1 0 15 29 10 41 -8 4 -5 13 -6 20 -1 8 5 94 9 192 10 98 1 181 4 183 7 3 3 -6 17 -19 31 -21 23 -32 26 -86 26 -48 0 -61 -3 -61 -15 0 -11 -12 -15 -50 -15 -38 0 -50 4 -50 15 0 17 -75 22 -85 5 -15 -24 -75 0 -75 29 0 21 -18 11 -24 -14z"/>
 <path d="M2470 275 c0 -11 11 -15 40 -15 29 0 40 4 40 15 0 11 -11 15 -40 15 -29 0 -40 -4 -40 -15z"/>
 <path d="M17 203 c-4 -3 -7 -33 -7 -65 l0 -59 26 20 c15 12 39 21 55 21 15 0 32 7 37 16 5 8 23 16 41 16 18 1 35 7 38 15 4 10 34 13 124 13 99 0 119 3 119 15 0 13 -30 15 -213 15 -118 0 -217 -3 -220 -7z"/>
 <path d="M10 20 c0 -5 9 -10 21 -10 11 0 17 4 14 10 -3 6 -13 10 -21 10 -8 0 -14 -4 -14 -10z"/>
 </g>
<g id="layer23" fill="#3391ae" stroke="none">
 <path d="M1710 1031 c-19 -3 -35 -12 -34 -18 1 -7 2 -24 3 -38 0 -14 6 -25 11 -25 6 0 8 11 4 28 -7 27 -7 27 13 7 12 -13 18 -29 15 -48 -4 -26 -2 -27 22 -21 16 4 26 2 26 -5 0 -6 10 -11 23 -11 71 0 175 -9 192 -16 11 -4 25 -14 30 -21 12 -16 43 -17 233 -11 78 2 142 1 142 -3 0 -9 5 -9 170 -15 63 -2 131 -6 150 -8 19 -3 56 -8 83 -12 l47 -7 0 39 0 39 -65 2 c-35 1 -72 6 -82 12 -17 10 -17 10 0 11 9 0 17 5 17 10 0 14 -53 13 -68 -2 -9 -9 -13 -8 -17 4 -4 10 -20 16 -45 16 -21 0 -56 6 -78 13 -27 8 -45 8 -58 1 -22 -11 -84 -4 -84 9 0 5 -7 9 -15 9 -8 0 -15 -6 -15 -14 0 -10 -12 -13 -47 -11 -26 2 -49 7 -51 13 -1 5 -14 7 -28 4 -17 -3 -33 3 -50 18 l-24 23 0 -21 c0 -12 -4 -22 -10 -22 -5 0 -10 6 -10 14 0 20 -19 31 -32 18 -7 -7 -18 -8 -27 -3 -14 7 -48 12 -101 13 -8 0 -36 -3 -62 -7 -44 -7 -47 -6 -41 14 3 12 1 21 -6 21 -6 0 -11 -6 -11 -13 0 -10 -16 -14 -52 -15 -40 -1 -49 2 -35 9 17 10 24 30 10 28 -5 -1 -24 -4 -43 -8z"/>
 <path d="M990 680 c0 -10 8 -23 18 -29 15 -9 14 -11 -9 -20 -15 -5 -29 -15 -31 -22 -2 -7 -22 -13 -45 -14 -22 0 -51 -8 -64 -16 -13 -9 -46 -21 -74 -27 -27 -6 -72 -16 -100 -23 -27 -6 -71 -13 -97 -16 -32 -3 -48 -10 -48 -19 0 -8 4 -14 9 -14 5 0 11 -9 14 -20 7 -26 27 -26 34 0 6 22 24 23 31 2 2 -7 -3 -12 -12 -12 -9 0 -16 -7 -16 -15 0 -12 14 -15 70 -15 56 0 70 -3 70 -15 0 -8 5 -15 10 -15 6 0 13 7 16 15 7 17 24 20 24 4 0 -25 -45 -48 -97 -49 -28 0 -54 -4 -57 -9 -3 -5 -26 -12 -51 -16 -26 -3 -49 -13 -52 -21 -4 -11 -32 -14 -137 -14 -88 -1 -141 -5 -161 -14 l-30 -14 33 -7 c19 -5 36 -14 39 -21 3 -8 22 -15 47 -16 36 -1 37 -2 9 -5 -20 -3 -33 -10 -33 -19 0 -11 23 -14 129 -14 70 0 149 3 175 6 67 10 59 30 -16 38 -157 18 -157 32 0 40 64 4 146 11 182 17 155 24 203 28 331 29 151 2 167 6 149 40 -8 16 -18 20 -34 16 -13 -3 -31 1 -42 8 -15 12 -16 16 -5 29 15 19 7 36 -17 36 -9 0 -71 3 -137 7 -142 8 -206 7 -218 -5 -10 -10 -55 -2 -63 10 -3 5 1 9 8 9 81 3 164 14 169 22 4 6 47 15 96 22 62 8 98 18 118 33 l30 21 -23 24 c-12 14 -22 30 -22 36 0 7 -4 12 -9 12 -5 0 -11 7 -13 16 -2 9 -21 22 -43 30 -52 18 -55 18 -55 -6z m-295 -228 c-2 -2 -13 -1 -26 3 -16 5 -18 9 -9 15 11 7 43 -10 35 -18z"/>
 <path d="M2560 505 c0 -8 5 -15 10 -15 6 0 10 7 10 15 0 8 -4 15 -10 15 -5 0 -10 -7 -10 -15z"/>
 <path d="M680 255 c0 -10 10 -15 30 -15 20 0 30 5 30 15 0 10 -10 15 -30 15 -20 0 -30 -5 -30 -15z"/>
 <path d="M850 245 c0 -8 23 -13 75 -14 62 -1 75 1 75 14 0 13 -13 15 -75 14 -52 -1 -75 -6 -75 -14z"/>
 <path d="M11 194 c0 -11 3 -14 6 -6 3 7 2 16 -1 19 -3 4 -6 -2 -5 -13z"/>
 </g>
<g id="layer24" fill="#276456" stroke="none">
 <path d="M620 1850 c12 -23 90 -27 90 -4 0 16 1 16 -57 19 -38 3 -42 1 -33 -15z"/>
 <path d="M10 1502 c1 -204 3 -234 15 -219 13 18 14 18 25 -2 8 -15 20 -21 45 -21 24 0 35 -5 35 -15 0 -9 9 -15 21 -15 17 0 20 5 16 21 -5 20 -5 20 14 3 10 -9 22 -15 25 -11 3 3 28 -1 55 -9 27 -8 55 -11 62 -7 6 4 19 6 28 5 9 -2 33 6 52 17 29 16 38 17 46 7 6 -8 9 -21 5 -30 -4 -11 -1 -16 10 -16 11 0 16 7 14 18 -2 10 2 16 11 14 8 -2 27 -4 43 -5 15 -1 28 -5 28 -8 0 -7 34 -10 108 -12 17 0 32 -5 32 -12 0 -17 33 -41 58 -41 15 0 21 5 17 14 -3 7 -5 16 -5 18 0 2 -7 4 -15 4 -12 0 -14 10 -11 46 3 25 1 54 -4 63 -5 9 -11 24 -14 34 -3 9 -15 17 -26 17 -11 0 -24 8 -27 17 -4 10 -20 29 -36 42 -16 14 -34 29 -41 35 -6 6 -29 20 -51 31 -22 11 -42 22 -45 25 -8 8 -106 41 -116 39 -5 -1 -31 7 -57 19 -27 12 -54 22 -61 22 -7 0 -28 14 -46 30 -18 17 -42 30 -52 30 -10 0 -18 6 -18 13 0 18 -69 62 -109 70 l-31 7 0 -238z"/>
 <path d="M1110 1716 c-41 -15 -46 -40 -10 -43 30 -2 76 29 66 46 -9 13 -11 13 -56 -3z"/>
 <path d="M965 1670 c-9 -14 3 -30 24 -30 18 0 41 18 41 32 0 12 -58 10 -65 -2z"/>
 <path d="M1060 1610 c0 -5 7 -10 15 -10 8 0 15 5 15 10 0 6 -7 10 -15 10 -8 0 -15 -4 -15 -10z"/>
 <path d="M1220 1605 c0 -10 10 -15 30 -15 20 0 30 5 30 15 0 10 -10 15 -30 15 -20 0 -30 -5 -30 -15z"/>
 <path d="M950 1070 c0 -5 7 -10 15 -10 8 0 15 5 15 10 0 6 -7 10 -15 10 -8 0 -15 -4 -15 -10z"/>
 <path d="M993 945 c4 -9 7 -21 7 -26 0 -5 7 -9 15 -9 22 0 18 28 -7 41 -18 10 -20 9 -15 -6z"/>
 <path d="M2680 395 c0 -8 7 -15 15 -15 8 0 15 7 15 15 0 8 -7 15 -15 15 -8 0 -15 -7 -15 -15z"/>
 <path d="M2590 385 c0 -10 10 -15 30 -15 20 0 30 5 30 15 0 10 -10 15 -30 15 -20 0 -30 -5 -30 -15z"/>
 <path d="M2328 383 c-10 -2 -18 -11 -18 -20 0 -10 6 -13 16 -9 9 3 20 6 25 6 5 0 9 7 9 15 0 15 -2 16 -32 8z"/>
 <path d="M2480 375 c0 -8 7 -15 15 -15 8 0 15 7 15 15 0 8 -7 15 -15 15 -8 0 -15 -7 -15 -15z"/>
 <path d="M2033 337 c-80 -8 -103 -14 -103 -25 0 -12 15 -14 93 -8 126 9 157 16 157 32 0 15 3 15 -147 1z"/>
 </g>
<g id="layer25" fill="#8ea1ad" stroke="none">
 <path d="M1122 1464 c1 -9 9 -19 16 -22 9 -3 13 2 10 14 -1 9 -9 19 -16 22 -9 3 -13 -2 -10 -14z"/>
 <path d="M1050 1325 c0 -8 5 -15 10 -15 6 0 10 7 10 15 0 8 -4 15 -10 15 -5 0 -10 -7 -10 -15z"/>
 <path d="M1240 1276 c0 -9 7 -16 16 -16 9 0 14 5 12 12 -6 18 -28 21 -28 4z"/>
 <path d="M1234 1209 c-10 -17 23 -46 38 -31 8 8 8 15 -2 27 -15 18 -26 19 -36 4z"/>
 <path d="M1246 1151 c-11 -16 5 -61 21 -61 10 0 13 9 11 32 -3 32 -21 48 -32 29z"/>
 <path d="M1290 1035 c0 -8 5 -15 10 -15 6 0 10 7 10 15 0 8 -4 15 -10 15 -5 0 -10 -7 -10 -15z"/>
 <path d="M1149 1030 c-11 -8 -12 -13 -2 -29 12 -19 11 -20 -13 -11 -14 6 -27 10 -30 10 -10 0 -3 -25 13 -42 16 -18 16 -18 0 -12 -26 10 -21 -20 5 -31 27 -12 37 -45 14 -45 -9 0 -16 -7 -16 -15 0 -8 7 -15 16 -15 9 0 28 -13 42 -28 15 -16 39 -32 53 -35 22 -6 25 -11 21 -32 -3 -17 0 -25 10 -25 8 0 23 -9 33 -20 17 -18 17 -20 1 -20 -9 0 -19 -6 -22 -14 -6 -17 -28 -11 -63 16 -25 19 -91 25 -91 8 0 -5 17 -18 38 -29 20 -10 49 -33 65 -50 15 -17 32 -31 39 -31 6 0 19 -7 29 -16 19 -17 43 -10 35 11 -2 7 2 16 10 19 17 7 19 36 2 36 -7 0 -13 11 -13 25 0 14 3 25 8 25 4 0 12 -11 17 -25 5 -14 15 -25 22 -25 7 0 19 -10 27 -21 11 -19 10 -25 -8 -50 -12 -15 -21 -33 -21 -39 0 -14 -17 -13 -23 3 -4 10 -7 10 -18 0 -7 -7 -29 -13 -49 -13 -19 -1 -46 -7 -59 -14 l-24 -13 28 -5 c15 -3 53 -4 84 -2 32 2 109 5 171 8 62 3 117 9 123 15 5 5 16 7 23 4 8 -3 22 -2 32 2 19 8 34 10 101 13 38 2 43 4 38 23 -7 25 9 32 143 59 66 13 140 20 220 21 80 0 124 4 132 12 17 16 78 14 88 -3 8 -13 54 -11 160 6 33 5 34 4 16 -10 -19 -15 -18 -16 15 -16 19 0 41 6 48 13 10 10 11 9 6 -5 -8 -20 19 -26 30 -8 3 6 15 10 26 10 10 0 19 6 19 14 0 22 -19 29 -37 14 -13 -10 -17 -10 -20 0 -3 6 -13 12 -24 12 -10 0 -19 4 -19 9 0 5 35 12 78 16 96 8 102 10 102 34 0 14 8 21 28 23 20 2 28 9 30 27 3 21 1 23 -20 18 -46 -12 -158 -18 -170 -10 -16 10 -338 11 -338 1 0 -5 -9 -8 -20 -8 -11 0 -20 4 -20 8 0 5 -20 10 -44 10 -35 2 -45 -2 -49 -17 -3 -12 -17 -21 -43 -25 -103 -16 -132 -18 -138 -7 -4 6 -14 11 -22 11 -17 0 -19 -27 -1 -33 6 -2 -16 -3 -51 -3 -51 1 -66 -3 -73 -17 -11 -18 -39 -24 -39 -7 0 16 -21 11 -39 -9 -16 -19 -17 -19 -30 10 -13 31 -47 39 -68 18 -9 -9 -16 -8 -28 5 -9 9 -20 16 -25 16 -5 0 -10 10 -12 23 -2 15 -9 21 -23 20 -27 -3 -72 16 -79 32 -4 13 -26 24 -103 56 -18 8 -33 18 -33 23 0 4 -7 6 -14 3 -10 -4 -13 -1 -10 8 3 7 -4 18 -15 25 -14 7 -21 7 -21 0 0 -17 -27 -11 -69 17 -32 20 -38 29 -30 40 20 24 -34 70 -62 53z m59 -160 c10 -17 10 -20 -3 -20 -8 0 -15 2 -15 4 0 2 -3 11 -6 20 -9 23 9 20 24 -4z m56 -36 c11 -28 6 -34 -14 -22 -11 7 -20 18 -20 25 0 18 27 16 34 -3z m61 -55 c-10 -15 -25 -10 -19 6 4 8 10 12 15 9 5 -3 7 -10 4 -15z m272 -115 c-3 -3 -12 -4 -19 -1 -8 3 -5 6 6 6 11 1 17 -2 13 -5z m126 -101 c-7 -2 -21 -2 -30 0 -10 3 -4 5 12 5 17 0 24 -2 18 -5z m-223 -38 c11 -13 10 -14 -4 -9 -9 3 -16 10 -16 15 0 13 6 11 20 -6z"/>
 <path d="M1340 1008 c1 -17 35 -58 49 -58 18 0 13 24 -9 48 -23 24 -40 29 -40 10z"/>
 <path d="M1100 890 c0 -5 5 -10 10 -10 6 0 10 5 10 10 0 6 -4 10 -10 10 -5 0 -10 -4 -10 -10z"/>
 <path d="M2053 763 c-20 -8 -15 -23 7 -23 11 0 20 7 20 15 0 15 -6 17 -27 8z"/>
 <path d="M1740 726 c0 -10 9 -16 21 -16 24 0 21 23 -4 28 -10 2 -17 -3 -17 -12z"/>
 <path d="M1790 726 c0 -9 7 -16 16 -16 9 0 14 5 12 12 -6 18 -28 21 -28 4z"/>
 <path d="M2810 615 c0 -8 5 -15 10 -15 6 0 10 7 10 15 0 8 -4 15 -10 15 -5 0 -10 -7 -10 -15z"/>
 <path d="M2656 481 c-3 -4 -16 -6 -30 -4 -13 3 -33 0 -44 -6 -11 -6 -49 -14 -84 -17 -68 -7 -78 -10 -78 -25 0 -7 15 -8 40 -4 30 5 44 3 56 -9 21 -22 40 -20 57 4 l14 21 6 -21 c9 -37 77 -23 77 16 0 13 5 24 10 24 6 0 10 7 10 15 0 16 -25 21 -34 6z"/>
 <path d="M2776 479 c-46 -11 -76 -34 -76 -60 0 -17 9 -18 63 -10 4 0 7 8 7 16 0 8 9 15 19 15 33 0 51 11 51 31 0 21 -6 21 -64 8z"/>
 <path d="M2463 413 c-22 -8 -14 -23 12 -23 16 0 25 6 25 15 0 15 -14 18 -37 8z"/>
 </g>
<g id="layer26" fill="#59a0c7" stroke="none">
 <path d="M1780 836 c0 -8 -7 -16 -15 -20 -22 -8 -18 -19 12 -33 40 -19 53 -16 53 12 0 14 -4 25 -10 25 -5 0 -10 7 -10 15 0 8 -7 15 -15 15 -8 0 -15 -6 -15 -14z"/>
 <path d="M1872 841 c-11 -7 -10 -10 3 -15 26 -10 35 -7 35 9 0 17 -18 19 -38 6z"/>
 <path d="M1925 840 c-9 -14 1 -25 23 -26 10 -1 28 -2 42 -4 l25 -2 -24 -7 c-14 -4 -26 -12 -29 -19 -5 -16 23 -26 46 -17 9 4 49 8 88 9 39 1 78 7 86 13 9 8 19 9 28 3 22 -14 40 -12 40 3 0 19 -59 34 -155 42 -44 3 -99 8 -122 11 -25 3 -44 1 -48 -6z"/>
 <path d="M2430 805 c0 -8 5 -15 10 -15 6 0 10 7 10 15 0 8 -4 15 -10 15 -5 0 -10 -7 -10 -15z"/>
 <path d="M1640 795 c0 -8 5 -15 10 -15 6 0 10 7 10 15 0 8 -4 15 -10 15 -5 0 -10 -7 -10 -15z"/>
 <path d="M1680 780 c0 -5 7 -10 15 -10 8 0 15 5 15 10 0 6 -7 10 -15 10 -8 0 -15 -4 -15 -10z"/>
 <path d="M2075 574 c-33 -8 -109 -19 -170 -25 -60 -6 -135 -16 -165 -23 -30 -7 -84 -14 -120 -15 -71 -3 -80 -6 -80 -26 0 -9 11 -12 41 -9 28 3 46 -1 56 -12 9 -9 25 -13 35 -10 11 2 17 2 14 -2 -4 -3 -85 -5 -181 -3 -149 2 -175 1 -175 -12 0 -20 57 -26 215 -22 72 2 149 4 173 4 30 1 42 5 42 16 0 8 3 15 8 15 4 0 7 -11 7 -25 0 -25 -12 -30 -59 -25 -10 1 -22 -4 -27 -11 -6 -10 -11 -10 -24 1 -13 11 -18 10 -28 -3 -9 -12 -31 -17 -77 -18 -36 -1 -70 -6 -77 -11 -7 -5 -16 -7 -22 -4 -5 3 -21 2 -35 -4 -14 -5 -67 -12 -118 -15 -51 -3 -127 -10 -168 -16 -41 -5 -144 -12 -228 -16 -134 -5 -155 -9 -165 -25 -7 -11 -23 -18 -42 -18 -22 0 -26 3 -16 9 20 13 -22 24 -74 19 -57 -5 -58 -28 -2 -28 38 0 44 -3 41 -18 -5 -16 3 -17 77 -13 58 2 80 0 75 -8 -5 -7 -64 -11 -182 -11 -153 0 -174 -2 -174 -16 0 -15 27 -16 288 -10 158 4 393 7 522 7 244 -1 270 2 270 24 0 10 -38 14 -170 17 -246 5 -248 36 -2 39 47 1 82 6 82 11 0 6 14 8 33 5 17 -2 47 2 66 9 18 8 38 11 45 7 16 -11 167 -12 194 -1 27 9 52 32 52 46 0 13 29 19 128 28 72 6 82 5 82 -10 0 -14 15 -16 106 -16 63 0 114 5 127 12 12 7 42 15 67 18 37 4 46 9 48 28 2 14 10 22 22 22 10 0 21 4 25 9 3 5 30 15 60 21 38 8 55 16 55 27 0 12 -7 14 -32 9 -18 -4 -67 -11 -108 -16 -41 -5 -85 -12 -98 -16 -18 -5 -21 -3 -16 10 4 11 1 16 -10 16 -9 0 -16 -7 -16 -15 0 -9 -9 -15 -22 -14 -17 1 -19 2 -5 6 21 5 22 17 2 33 -8 7 -35 11 -65 8 -33 -2 -50 1 -50 8 0 15 23 24 59 24 31 0 70 24 58 36 -13 13 -107 12 -172 -2z m-323 -266 c-7 -7 -12 -8 -12 -2 0 14 12 26 19 19 2 -3 -1 -11 -7 -17z m-610 -60 c-12 -12 -96 -26 -167 -27 -29 -1 -36 2 -25 9 10 6 11 10 3 10 -7 0 -13 5 -13 10 0 6 42 10 107 10 83 0 104 -3 95 -12z"/>
 <path d="M1250 563 c-8 -3 -22 -11 -30 -18 -9 -8 -58 -15 -123 -19 -75 -4 -112 -10 -122 -20 -25 -25 -17 -34 25 -29 31 4 41 2 46 -11 8 -22 134 -21 134 1 0 8 -8 13 -17 12 -10 -1 -31 0 -48 1 l-30 2 30 9 c17 4 59 11 95 14 79 7 94 15 85 44 -6 21 -17 24 -45 14z"/>
 <path d="M1430 485 c0 -10 11 -15 35 -15 24 0 35 5 35 15 0 10 -11 15 -35 15 -24 0 -35 -5 -35 -15z"/>
 <path d="M1257 483 c-17 -17 -2 -23 53 -23 47 0 60 3 60 15 0 11 -13 15 -53 15 -30 0 -57 -3 -60 -7z"/>
 <path d="M2815 450 c-11 -4 -30 -20 -42 -34 -17 -19 -32 -26 -59 -26 -27 0 -35 -4 -31 -14 4 -10 -5 -16 -29 -20 -20 -4 -34 -13 -34 -21 0 -12 16 -15 68 -16 48 -1 31 -4 -63 -11 -71 -5 -131 -12 -132 -16 -2 -4 -48 -5 -103 -4 -84 3 -100 1 -100 -11 0 -12 19 -17 90 -23 50 -3 90 -10 90 -15 0 -19 49 -9 55 11 8 24 55 28 55 5 0 -12 16 -15 86 -15 47 0 105 5 130 11 l44 11 0 99 c0 55 -1 99 -2 98 -2 0 -12 -4 -23 -9z m-35 -140 c0 -5 -5 -10 -11 -10 -5 0 -7 5 -4 10 3 6 8 10 11 10 2 0 4 -4 4 -10z"/>
 <path d="M2580 375 c0 -8 7 -15 15 -15 8 0 15 7 15 15 0 8 -7 15 -15 15 -8 0 -15 -7 -15 -15z"/>
 <path d="M1950 357 c0 -7 -9 -19 -20 -27 -28 -20 -25 -40 5 -40 20 0 25 5 25 25 0 20 5 25 25 25 16 0 25 6 25 15 0 10 -10 15 -30 15 -18 0 -30 -5 -30 -13z"/>
 <path d="M2440 336 c0 -9 7 -16 16 -16 9 0 14 5 12 12 -6 18 -28 21 -28 4z"/>
 <path d="M2250 315 c0 -10 11 -15 35 -15 24 0 35 5 35 15 0 10 -11 15 -35 15 -24 0 -35 -5 -35 -15z"/>
 <path d="M460 275 c0 -11 12 -15 50 -15 38 0 50 4 50 15 0 11 -12 15 -50 15 -38 0 -50 -4 -50 -15z"/>
 <path d="M2227 273 c-12 -11 -8 -23 8 -23 8 0 15 7 15 15 0 16 -12 20 -23 8z"/>
 <path d="M1900 225 c0 -10 15 -14 60 -14 43 1 60 4 60 14 0 10 -17 13 -60 14 -45 0 -60 -4 -60 -14z"/>
 <path d="M184 185 c-10 -8 -29 -15 -41 -15 -12 0 -29 -7 -37 -16 -9 -9 -32 -20 -51 -25 -25 -7 -37 -17 -41 -34 -9 -38 3 -74 29 -80 36 -9 305 0 280 9 -39 14 -107 53 -110 63 -3 9 117 52 177 62 47 8 52 36 9 45 -61 12 -194 7 -215 -9z"/>
 </g>
<g id="layer27" fill="#6dabd1" stroke="none">
 <path d="M1790 837 c0 -8 7 -17 15 -21 8 -3 15 -16 15 -29 0 -20 -7 -26 -42 -33 -23 -5 -43 -14 -45 -20 -5 -16 44 -24 81 -13 17 5 60 9 96 9 36 0 70 4 76 9 5 4 70 14 144 21 163 16 173 16 233 18 34 2 47 6 47 17 0 12 -13 15 -58 15 -32 0 -61 -2 -64 -5 -3 -3 -39 -7 -79 -9 -41 -2 -103 -7 -139 -10 l-65 -5 53 11 c78 16 70 38 -15 39 -77 2 -91 3 -185 14 -57 6 -68 5 -68 -8z m110 -41 c0 -2 -7 -6 -15 -10 -8 -3 -15 -1 -15 4 0 6 7 10 15 10 8 0 15 -2 15 -4z"/>
 <path d="M1610 795 c0 -8 7 -15 15 -15 8 0 15 7 15 15 0 8 -7 15 -15 15 -8 0 -15 -7 -15 -15z"/>
 <path d="M1673 793 c-7 -2 -13 -12 -13 -20 0 -10 6 -13 16 -9 9 3 18 6 20 6 2 0 4 7 4 15 0 15 -6 17 -27 8z"/>
 <path d="M1210 615 c0 -8 7 -15 15 -15 8 0 15 7 15 15 0 8 -7 15 -15 15 -8 0 -15 -7 -15 -15z"/>
 <path d="M1273 551 c-11 -10 -28 -21 -38 -22 -28 -6 -31 -29 -3 -29 48 0 98 20 98 39 0 11 -7 22 -16 25 -20 8 -17 9 -41 -13z"/>
 <path d="M1888 557 c-66 -7 -88 -13 -88 -24 0 -12 14 -13 83 -8 45 4 88 8 95 10 13 5 17 36 5 34 -5 -1 -47 -6 -95 -12z"/>
 <path d="M1696 531 c-40 -8 -46 -31 -8 -31 50 0 92 12 92 26 0 15 -32 17 -84 5z"/>
 <path d="M1083 513 c-29 -3 -43 -9 -43 -19 0 -10 14 -14 58 -14 71 0 102 8 102 26 0 14 -21 15 -117 7z"/>
 <path d="M1610 505 c0 -17 9 -19 28 -6 11 7 10 10 -3 15 -23 9 -25 8 -25 -9z"/>
 <path d="M1520 495 c0 -8 7 -15 15 -15 8 0 15 7 15 15 0 8 -7 15 -15 15 -8 0 -15 -7 -15 -15z"/>
 <path d="M1360 485 c0 -8 5 -15 10 -15 6 0 10 7 10 15 0 8 -4 15 -10 15 -5 0 -10 -7 -10 -15z"/>
 <path d="M738 463 c7 -3 16 -2 19 1 4 3 -2 6 -13 5 -11 0 -14 -3 -6 -6z"/>
 <path d="M790 455 c0 -8 5 -15 10 -15 6 0 10 7 10 15 0 8 -4 15 -10 15 -5 0 -10 -7 -10 -15z"/>
 <path d="M2782 441 c-23 -19 -29 -41 -12 -41 6 0 10 4 10 8 0 5 11 14 25 20 27 12 34 32 12 32 -8 0 -24 -8 -35 -19z"/>
 <path d="M2375 430 c-6 -10 6 -50 15 -50 7 0 40 44 40 53 0 8 -50 5 -55 -3z"/>
 <path d="M2567 433 c-14 -13 -6 -33 13 -33 13 0 20 7 20 20 0 19 -20 27 -33 13z"/>
 <path d="M2050 403 c-143 -9 -246 -25 -257 -39 -6 -9 -31 -17 -55 -19 -59 -3 -58 -3 -58 -19 0 -15 -57 -16 -92 -1 -9 3 -27 1 -39 -6 -13 -6 -45 -11 -71 -10 -26 1 -48 -2 -48 -7 0 -4 -33 -9 -72 -10 -40 -1 -124 -5 -185 -9 -82 -4 -113 -3 -113 6 0 6 -9 11 -20 11 -11 0 -20 -4 -20 -10 0 -5 -18 -10 -40 -10 -29 0 -40 -4 -40 -15 0 -8 6 -15 13 -15 9 0 9 -2 -1 -9 -22 -13 10 -21 88 -21 78 0 110 8 88 21 -9 6 -7 9 8 9 12 0 24 -6 27 -14 3 -8 23 -17 44 -19 21 -2 -27 -5 -107 -6 -80 -2 -149 -4 -155 -6 -5 -1 -16 -3 -22 -3 -7 -1 -13 -9 -13 -18 0 -11 5 -14 18 -9 9 3 101 6 205 5 151 -1 188 2 193 13 6 17 174 23 185 6 4 -7 73 -8 230 -1 123 6 316 13 428 16 113 3 230 10 260 15 31 5 95 6 144 3 61 -3 87 -1 87 7 0 6 11 11 25 11 16 0 25 6 25 15 0 9 -9 15 -25 15 -14 0 -25 -4 -25 -10 0 -5 -9 -10 -20 -10 -11 0 -20 5 -20 10 0 6 -8 11 -17 12 -10 1 29 4 87 7 84 5 105 9 105 21 0 9 -16 18 -45 25 -34 7 -45 14 -42 26 2 11 10 15 23 12 13 -4 19 0 19 11 0 13 -8 15 -42 10 -24 -2 -110 -11 -193 -18 -82 -8 -157 -15 -165 -17 -11 -3 -14 3 -12 20 4 23 2 24 -44 17 -26 -3 -53 -6 -60 -6 -8 0 -14 -7 -14 -15 0 -8 8 -15 19 -15 10 0 21 -9 24 -20 5 -19 1 -20 -106 -19 l-112 2 83 9 c59 7 82 14 82 24 0 10 -13 14 -42 14 -31 0 -39 3 -28 10 8 5 12 11 10 13 -10 8 -56 13 -100 10z m260 -43 c0 -5 -7 -10 -16 -10 -8 0 -12 5 -9 10 3 6 10 10 16 10 5 0 9 -4 9 -10z m-353 -46 c-3 -3 -12 -4 -19 -1 -8 3 -5 6 6 6 11 1 17 -2 13 -5z m566 -41 c-7 -2 -19 -2 -25 0 -7 3 -2 5 12 5 14 0 19 -2 13 -5z"/>
 <path d="M2820 315 c0 -8 5 -15 10 -15 6 0 10 7 10 15 0 8 -4 15 -10 15 -5 0 -10 -7 -10 -15z"/>
 <path d="M692 281 c-11 -7 -10 -10 3 -15 29 -11 55 -7 55 9 0 16 -36 20 -58 6z"/>
 <path d="M840 275 c0 -17 9 -19 28 -6 11 7 10 10 -3 15 -23 9 -25 8 -25 -9z"/>
 <path d="M2831 254 c0 -11 3 -14 6 -6 3 7 2 16 -1 19 -3 4 -6 -2 -5 -13z"/>
 <path d="M598 203 c-156 -3 -208 -6 -208 -16 0 -6 -44 -26 -98 -44 -118 -38 -126 -53 -55 -98 l48 -30 239 -3 c163 -3 236 0 232 7 -4 6 -23 13 -44 17 -20 4 -46 13 -57 20 -11 8 -29 14 -41 14 -19 0 -41 26 -31 36 2 2 36 8 77 14 40 6 80 15 87 22 8 6 37 11 65 12 36 1 54 6 62 18 21 34 7 35 -276 31z"/>
 <path d="M2815 20 c-3 -5 1 -10 9 -10 9 0 16 5 16 10 0 6 -4 10 -9 10 -6 0 -13 -4 -16 -10z"/>
 </g>
<g id="layer28" fill="#0e897b" stroke="none">
 <path d="M1013 1863 c11 -10 108 -13 102 -2 -4 5 -29 9 -57 9 -28 0 -48 -3 -45 -7z"/>
 <path d="M1210 1855 c10 -12 10 -15 -4 -15 -9 0 -16 -5 -16 -11 0 -7 11 -9 26 -6 16 3 28 0 31 -9 8 -20 35 -4 30 18 -4 13 1 22 16 28 17 7 7 9 -37 9 -51 1 -57 -1 -46 -14z"/>
 <path d="M1485 1860 c4 -6 16 -8 28 -4 21 6 21 6 5 -13 -10 -11 -18 -25 -18 -31 0 -17 30 -15 36 2 7 18 31 10 37 -12 3 -12 5 -10 6 6 1 26 32 30 51 7 11 -14 7 -19 -12 -16 -5 0 -8 -3 -8 -9 0 -5 -7 -10 -15 -10 -21 0 -19 -19 3 -27 9 -4 23 -13 30 -20 18 -18 32 -16 32 3 0 13 6 11 25 -10 13 -14 29 -26 35 -26 16 0 12 30 -5 36 -18 7 -20 24 -2 24 7 0 18 -15 25 -33 6 -18 19 -42 27 -52 13 -17 16 -18 25 -5 14 21 12 30 -5 24 -11 -4 -15 1 -15 17 0 18 3 20 12 11 7 -7 29 -12 51 -12 33 0 38 -2 32 -19 -7 -24 28 -46 53 -35 9 4 22 8 28 9 6 2 22 6 35 9 l24 7 -24 -21 c-21 -18 -22 -23 -10 -31 19 -12 29 -11 29 2 0 7 7 17 16 24 24 17 64 -3 64 -32 0 -24 25 -32 32 -11 3 8 9 8 24 0 10 -6 13 -12 7 -12 -8 0 -13 -12 -12 -27 0 -16 3 -22 6 -15 2 6 16 12 29 12 13 0 24 -6 24 -12 0 -9 4 -8 10 2 8 13 11 11 16 -7 7 -27 31 -30 37 -5 4 13 5 12 6 -5 1 -13 -7 -27 -19 -33 -31 -17 -24 -27 23 -33 29 -4 45 -2 52 7 6 7 25 15 43 18 28 4 36 1 45 -19 5 -12 18 -23 29 -23 20 0 24 -16 6 -23 -8 -4 -7 -6 3 -6 9 -1 22 6 29 14 7 8 22 14 34 14 17 -1 17 -2 4 -6 -10 -2 -18 -14 -18 -25 0 -15 5 -19 20 -15 13 3 30 -5 50 -23 38 -36 59 -43 79 -28 13 10 14 10 4 -2 -23 -25 -16 -42 15 -36 15 3 34 2 42 -4 10 -6 11 -10 3 -10 -7 0 -13 -4 -13 -10 0 -5 9 -10 20 -10 11 0 20 -6 20 -14 0 -8 17 -25 38 -37 20 -13 41 -29 45 -36 20 -32 27 -7 27 93 0 124 -14 191 -41 199 -11 4 -31 17 -44 30 -14 12 -39 25 -55 29 -24 4 -30 11 -30 30 0 14 -4 28 -10 31 -5 3 -10 1 -10 -5 0 -6 -4 -8 -10 -5 -5 3 -10 17 -10 30 0 18 -4 23 -15 19 -11 -4 -13 -2 -10 8 6 16 -53 51 -77 46 -7 -2 -14 7 -16 19 -2 13 -13 24 -28 27 -15 4 -24 14 -24 26 0 23 -18 35 -47 31 -17 -2 -23 3 -23 18 0 11 -8 25 -19 30 -26 14 -895 15 -886 1z m215 -64 c0 -3 -4 -8 -10 -11 -5 -3 -10 -1 -10 4 0 6 5 11 10 11 6 0 10 -2 10 -4z m77 -32 c-3 -3 -12 -4 -19 -1 -8 3 -5 6 6 6 11 1 17 -2 13 -5z m215 -50 c-13 -10 -18 -10 -21 -1 -2 7 -8 17 -13 24 -7 9 -3 9 21 0 26 -10 28 -12 13 -23z m663 -134 c3 -5 1 -10 -4 -10 -6 0 -11 5 -11 10 0 6 2 10 4 10 3 0 8 -4 11 -10z"/>
 <path d="M1140 1831 c0 -5 3 -17 6 -26 5 -13 8 -14 15 -3 13 20 11 38 -6 38 -8 0 -15 -4 -15 -9z"/>
 <path d="M1280 1784 c0 -9 5 -14 12 -12 18 6 21 28 4 28 -9 0 -16 -7 -16 -16z"/>
 <path d="M1554 1745 c3 -9 6 -19 6 -21 0 -2 7 -4 15 -4 21 0 19 13 -6 29 -19 11 -21 11 -15 -4z"/>
 <path d="M2020 1615 c0 -8 5 -15 11 -15 5 0 8 -4 4 -10 -3 -5 -13 -6 -21 -3 -14 5 -15 1 -9 -28 7 -32 20 -48 38 -49 11 0 8 25 -5 38 -9 9 -8 12 6 12 9 0 26 -5 37 -10 16 -9 19 -7 19 10 0 13 -7 20 -20 20 -11 0 -20 5 -20 11 0 11 -24 39 -34 39 -3 0 -6 -7 -6 -15z"/>
 <path d="M2100 1516 c0 -10 9 -16 21 -16 24 0 21 23 -4 28 -10 2 -17 -3 -17 -12z"/>
 <path d="M2175 1520 c-8 -13 4 -50 16 -50 5 0 9 14 9 30 0 30 -13 40 -25 20z"/>
 <path d="M2100 1475 c0 -8 5 -15 10 -15 6 0 10 7 10 15 0 8 -4 15 -10 15 -5 0 -10 -7 -10 -15z"/>
 <path d="M2610 1294 c0 -9 7 -14 17 -12 25 5 28 28 4 28 -12 0 -21 -6 -21 -16z"/>
 <path d="M2625 1261 c-8 -15 3 -31 21 -31 9 0 14 7 12 17 -4 20 -24 28 -33 14z"/>
 <path d="M480 916 c0 -9 7 -16 16 -16 17 0 14 22 -4 28 -7 2 -12 -3 -12 -12z"/>
 <path d="M620 923 c0 -5 -17 -8 -37 -8 -30 0 -40 -5 -48 -22 -5 -13 -16 -23 -23 -23 -7 0 -12 -8 -10 -17 2 -13 19 -21 58 -28 30 -5 71 -20 91 -32 43 -27 84 -30 93 -7 8 22 -9 41 -45 49 -32 7 -33 9 -19 35 6 11 17 17 25 14 8 -3 22 2 31 11 13 13 14 19 4 28 -9 9 -14 9 -17 0 -3 -8 -13 -9 -36 -2 -39 11 -67 12 -67 2z"/>
 <path d="M481 864 c0 -11 3 -14 6 -6 3 7 2 16 -1 19 -3 4 -6 -2 -5 -13z"/>
 <path d="M650 760 c0 -5 7 -10 15 -10 8 0 15 5 15 10 0 6 -7 10 -15 10 -8 0 -15 -4 -15 -10z"/>
 </g>
<g id="layer29" fill="#188b89" stroke="none">
 <path d="M1217 1863 c-10 -9 -9 -23 1 -23 5 0 17 7 28 15 19 14 19 14 -2 15 -11 0 -24 -3 -27 -7z"/>
 <path d="M1260 1855 c-15 -18 -3 -38 21 -32 25 7 50 -23 42 -51 -4 -16 -1 -22 10 -22 9 0 19 5 22 10 3 6 17 10 31 10 13 0 24 5 24 10 0 6 -7 10 -16 10 -11 0 -13 6 -9 20 5 17 0 20 -45 26 -37 5 -50 10 -46 20 7 19 -18 18 -34 -1z"/>
 <path d="M1385 1860 c3 -5 14 -10 23 -10 12 0 13 -3 4 -12 -17 -17 -15 -41 3 -35 8 4 17 2 21 -4 3 -5 13 -9 22 -8 30 3 40 -1 46 -16 4 -12 2 -13 -13 -6 -34 19 -55 -24 -25 -53 14 -15 14 -16 0 -16 -9 0 -16 -4 -16 -10 0 -11 20 -14 58 -11 18 1 22 -3 22 -25 0 -22 -2 -25 -15 -14 -21 17 -19 -4 1 -25 11 -10 25 -14 40 -11 13 4 28 0 36 -7 14 -14 52 -16 64 -4 4 4 12 7 18 7 6 0 5 -5 -2 -12 -18 -18 -15 -27 12 -38 19 -7 23 -14 19 -31 -4 -16 -2 -20 8 -17 8 3 13 17 12 32 -1 17 3 26 13 26 8 0 14 6 14 13 0 6 12 -1 27 -18 15 -17 21 -31 14 -33 -19 -6 -12 -22 9 -22 11 0 20 -6 20 -14 0 -16 34 -31 49 -21 20 12 61 -7 66 -31 3 -13 7 -35 10 -49 4 -16 12 -25 25 -25 29 0 70 -21 70 -37 0 -7 7 -13 15 -13 10 0 15 -11 15 -35 0 -24 5 -35 15 -35 8 0 15 5 15 10 0 16 19 11 41 -11 12 -12 27 -18 36 -15 13 5 14 4 3 -9 -7 -8 -19 -15 -26 -15 -8 0 -14 -5 -14 -11 0 -11 17 -9 67 6 18 6 25 2 34 -18 l12 -26 19 25 c17 21 22 23 32 10 20 -25 86 -38 118 -22 23 12 28 12 28 1 0 -7 6 -16 13 -18 17 -8 -12 -27 -30 -20 -7 3 -13 1 -13 -5 0 -15 41 -22 61 -11 23 12 22 12 47 -9 14 -13 39 -19 74 -21 70 -2 88 -8 88 -32 0 -12 12 -24 37 -34 20 -8 38 -13 40 -11 2 2 20 0 39 -4 l34 -8 0 104 c0 65 -5 113 -12 126 -20 34 -51 58 -70 54 -19 -4 -33 33 -18 48 18 18 10 28 -18 24 -33 -5 -65 21 -56 46 4 10 1 16 -9 16 -8 0 -17 5 -19 12 -2 6 -18 11 -36 11 -26 0 -30 3 -20 14 8 10 8 17 -2 26 -9 9 -14 9 -17 1 -5 -14 -43 -6 -43 9 0 7 -4 7 -12 -1 -20 -20 -48 -15 -45 9 2 26 -20 38 -25 13 -3 -16 -4 -17 -20 -1 -9 9 -30 17 -47 17 -24 0 -32 5 -37 25 -7 27 -24 34 -24 10 0 -8 -4 -15 -10 -15 -5 0 -10 6 -10 14 0 8 -7 16 -15 20 -8 3 -15 12 -15 21 0 8 -7 15 -15 15 -8 0 -15 6 -15 14 0 7 -13 16 -30 19 -21 5 -28 11 -24 22 3 8 1 15 -5 15 -6 0 -11 7 -11 15 0 18 -46 38 -72 32 -11 -3 -18 0 -18 9 0 8 -8 15 -17 16 -10 0 -23 2 -30 2 -15 2 -30 16 -16 16 6 0 11 11 11 25 0 29 -23 34 -31 6 -6 -23 -64 -42 -88 -30 -10 5 -24 3 -36 -6 -23 -16 -33 -11 -33 17 0 15 -5 17 -25 12 -17 -4 -25 -2 -25 6 0 9 -4 9 -12 2 -16 -13 -58 18 -58 42 0 9 -6 16 -14 16 -7 0 -28 3 -45 6 -26 6 -30 4 -25 -9 5 -13 0 -16 -25 -14 -17 1 -33 8 -36 15 -6 15 -79 16 -107 1 -15 -8 -19 -8 -14 0 5 7 -5 11 -29 11 -22 0 -34 -4 -30 -10z m615 -460 c0 -5 -8 -10 -17 -10 -15 0 -16 2 -3 10 19 12 20 12 20 0z m157 -26 c-3 -3 -12 -4 -19 -1 -8 3 -5 6 6 6 11 1 17 -2 13 -5z m-27 -64 c0 -5 -2 -10 -4 -10 -3 0 -8 5 -11 10 -3 6 -1 10 4 10 6 0 11 -4 11 -10z m30 -30 c0 -5 -2 -10 -4 -10 -3 0 -8 5 -11 10 -3 6 -1 10 4 10 6 0 11 -4 11 -10z m90 -50 c0 -5 -7 -7 -15 -4 -8 4 -15 8 -15 10 0 2 7 4 15 4 8 0 15 -4 15 -10z"/>
 <path d="M1390 1725 c0 -9 9 -15 25 -15 28 0 34 15 9 24 -25 10 -34 7 -34 -9z"/>
 <path d="M1760 1540 c0 -5 5 -10 10 -10 6 0 10 5 10 10 0 6 -4 10 -10 10 -5 0 -10 -4 -10 -10z"/>
 <path d="M1727 1493 c-4 -3 -7 -11 -7 -17 0 -6 5 -5 12 2 6 6 9 14 7 17 -3 3 -9 2 -12 -2z"/>
 <path d="M1810 1440 c0 -5 4 -10 9 -10 5 0 16 -3 25 -6 11 -4 16 -1 16 10 0 10 -9 16 -25 16 -14 0 -25 -4 -25 -10z"/>
 <path d="M2200 1180 c0 -5 7 -10 15 -10 8 0 15 5 15 10 0 6 -7 10 -15 10 -8 0 -15 -4 -15 -10z"/>
 <path d="M2370 1055 c0 -8 5 -15 10 -15 6 0 10 7 10 15 0 8 -4 15 -10 15 -5 0 -10 -7 -10 -15z"/>
 <path d="M710 909 c0 -7 -11 -8 -30 -4 -24 5 -30 3 -30 -9 0 -13 -6 -15 -27 -10 -16 4 -36 11 -45 15 -25 13 -28 11 -28 -15 0 -28 17 -43 32 -28 7 7 21 2 45 -14 20 -13 43 -24 52 -24 9 0 25 -7 35 -15 20 -15 20 -15 0 -16 -44 -3 -49 -5 -48 -21 1 -10 -2 -18 -7 -18 -5 0 -9 -8 -9 -18 0 -13 -11 -21 -37 -28 -44 -11 -57 -34 -19 -34 14 0 26 -5 26 -11 0 -7 11 -9 30 -5 34 6 35 4 18 -24 -10 -16 -10 -22 1 -32 11 -10 14 -10 18 0 3 6 12 12 20 12 10 0 13 6 9 16 -6 17 4 16 48 -2 16 -6 18 -4 14 14 -5 19 -3 21 18 16 15 -4 24 -2 24 6 0 6 4 9 9 6 5 -4 11 -2 13 4 2 6 24 11 51 12 55 3 59 15 16 43 -17 11 -33 32 -36 48 -4 18 -11 27 -22 25 -21 -3 -61 23 -61 40 0 18 -52 82 -67 82 -7 0 -13 -5 -13 -11z"/>
 <path d="M620 610 c0 -5 7 -10 15 -10 8 0 15 5 15 10 0 6 -7 10 -15 10 -8 0 -15 -4 -15 -10z"/>
 </g>
<g id="layer30" fill="#077472" stroke="none">
 <path d="M1038 1863 c7 -3 16 -2 19 1 4 3 -2 6 -13 5 -11 0 -14 -3 -6 -6z"/>
 <path d="M2127 1859 c8 -8 22 -8 50 -1 l38 10 -49 1 c-37 1 -47 -2 -39 -10z"/>
 <path d="M2225 1860 c3 -5 17 -10 31 -10 13 0 24 5 24 10 0 6 -14 10 -31 10 -17 0 -28 -4 -24 -10z"/>
 <path d="M2325 1861 c3 -5 1 -12 -5 -16 -16 -10 -12 -22 10 -28 33 -8 23 -25 -20 -32 -48 -8 -50 -16 -9 -34 33 -14 48 -9 31 11 -10 13 -7 13 66 9 7 -1 12 -14 12 -32 0 -33 7 -34 67 -12 17 6 17 6 1 -14 -23 -25 -23 -33 2 -33 11 0 20 5 20 11 0 5 5 7 10 4 6 -3 10 -15 10 -26 0 -10 5 -19 10 -19 6 0 10 -6 10 -14 0 -17 51 -28 68 -14 9 8 12 3 12 -21 0 -17 -4 -31 -10 -31 -5 0 -10 -4 -10 -10 0 -5 13 -10 29 -10 29 0 61 -22 61 -41 0 -5 14 -9 30 -9 24 0 30 -4 30 -21 0 -12 8 -23 20 -26 22 -6 28 -33 8 -33 -7 -1 -1 -8 15 -16 15 -8 32 -12 37 -9 6 4 10 99 10 241 l0 234 -261 0 c-158 0 -258 -4 -254 -9z"/>
 <path d="M1132 1808 c6 -18 28 -21 28 -4 0 9 -7 16 -16 16 -9 0 -14 -5 -12 -12z"/>
 <path d="M27 1365 c-15 -10 -16 -54 -17 -429 l0 -418 27 6 c16 4 37 18 48 31 13 16 36 26 68 30 26 4 47 11 47 16 0 5 11 9 24 9 16 0 35 14 60 44 31 38 42 45 87 51 28 4 53 13 56 21 3 8 11 14 18 14 7 0 15 6 18 14 4 9 17 12 41 9 28 -3 36 0 36 13 0 12 6 15 24 10 15 -4 28 0 36 9 6 7 18 11 26 8 16 -6 18 5 5 25 -4 8 -17 13 -27 12 -11 -1 -22 -1 -26 0 -5 1 -14 3 -20 4 -12 1 -13 6 -9 39 2 18 53 18 67 0 12 -18 34 -10 34 13 0 16 9 18 29 5 19 -12 51 4 51 25 0 8 -7 17 -15 20 -8 4 -15 13 -15 21 0 9 -6 13 -14 10 -8 -3 -17 1 -20 9 -3 9 -15 14 -28 12 -16 -2 -26 4 -33 20 -5 12 -14 22 -20 22 -6 0 -19 14 -28 30 -20 34 -36 39 -38 13 -1 -10 -4 -4 -8 12 -3 18 -15 34 -29 40 -12 5 -22 14 -22 20 0 16 -52 35 -77 29 -16 -5 -23 -2 -23 9 0 18 -46 50 -63 44 -7 -2 -20 2 -29 10 -9 9 -31 16 -48 18 -17 1 -36 7 -43 14 -15 15 -37 14 -37 -1 0 -8 -7 -5 -15 6 -8 11 -15 14 -15 8 0 -7 -7 -12 -15 -12 -8 0 -15 4 -15 8 0 5 -9 18 -20 30 -16 17 -17 23 -6 29 11 6 11 10 2 19 -9 8 -17 8 -29 -1z m419 -242 c-4 -4 -11 -1 -16 7 -16 25 -11 35 7 17 9 -9 13 -20 9 -24z"/>
 </g>
<g id="layer31" fill="#2c9491" stroke="none">
 <path d="M1304 1847 c1 -12 8 -22 16 -22 30 -1 50 -20 43 -43 -3 -12 -9 -22 -14 -22 -5 0 -9 -6 -9 -14 0 -8 15 -17 36 -21 20 -3 49 -19 66 -37 28 -29 30 -29 43 -12 8 11 15 27 15 37 0 9 10 27 21 38 l22 22 -24 18 c-16 13 -33 17 -52 13 -27 -6 -28 -5 -15 15 7 12 18 21 25 21 7 0 13 6 13 14 0 10 -22 13 -94 14 -90 1 -93 0 -92 -21z"/>
 <path d="M1540 1805 c0 -8 7 -15 15 -15 8 0 15 7 15 15 0 8 -7 15 -15 15 -8 0 -15 -7 -15 -15z"/>
 <path d="M1530 1710 c0 -5 7 -10 15 -10 8 0 15 5 15 10 0 6 -7 10 -15 10 -8 0 -15 -4 -15 -10z"/>
 <path d="M1608 1703 c-22 -6 -23 -19 -3 -27 8 -3 15 -12 15 -21 0 -8 5 -15 10 -15 6 0 10 -6 10 -13 0 -9 -10 -12 -31 -9 -27 4 -30 7 -24 30 5 22 3 24 -19 20 -14 -3 -27 0 -29 6 -3 8 -8 8 -16 0 -15 -14 -4 -41 17 -47 16 -4 16 -5 0 -6 -9 0 -20 4 -23 9 -10 16 -26 11 -23 -7 1 -10 -5 -33 -15 -52 -9 -19 -17 -40 -17 -47 0 -19 -33 -77 -52 -92 -10 -7 -18 -19 -18 -27 0 -8 -9 -21 -21 -29 -12 -8 -18 -19 -15 -24 3 -6 1 -12 -6 -14 -24 -8 2 -35 40 -42 38 -6 59 -27 46 -47 -3 -6 1 -20 10 -33 14 -22 14 -24 -4 -29 -15 -4 -20 -14 -20 -36 0 -17 -6 -41 -12 -52 -9 -15 -10 -23 -2 -26 6 -2 9 -15 6 -30 -3 -16 -1 -24 5 -20 6 4 40 9 75 12 69 6 76 1 82 -55 0 -8 8 -15 16 -15 10 0 14 8 12 28 -3 25 0 27 37 27 34 0 38 -2 34 -20 -3 -11 -1 -21 3 -21 36 -6 72 -5 91 2 13 5 40 3 65 -4 35 -11 50 -10 85 1 49 16 73 11 80 -18 3 -11 14 -20 24 -20 10 0 21 -4 24 -10 9 -14 48 -13 63 2 9 9 12 8 12 -5 0 -9 5 -17 10 -17 6 0 10 7 10 15 0 20 19 19 42 -1 12 -12 22 -14 30 -7 7 5 40 8 73 7 33 -2 75 1 93 6 25 7 32 5 32 -6 0 -21 18 -17 30 6 14 26 30 26 30 0 0 -14 7 -20 21 -20 16 0 20 5 16 20 -6 24 -3 25 15 6 26 -25 52 -27 81 -3 20 15 26 27 21 40 -6 17 -7 17 -19 0 -13 -17 -14 -16 -24 10 -6 16 -11 29 -11 31 0 1 21 2 48 1 43 0 47 -2 44 -22 -2 -13 1 -23 6 -23 12 0 22 24 22 52 0 16 -5 19 -21 15 -13 -3 -19 -1 -16 6 2 7 15 12 28 12 15 0 24 6 24 15 0 19 -51 26 -71 9 -12 -10 -13 -9 -8 5 5 12 0 16 -21 16 -18 0 -29 6 -32 19 -3 12 -11 17 -23 14 -14 -4 -17 0 -13 21 4 19 1 26 -11 26 -9 0 -16 7 -16 16 0 13 -7 15 -37 9 -21 -4 -43 -11 -49 -16 -8 -6 -14 -4 -18 6 -3 8 -1 15 4 15 25 0 7 28 -21 34 -48 9 -52 8 -47 -19 3 -14 1 -28 -3 -31 -5 -3 -9 4 -9 16 0 12 -9 24 -22 30 -18 7 -19 9 -5 9 23 1 22 13 -3 29 -15 9 -19 19 -14 38 6 23 4 24 -21 18 -31 -8 -47 9 -39 42 4 15 -1 23 -20 32 -17 8 -26 8 -28 0 -6 -17 -68 -18 -68 -2 0 16 -16 19 -25 4 -3 -5 -18 -9 -33 -9 l-27 2 25 4 c24 5 40 19 40 36 0 4 -8 4 -17 0 -44 -21 -89 8 -99 64 -6 30 -8 32 -19 17 -8 -12 -14 -14 -19 -6 -4 7 -18 12 -32 12 -14 0 -27 7 -30 15 -4 8 -16 15 -28 16 -11 0 -15 3 -8 6 20 8 15 45 -5 41 -10 -2 -17 -11 -17 -20 2 -19 -24 -14 -42 8 -5 7 -22 16 -37 19 -22 6 -27 4 -27 -11 -1 -17 -2 -17 -13 -3 -7 8 -21 19 -32 23 -13 5 -15 10 -7 13 15 6 16 45 0 61 -12 12 -20 13 -50 5z m226 -174 c-8 -14 -24 -10 -24 6 0 9 6 12 15 9 8 -4 12 -10 9 -15z m30 -33 c-6 -16 -24 -23 -24 -8 0 10 22 33 27 28 2 -2 1 -11 -3 -20z m116 -56 c0 -21 -18 -17 -28 6 -11 23 -10 24 8 14 11 -6 20 -15 20 -20z m-509 -18 c-7 -2 -18 1 -23 6 -8 8 -4 9 13 5 13 -4 18 -8 10 -11z m705 -93 c-40 -11 -50 11 -13 28 17 8 23 7 28 -6 4 -11 -1 -18 -15 -22z m-81 11 c3 -5 1 -10 -4 -10 -6 0 -11 5 -11 10 0 6 2 10 4 10 3 0 8 -4 11 -10z m170 -40 c3 -6 -1 -7 -9 -4 -18 7 -21 14 -7 14 6 0 13 -4 16 -10z"/>
 <path d="M1740 1650 c0 -5 7 -10 15 -10 8 0 15 5 15 10 0 6 -7 10 -15 10 -8 0 -15 -4 -15 -10z"/>
 <path d="M2020 1470 c0 -5 5 -10 10 -10 6 0 10 5 10 10 0 6 -4 10 -10 10 -5 0 -10 -4 -10 -10z"/>
 <path d="M2430 1246 c0 -9 7 -16 16 -16 9 0 14 5 12 12 -6 18 -28 21 -28 4z"/>
 <path d="M1460 966 c0 -8 7 -16 15 -20 17 -6 18 -4 9 18 -8 20 -24 21 -24 2z"/>
 <path d="M1518 973 c7 -3 16 -2 19 1 4 3 -2 6 -13 5 -11 0 -14 -3 -6 -6z"/>
 <path d="M1793 963 c-20 -8 -15 -23 7 -23 11 0 20 7 20 15 0 15 -6 17 -27 8z"/>
 <path d="M2637 948 c-7 -25 -1 -38 18 -38 7 0 16 -7 19 -16 7 -18 40 -11 69 14 25 23 21 30 -18 29 -22 -1 -36 -6 -38 -16 -3 -11 -7 -8 -15 11 -15 36 -29 42 -35 16z"/>
 <path d="M2003 923 c-20 -8 -15 -23 7 -23 11 0 20 7 20 15 0 15 -6 17 -27 8z"/>
 <path d="M2780 920 c0 -5 -6 -10 -14 -10 -22 0 -29 -19 -15 -36 14 -17 60 -15 67 4 2 6 -3 12 -11 12 -10 0 -13 7 -10 20 3 11 0 20 -6 20 -6 0 -11 -4 -11 -10z"/>
 <path d="M1510 895 c0 -8 5 -15 10 -15 6 0 10 7 10 15 0 8 -4 15 -10 15 -5 0 -10 -7 -10 -15z"/>
 <path d="M835 880 c-3 -5 -14 -10 -23 -10 -9 0 -23 -12 -29 -27 -17 -35 -16 -43 2 -43 8 0 15 -6 15 -14 0 -8 7 -16 15 -20 8 -3 15 -12 15 -20 0 -8 15 -16 35 -20 19 -4 35 -11 35 -17 0 -5 8 -13 18 -16 9 -4 29 -15 44 -26 14 -11 31 -16 37 -13 20 12 12 42 -14 54 -28 13 -66 68 -59 87 3 7 -6 20 -20 29 -15 9 -26 25 -26 35 0 10 -7 22 -16 25 -21 8 -22 8 -29 -4z"/>
 <path d="M732 838 c6 -18 28 -21 28 -4 0 9 -7 16 -16 16 -9 0 -14 -5 -12 -12z"/>
 <path d="M990 760 c0 -13 10 -24 26 -30 37 -14 64 -12 64 5 0 8 -8 15 -19 15 -10 0 -24 7 -31 15 -18 21 -40 19 -40 -5z"/>
 <path d="M1020 655 c0 -8 5 -15 10 -15 6 0 10 7 10 15 0 8 -4 15 -10 15 -5 0 -10 -7 -10 -15z"/>
 </g>

</svg>